SplineFontDB: 3.0
FontName: Classica-Book
FullName: Classica Book
FamilyName: Classica
Weight: Book
Copyright: Copyright (c) 2020-2024 by Wojciech Kalinowski "wmk69" with Reserved Font Name "Classica-Book".\nThis Font Software is licensed under the SIL Open Font License, Version 1.1.
Version: 2.1.1; 2021-05-14
ItalicAngle: 0
UnderlinePosition: -80
UnderlineWidth: 200
Ascent: 1638
Descent: 410
InvalidEm: 0
LayerCount: 2
Layer: 0 1 "Warstwa t+AUIA-a" 1
Layer: 1 1 "Plan pierwszy" 0
XUID: [1021 783 23647091 2952791]
StyleMap: 0x0040
FSType: 0
OS2Version: 3
OS2_WeightWidthSlopeOnly: 0
OS2_UseTypoMetrics: 1
CreationTime: 1260698820
ModificationTime: 1620982709
PfmFamily: 17
TTFWeight: 400
TTFWidth: 5
LineGap: 300
VLineGap: 0
Panose: 2 14 5 2 5 5 4 6 5 4
OS2TypoAscent: 2000
OS2TypoAOffset: 0
OS2TypoDescent: -500
OS2TypoDOffset: 0
OS2TypoLinegap: 300
OS2WinAscent: 2000
OS2WinAOffset: 0
OS2WinDescent: 500
OS2WinDOffset: 0
HheadAscent: 2000
HheadAOffset: 0
HheadDescent: -500
HheadDOffset: 0
OS2SubXSize: 1434
OS2SubYSize: 1331
OS2SubXOff: 0
OS2SubYOff: 287
OS2SupXSize: 1434
OS2SupYSize: 1331
OS2SupXOff: 0
OS2SupYOff: 977
OS2StrikeYSize: 102
OS2StrikeYPos: 512
OS2CapHeight: 1510
OS2XHeight: 1100
OS2Vendor: '    '
OS2CodePages: 20000093.00000000
OS2UnicodeRanges: 8000002f.4000204b.00000000.00000000
Lookup: 258 0 0 "'kern' Horizontal Kerning lookup 0" { "'kern' Horizontal Kerning lookup 0-1 subtable" [307,0,6] } ['kern' ('DFLT' <'dflt' > 'grek' <'dflt' > 'latn' <'dflt' > ) ]
MarkAttachClasses: 1
DEI: 91125
KernClass2: 61 47 "'kern' Horizontal Kerning lookup 0-1 subtable"
 252 H I J M N U Igrave Iacute Icircumflex Idieresis Ntilde Ugrave Uacute Ucircumflex Udieresis Hcircumflex Hbar Itilde Imacron Ibreve Iogonek Idotaccent IJ Jcircumflex Nacute Ncommaaccent Ncaron Utilde Umacron Ubreve Uring Uhungarumlaut Uogonek uni1E40 Eng
 84 A Agrave Aacute Acircumflex Atilde Adieresis Aring Amacron Abreve Aogonek Aringacute

StartChar: .notdef
Encoding: 65536 -1 0
Width: 994
Flags: W
HStem: 0 68<260 734> 1442 68<260 734>
VStem: 150 110<68 1442> 734 110<68 1442>
LayerCount: 2
Fore
SplineSet
150 0 m 1,0,-1
 150 1510 l 1,1,-1
 844 1510 l 1,2,-1
 844 0 l 1,3,-1
 150 0 l 1,0,-1
260 68 m 1,4,-1
 734 68 l 1,5,-1
 734 1442 l 1,6,-1
 260 1442 l 1,7,-1
 260 68 l 1,4,-1
EndSplineSet
Validated: 1
EndChar

StartChar: exclam
Encoding: 33 33 4
Width: 692
GlyphClass: 2
Flags: W
HStem: -20 264<255.191 436.809> 1490 20G<200 492>
VStem: 216 260<19.7072 204.293> 240 212<593.552 1505.31> 260 172<350 966.448>
LayerCount: 2
Fore
SplineSet
200 1510 m 1,0,-1
 492 1510 l 1,1,2
 456 1362 456 1362 452 1210 c 2,3,-1
 432 350 l 25,4,-1
 260 350 l 25,5,-1
 240 1210 l 2,6,7
 237 1360 237 1360 200 1510 c 1,0,-1
346 -20 m 128,-1,9
 292 -20 292 -20 254 18.5 c 128,-1,10
 216 57 216 57 216 112 c 128,-1,11
 216 167 216 167 254 205.5 c 128,-1,12
 292 244 292 244 346 244 c 128,-1,13
 400 244 400 244 438 205.5 c 128,-1,14
 476 167 476 167 476 112 c 128,-1,15
 476 57 476 57 438 18.5 c 128,-1,8
 400 -20 400 -20 346 -20 c 128,-1,9
EndSplineSet
Validated: 1
EndChar

StartChar: quotedbl
Encoding: 34 34 5
Width: 608
GlyphClass: 2
Flags: W
HStem: 1120 410<80 230 378 528>
VStem: 80 150<1120 1525.29> 378 150<1120 1525.29>
LayerCount: 2
Fore
SplineSet
348 1530 m 1,0,-1
 558 1530 l 1,1,2
 528 1380 528 1380 528 1120 c 9,3,-1
 378 1120 l 17,4,5
 378 1380 378 1380 348 1530 c 1,0,-1
50 1530 m 1,6,-1
 260 1530 l 1,7,8
 230 1380 230 1380 230 1120 c 9,9,-1
 80 1120 l 17,10,11
 80 1380 80 1380 50 1530 c 1,6,-1
EndSplineSet
Validated: 1
EndChar

StartChar: numbersign
Encoding: 35 35 6
Width: 1359
GlyphClass: 2
Flags: W
HStem: 514 124<204.813 444 570 788 915 1155.13> 858 124<203.844 444 571 788 915 1154.16>
VStem: 446 124<271.844 513 639 857 983 1222.16> 790 124<273.812 513 639 857 983 1224.09>
LayerCount: 2
Fore
SplineSet
570 858 m 1,0,-1
 570 638 l 1,1,-1
 790 638 l 1,2,-1
 790 858 l 1,3,-1
 570 858 l 1,0,-1
416 1226 m 1,4,-1
 600 1226 l 1,5,6
 575 1104 575 1104 571 982 c 1,7,-1
 788 982 l 1,8,9
 784 1103 784 1103 760 1228 c 1,10,-1
 944 1228 l 1,11,12
 919 1105 919 1105 915 983 c 1,13,14
 1035 988 1035 988 1158 1012 c 1,15,-1
 1158 828 l 1,16,17
 1035 852 1035 852 914 857 c 1,18,-1
 914 639 l 1,19,20
 1035 644 1035 644 1159 668 c 1,21,-1
 1159 484 l 1,22,23
 1036 508 1036 508 915 513 c 1,24,25
 919 391 919 391 944 270 c 1,26,-1
 760 270 l 1,27,28
 784 392 784 392 788 514 c 1,29,-1
 570 514 l 1,30,31
 575 391 575 391 600 268 c 1,32,-1
 416 268 l 1,33,34
 440 391 440 391 444 513 c 1,35,36
 323 508 323 508 201 484 c 1,37,-1
 201 668 l 1,38,39
 323 644 323 644 446 639 c 1,40,-1
 446 857 l 1,41,42
 323 853 323 853 200 828 c 1,43,-1
 200 1012 l 1,44,45
 322 988 322 988 444 983 c 1,46,47
 440 1103 440 1103 416 1226 c 1,4,-1
EndSplineSet
Validated: 1
EndChar

StartChar: dollar
Encoding: 36 36 7
Width: 1065
GlyphClass: 2
Flags: W
HStem: -20 126<293.804 512> 1406 123<612 725.699>
VStem: 182 185<1083.31 1330.91> 512 100<-180 -17 139 695 992 1396 1525.28 1690> 789 196<264.604 564.5> 829 10<1223 1232.66>
LayerCount: 2
Fore
SplineSet
445 -20 m 0,0,1
 255 -20 255 -20 80 88 c 1,2,-1
 80 389 l 1,3,-1
 90 389 l 1,4,5
 130 301 130 301 183 242 c 0,6,7
 303 106 303 106 457 106 c 0,8,9
 486 106 486 106 512 109 c 1,10,-1
 512 764 l 1,11,-1
 435 816 l 2,12,13
 182 988 182 988 182 1175 c 0,14,15
 182 1370 182 1370 337 1466 c 0,16,17
 416 1515 416 1515 512 1526 c 1,18,-1
 512 1690 l 1,19,-1
 612 1690 l 1,20,-1
 612 1529 l 1,21,22
 733 1522 733 1522 839 1474 c 1,23,-1
 839 1223 l 1,24,-1
 829 1223 l 1,25,26
 814 1254 814 1254 795 1284 c 0,27,28
 722 1398 722 1398 612 1406 c 1,29,-1
 612 926 l 1,30,-1
 684 878 l 2,31,32
 985 679 985 679 985 452 c 0,33,34
 985 247 985 247 844 118 c 0,35,36
 748 30 748 30 612 -2 c 1,37,-1
 612 -180 l 1,38,-1
 512 -180 l 1,39,-1
 512 -17 l 1,40,41
 479 -20 479 -20 445 -20 c 0,0,1
512 992 m 1,42,-1
 512 1396 l 1,43,44
 472 1385 472 1385 444 1363 c 0,45,46
 367 1303 367 1303 367 1202 c 0,47,48
 367 1091 367 1091 512 992 c 1,42,-1
612 695 m 1,49,-1
 612 139 l 1,50,51
 666 165 666 165 707 212 c 0,52,53
 788 306 788 306 789 418 c 0,54,55
 789 574 789 574 612 695 c 1,49,-1
EndSplineSet
Validated: 1
EndChar

StartChar: percent
Encoding: 37 37 8
Width: 1646
GlyphClass: 2
Flags: W
HStem: -20 100<1055.34 1275.73> 0 21G<370 612.5> 529 101<1054.51 1275.67> 880 100<371.338 591.732> 1429 101<370.512 591.671> 1490 20G<1050.5 1290>
VStem: 150 148<1054.57 1355.12> 664 148<1054.68 1355.24> 834 148<154.567 455.12> 1348 148<154.684 455.237>
DStem2: 968 1225 1136 1251 0.417626 0.908619<-1265.13 296.199>
LayerCount: 2
Fore
SplineSet
1165 -20 m 0,0,1
 1019 -20 1019 -20 933 66 c 0,2,3
 834 162 834 162 834 305 c 0,4,5
 834 449 834 449 933 544 c 0,6,7
 1024 630 1024 630 1165 630 c 0,8,9
 1308 630 1308 630 1397 544 c 0,10,11
 1496 449 1496 449 1496 305 c 0,12,13
 1496 162 1496 162 1397 66 c 0,14,15
 1307 -20 1307 -20 1165 -20 c 0,0,1
1165 80 m 0,16,17
 1243 80 1243 80 1297 146 c 0,18,19
 1348 209 1348 209 1348 305 c 0,20,21
 1348 403 1348 403 1297 463 c 0,22,23
 1241 529 1241 529 1165 529 c 0,24,25
 1087 529 1087 529 1033 463 c 0,26,27
 982 401 982 401 982 305 c 0,28,29
 982 207 982 207 1033 146 c 0,30,31
 1088 80 1088 80 1165 80 c 0,16,17
481 1530 m 0,32,33
 624 1530 624 1530 713 1444 c 0,34,35
 812 1349 812 1349 812 1205 c 0,36,37
 812 1062 812 1062 713 966 c 0,38,39
 623 880 623 880 481 880 c 0,40,41
 335 880 335 880 249 966 c 0,42,43
 150 1062 150 1062 150 1205 c 0,44,45
 150 1349 150 1349 249 1444 c 0,46,47
 340 1530 340 1530 481 1530 c 0,32,33
481 1429 m 0,48,49
 403 1429 403 1429 349 1363 c 0,50,51
 298 1301 298 1301 298 1205 c 0,52,53
 298 1107 298 1107 349 1046 c 0,54,55
 404 980 404 980 481 980 c 0,56,57
 559 980 559 980 613 1046 c 0,58,59
 664 1109 664 1109 664 1205 c 0,60,61
 664 1303 664 1303 613 1363 c 0,62,63
 557 1429 557 1429 481 1429 c 0,48,49
370 0 m 1,64,65
 458 116 458 116 524 259 c 10,66,-1
 968 1225 l 2,67,68
 1033 1367 1033 1367 1068 1510 c 1,69,-1
 1290 1510 l 1,70,71
 1202 1394 1202 1394 1136 1251 c 2,72,-1
 692 285 l 2,73,74
 633 156 633 156 592 0 c 1,75,-1
 370 0 l 1,64,65
EndSplineSet
Validated: 1
EndChar

StartChar: quotesingle
Encoding: 39 39 9
Width: 310
GlyphClass: 2
Flags: W
HStem: 1120 410<80 230>
VStem: 80 150<1120 1525.29>
LayerCount: 2
Fore
SplineSet
50 1530 m 1,0,-1
 260 1530 l 1,1,2
 230 1380 230 1380 230 1120 c 9,3,-1
 80 1120 l 17,4,5
 80 1380 80 1380 50 1530 c 1,0,-1
EndSplineSet
Validated: 1
EndChar

StartChar: parenleft
Encoding: 40 40 10
Width: 807
GlyphClass: 2
Flags: W
VStem: 200 200<375.126 1134.87>
LayerCount: 2
Fore
SplineSet
530 1760 m 1,0,-1
 657 1760 l 1,1,2
 400 1340 400 1340 400 755 c 128,-1,3
 400 170 400 170 657 -250 c 1,4,-1
 530 -250 l 1,5,6
 200 218 200 218 200 755 c 128,-1,7
 200 1292 200 1292 530 1760 c 1,0,-1
EndSplineSet
Validated: 1
EndChar

StartChar: parenright
Encoding: 41 41 11
Width: 807
GlyphClass: 2
Flags: W
VStem: 407 200<375.126 1134.87>
LayerCount: 2
Fore
SplineSet
150 1760 m 1,0,-1
 277 1760 l 1,1,2
 607 1292 607 1292 607 755 c 128,-1,3
 607 218 607 218 277 -250 c 1,4,-1
 150 -250 l 1,5,6
 407 170 407 170 407 755 c 128,-1,7
 407 1340 407 1340 150 1760 c 1,0,-1
EndSplineSet
Validated: 1
EndChar

StartChar: asterisk
Encoding: 42 42 12
Width: 1113
GlyphClass: 2
Flags: W
HStem: 1490 20G<465 649>
VStem: 495 124<681.659 986 1201 1505.13>
LayerCount: 2
Fore
SplineSet
465 1510 m 1,0,1
 649 1510 l 1,2,3
 619 1355 619 1355 619 1201 c 1,4,5
 756 1274 756 1274 871 1381 c 1,6,-1
 963 1222 l 1,7,8
 815 1172 815 1172 681 1094 c 1,9,10
 819 1018 819 1018 963 965 c 1,11,-1
 871 806 l 1,12,13
 757 906 757 906 619 986 c 1,14,15
 619 826 619 826 649 677 c 1,16,-1
 465 677 l 1,17,18
 495 826 495 826 495 986 c 1,19,20
 354 912 354 912 242 806 c 1,21,-1
 150 965 l 1,22,23
 295 1014 295 1014 433 1094 c 1,24,25
 297 1168 297 1168 150 1222 c 1,26,-1
 242 1381 l 1,27,28
 352 1280 352 1280 495 1201 c 1,29,30
 495 1354 495 1354 465 1510 c 1,0,1
EndSplineSet
Validated: 1
EndChar

StartChar: plus
Encoding: 43 43 13
Width: 1133
GlyphClass: 2
Flags: W
HStem: 668 154<154.688 490 644 978.251>
VStem: 490 154<332.688 668 822 1157.25>
LayerCount: 2
Fore
SplineSet
460 1162 m 1,0,-1
 674 1162 l 1,1,2
 644 1010 644 1010 644 862 c 2,3,-1
 644 822 l 1,4,-1
 683 822 l 2,5,6
 831 822 831 822 983 852 c 1,7,-1
 983 638 l 1,8,9
 832 668 832 668 683 668 c 2,10,-1
 644 668 l 1,11,-1
 644 628 l 2,12,13
 644 478 644 478 674 328 c 1,14,-1
 460 328 l 1,15,16
 490 478 490 478 490 628 c 2,17,-1
 490 668 l 1,18,-1
 450 668 l 2,19,20
 300 668 300 668 150 638 c 1,21,-1
 150 852 l 1,22,23
 300 822 300 822 450 822 c 2,24,-1
 490 822 l 1,25,-1
 490 862 l 2,26,27
 490 1010 490 1010 460 1162 c 1,0,-1
EndSplineSet
Validated: 1
EndChar

StartChar: comma
Encoding: 44 44 14
Width: 378
GlyphClass: 2
Flags: W
HStem: -292 572
VStem: 157 171<-112.368 95.0098>
LayerCount: 2
Fore
SplineSet
205 280 m 1,0,1
 328 180 328 180 328 45 c 0,2,3
 328 -177 328 -177 50 -292 c 1,4,-1
 50 -282 l 1,5,6
 157 -162 157 -162 157 -24 c 0,7,8
 157 74 157 74 65 140 c 1,9,-1
 205 280 l 1,0,1
EndSplineSet
Validated: 1
EndChar

StartChar: hyphen
Encoding: 45 45 15
Width: 1133
GlyphClass: 2
Flags: W
HStem: 668 154<154.688 978.251>
LayerCount: 2
Fore
SplineSet
150 852 m 1,0,1
 300 822 300 822 450 822 c 2,2,-1
 683 822 l 2,3,4
 831 822 831 822 983 852 c 1,5,-1
 983 638 l 1,6,7
 832 668 832 668 683 668 c 2,8,-1
 450 668 l 2,9,10
 300 668 300 668 150 638 c 1,11,-1
 150 852 l 1,0,1
EndSplineSet
Validated: 1
EndChar

StartChar: period
Encoding: 46 46 16
Width: 360
GlyphClass: 2
Flags: W
HStem: -20 264<89.1914 270.809>
VStem: 50 260<19.7072 204.293>
LayerCount: 2
Fore
SplineSet
180 -20 m 128,-1,1
 126 -20 126 -20 88 18.5 c 128,-1,2
 50 57 50 57 50 112 c 128,-1,3
 50 167 50 167 88 205.5 c 128,-1,4
 126 244 126 244 180 244 c 128,-1,5
 234 244 234 244 272 205.5 c 128,-1,6
 310 167 310 167 310 112 c 128,-1,7
 310 57 310 57 272 18.5 c 128,-1,0
 234 -20 234 -20 180 -20 c 128,-1,1
EndSplineSet
Validated: 1
EndChar

StartChar: slash
Encoding: 47 47 17
Width: 1126
GlyphClass: 2
Flags: W
DStem2: 774 1405 962 1431 0.417928 0.90848<-1652.97 296.024>
LayerCount: 2
Fore
SplineSet
10 -180 m 1,0,1
 109 -41 109 -41 164 79 c 10,2,-1
 774 1405 l 2,3,4
 837 1542 837 1542 874 1690 c 1,5,-1
 1116 1690 l 1,6,7
 1022 1562 1022 1562 962 1431 c 2,8,-1
 352 105 l 2,9,10
 295 -19 295 -19 252 -180 c 1,11,-1
 10 -180 l 1,0,1
EndSplineSet
Validated: 1
EndChar

StartChar: zero
Encoding: 48 48 18
Width: 1424
GlyphClass: 2
Flags: W
HStem: -20 124<569.633 854.367> 1406 124<568.637 855.363>
VStem: 150 220<429.85 1082.33> 1054 220<429.85 1082.33>
LayerCount: 2
Fore
SplineSet
712 -20 m 128,-1,1
 497 -20 497 -20 337 164 c 0,2,3
 150 379 150 379 150 755 c 128,-1,4
 150 1131 150 1131 337 1346 c 0,5,6
 497 1530 497 1530 712 1530 c 128,-1,7
 927 1530 927 1530 1087 1346 c 0,8,9
 1274 1131 1274 1131 1274 755 c 128,-1,10
 1274 379 1274 379 1087 164 c 0,11,0
 927 -20 927 -20 712 -20 c 128,-1,1
712 104 m 128,-1,13
 860 104 860 104 959 262 c 0,14,15
 1054 414 1054 414 1054 755 c 0,16,17
 1054 1090 1054 1090 959 1248 c 128,-1,18
 864 1406 864 1406 712 1406 c 128,-1,19
 560 1406 560 1406 465 1248 c 128,-1,20
 370 1090 370 1090 370 755 c 0,21,22
 370 414 370 414 465 262 c 0,23,12
 564 104 564 104 712 104 c 128,-1,13
EndSplineSet
Validated: 1
EndChar

StartChar: one
Encoding: 49 49 19
Width: 752
GlyphClass: 2
Flags: W
HStem: 0 21G<282 532> 1530 20G<432 517>
VStem: 312 190<6.44092 1352.85>
DStem2: 10 1235 88 1145 0.716263 0.69783<0 295.019>
LayerCount: 2
Fore
SplineSet
282 0 m 1,0,1
 312 105 312 105 312 300 c 2,2,-1
 312 1200 l 2,3,4
 312 1255 312 1255 304 1356 c 1,5,-1
 88 1145 l 1,6,-1
 10 1235 l 1,7,-1
 282 1500 l 1,8,-1
 532 1550 l 1,9,10
 502 1403 502 1403 502 1250 c 2,11,-1
 502 300 l 2,12,13
 502 207 502 207 532 0 c 1,14,-1
 282 0 l 1,0,1
EndSplineSet
Validated: 1
EndChar

StartChar: two
Encoding: 50 50 20
Width: 1250
GlyphClass: 2
Flags: W
HStem: 0 154<321 1095.28> 1121 21G<199 273.5> 1406 124<403.354 729.776>
VStem: 199 10<1121 1129.84> 860 228<914.498 1270.36>
LayerCount: 2
Fore
SplineSet
120 0 m 1,0,1
 174 349 174 349 636 704 c 0,2,3
 860 876 860 876 860 1099 c 0,4,5
 860 1221 860 1221 790 1309 c 0,6,7
 713 1406 713 1406 563 1406 c 0,8,9
 338 1406 338 1406 209 1121 c 1,10,-1
 199 1121 l 1,11,-1
 199 1422 l 1,12,13
 362 1530 362 1530 596 1530 c 0,14,15
 811 1530 811 1530 941 1421 c 0,16,17
 1088 1299 1088 1299 1088 1078 c 0,18,19
 1088 780 1088 780 708 545 c 0,20,21
 396 352 396 352 321 154 c 1,22,-1
 800 154 l 2,23,24
 949 154 949 154 1100 184 c 1,25,-1
 1100 0 l 1,26,-1
 120 0 l 1,0,1
EndSplineSet
Validated: 1
EndChar

StartChar: three
Encoding: 51 51 21
Width: 1203
GlyphClass: 2
Flags: W
HStem: -20 124<337.635 673.74> 795 110<604 670.152> 1386 124<216.595 758>
VStem: 838 215<271.102 630.073>
DStem2: 400 868 604 905 0.568549 0.822649<146.422 629.424>
LayerCount: 2
Fore
SplineSet
485 -20 m 0,0,1
 283 -20 283 -20 120 88 c 1,2,-1
 120 389 l 1,3,-1
 130 389 l 1,4,5
 170 301 170 301 223 242 c 0,6,7
 347 104 347 104 496 104 c 0,8,9
 651 104 651 104 747 208 c 0,10,11
 838 307 838 307 838 450 c 0,12,13
 838 609 838 609 737 704 c 0,14,15
 640 795 640 795 451 795 c 1,16,-1
 400 868 l 9,17,-1
 758 1386 l 17,18,-1
 512 1386 l 2,19,20
 359 1386 359 1386 212 1356 c 1,21,-1
 212 1510 l 1,22,-1
 950 1510 l 1,23,-1
 972 1386 l 1,24,25
 871 1289 871 1289 773 1148 c 10,26,-1
 604 905 l 1,27,28
 771 905 771 905 897 806 c 0,29,30
 1053 683 1053 683 1053 456 c 0,31,32
 1053 253 1053 253 887 102 c 0,33,34
 752 -20 752 -20 485 -20 c 0,0,1
EndSplineSet
Validated: 1
EndChar

StartChar: five
Encoding: 53 53 22
Width: 1203
GlyphClass: 2
Flags: W
HStem: -20 124<336.474 674.927> 804 126<397.715 677.19> 1386 124<417 927.743>
VStem: 838 215<269.62 640.83>
LayerCount: 2
Fore
SplineSet
485 -20 m 0,0,1
 290 -20 290 -20 120 88 c 1,2,-1
 120 389 l 1,3,-1
 130 389 l 1,4,5
 170 301 170 301 223 242 c 0,6,7
 347 104 347 104 497 104 c 0,8,9
 656 104 656 104 747 204 c 128,-1,10
 838 304 838 304 838 450 c 0,11,12
 838 614 838 614 743.5 709 c 128,-1,13
 649 804 649 804 487 804 c 0,14,15
 419 804 419 804 355 776 c 1,16,-1
 170 901 l 17,17,-1
 294 1510 l 1,18,-1
 932 1510 l 1,19,-1
 932 1356 l 1,20,21
 796 1386 796 1386 632 1386 c 2,22,-1
 417 1386 l 9,23,-1
 396 918 l 17,24,25
 460 930 460 930 518 930 c 0,26,27
 756 930 756 930 897 806 c 0,28,29
 1053 668 1053 668 1053 457 c 0,30,31
 1053 253 1053 253 887 102 c 0,32,33
 752 -20 752 -20 485 -20 c 0,0,1
EndSplineSet
Validated: 1
EndChar

StartChar: six
Encoding: 54 54 23
Width: 1358
GlyphClass: 2
Flags: W
HStem: -20 124<548.901 853.784> 896 120<548.22 848.563> 1406 124<589.108 898.507>
VStem: 150 210<834 1073.92> 1002 206<286.267 719.265> 1068 10<1144 1152.12>
LayerCount: 2
Fore
SplineSet
697 104 m 0,0,1
 848 104 848 104 925 224 c 0,2,3
 1002 346 1002 346 1002 501 c 0,4,5
 1002 671 1002 671 925 776 c 0,6,7
 838 896 838 896 702 896 c 0,8,9
 556 896 556 896 469 776 c 0,10,11
 382 658 382 658 382 501 c 0,12,13
 382 341 382 341 469 224 c 0,14,15
 558 104 558 104 697 104 c 0,0,1
702 -20 m 0,16,17
 468 -20 468 -20 323 156 c 0,18,19
 150 366 150 366 150 754 c 0,20,21
 150 1126 150 1126 342 1348 c 0,22,23
 498 1530 498 1530 752 1530 c 0,24,25
 932 1530 932 1530 1078 1445 c 1,26,-1
 1078 1144 l 1,27,-1
 1068 1144 l 1,28,29
 949 1406 949 1406 752 1406 c 0,30,31
 593 1406 593 1406 485 1269 c 0,32,33
 360 1110 360 1110 360 834 c 1,34,35
 483 1016 483 1016 700 1016 c 0,36,37
 943 1016 943 1016 1075.5 868 c 128,-1,38
 1208 720 1208 720 1208 500 c 0,39,40
 1208 288 1208 288 1063 134 c 128,-1,41
 918 -20 918 -20 702 -20 c 0,16,17
EndSplineSet
Validated: 1
EndChar

StartChar: seven
Encoding: 55 55 24
Width: 992
GlyphClass: 2
Flags: W
HStem: 0 21G<33 319> 1386 124<24.1646 732>
DStem2: 732 1386 796 1106 0.435352 0.90026<-1429.5 -1.72916>
LayerCount: 2
Fore
SplineSet
33 0 m 1,0,1
 121 122 121 122 187 259 c 2,2,-1
 732 1386 l 1,3,-1
 320 1386 l 2,4,5
 153 1386 153 1386 20 1356 c 1,6,-1
 20 1510 l 1,7,-1
 940 1510 l 1,8,-1
 972 1386 l 1,9,10
 873 1268 873 1268 796 1106 c 2,11,-1
 405 285 l 2,12,13
 333 134 333 134 305 0 c 1,14,-1
 33 0 l 1,0,1
EndSplineSet
Validated: 1
EndChar

StartChar: eight
Encoding: 56 56 25
Width: 1227
GlyphClass: 2
Flags: W
HStem: -20 124<433.611 773.175> 1406 124<496.604 760.247>
VStem: 120 147<265.244 586.072> 237 184<1075.78 1331.73> 845 147<1052.55 1318.27> 919 188<249.055 543.518>
LayerCount: 2
Fore
SplineSet
672 939 m 1,0,1
 845 1041 845 1041 845 1192 c 0,2,3
 845 1272 845 1272 787 1336 c 0,4,5
 724 1406 724 1406 629 1406 c 0,6,7
 541 1406 541 1406 481 1349 c 128,-1,8
 421 1292 421 1292 421 1198 c 0,9,10
 421 1073 421 1073 571 993 c 2,11,-1
 672 939 l 1,0,1
606 -20 m 0,12,13
 391 -20 391 -20 259 101 c 0,14,15
 120 228 120 228 120 424 c 0,16,17
 120 711 120 711 437 843 c 1,18,19
 237 973 237 973 237 1172 c 0,20,21
 237 1346 237 1346 363 1444 c 0,22,23
 473 1530 473 1530 628 1530 c 0,24,25
 778 1530 778 1530 873 1448 c 0,26,27
 991 1346 991 1346 992 1192 c 0,28,29
 992 989 992 989 789 872 c 1,30,31
 1107 732 1107 732 1107 457 c 0,32,33
 1107 249 1107 249 964 112 c 0,34,35
 826 -20 826 -20 606 -20 c 0,12,13
568 765 m 1,36,37
 267 667 267 667 267 419 c 0,38,39
 267 291 267 291 371 195 c 0,40,41
 471 104 471 104 606 104 c 0,42,43
 749 104 749 104 841 203 c 0,44,45
 919 287 919 287 919 409 c 0,46,47
 919 571 919 571 700 692 c 2,48,-1
 568 765 l 1,36,37
EndSplineSet
Validated: 1
EndChar

StartChar: nine
Encoding: 57 57 26
Width: 1358
GlyphClass: 2
Flags: W
HStem: -20 124<459.493 768.892> 494 120<509.437 809.78> 1406 124<504.216 809.099>
VStem: 150 206<790.735 1223.73> 280 10<357.876 366> 998 210<436.075 676>
LayerCount: 2
Fore
SplineSet
661 1406 m 0,0,1
 510 1406 510 1406 433 1286 c 0,2,3
 356 1164 356 1164 356 1009 c 0,4,5
 356 839 356 839 433 734 c 0,6,7
 520 614 520 614 656 614 c 0,8,9
 802 614 802 614 889 734 c 0,10,11
 976 852 976 852 976 1009 c 0,12,13
 976 1169 976 1169 889 1286 c 0,14,15
 800 1406 800 1406 661 1406 c 0,0,1
606 -20 m 0,16,17
 426 -20 426 -20 280 65 c 1,18,-1
 280 366 l 1,19,-1
 290 366 l 1,20,21
 409 104 409 104 606 104 c 0,22,23
 765 104 765 104 873 241 c 0,24,25
 998 400 998 400 998 676 c 1,26,27
 875 494 875 494 658 494 c 0,28,29
 415 494 415 494 282.5 642 c 128,-1,30
 150 790 150 790 150 1010 c 0,31,32
 150 1222 150 1222 295 1376 c 128,-1,33
 440 1530 440 1530 656 1530 c 0,34,35
 890 1530 890 1530 1035 1354 c 0,36,37
 1208 1144 1208 1144 1208 756 c 0,38,39
 1208 384 1208 384 1016 162 c 0,40,41
 860 -20 860 -20 606 -20 c 0,16,17
EndSplineSet
Validated: 1
EndChar

StartChar: colon
Encoding: 58 58 27
Width: 362
GlyphClass: 2
Flags: W
HStem: -20 264<91.1914 272.809> 622 264<89.1914 270.809>
VStem: 52 260<19.7072 204.293 661.707 846.293>
LayerCount: 2
Fore
SplineSet
182 -20 m 128,-1,1
 128 -20 128 -20 90 18.5 c 128,-1,2
 52 57 52 57 52 112 c 128,-1,3
 52 167 52 167 90 205.5 c 128,-1,4
 128 244 128 244 182 244 c 128,-1,5
 236 244 236 244 274 205.5 c 128,-1,6
 312 167 312 167 312 112 c 128,-1,7
 312 57 312 57 274 18.5 c 128,-1,0
 236 -20 236 -20 182 -20 c 128,-1,1
180 886 m 128,-1,9
 234 886 234 886 272 847.5 c 128,-1,10
 310 809 310 809 310 754 c 128,-1,11
 310 699 310 699 272 660.5 c 128,-1,12
 234 622 234 622 180 622 c 128,-1,13
 126 622 126 622 88 660.5 c 128,-1,14
 50 699 50 699 50 754 c 128,-1,15
 50 809 50 809 88 847.5 c 128,-1,8
 126 886 126 886 180 886 c 128,-1,9
EndSplineSet
Validated: 1
EndChar

StartChar: semicolon
Encoding: 59 59 28
Width: 378
GlyphClass: 2
Flags: W
HStem: 622 264<89.1914 270.809>
VStem: 50 260<661.707 846.293> 157 171<-112.368 95.0098>
LayerCount: 2
Fore
SplineSet
50 754 m 128,-1,1
 50 809 50 809 88 847.5 c 128,-1,2
 126 886 126 886 180 886 c 128,-1,3
 234 886 234 886 272 847.5 c 128,-1,4
 310 809 310 809 310 754 c 128,-1,5
 310 699 310 699 272 660.5 c 128,-1,6
 234 622 234 622 180 622 c 128,-1,7
 126 622 126 622 88 660.5 c 128,-1,0
 50 699 50 699 50 754 c 128,-1,1
205 280 m 1,8,9
 328 180 328 180 328 45 c 0,10,11
 328 -177 328 -177 50 -292 c 1,12,-1
 50 -282 l 1,13,14
 157 -162 157 -162 157 -24 c 0,15,16
 157 74 157 74 65 140 c 1,17,-1
 205 280 l 1,8,9
EndSplineSet
Validated: 1
EndChar

StartChar: less
Encoding: 60 60 29
Width: 1250
GlyphClass: 2
Flags: W
DStem2: 435 934 385 731 0.916379 0.400313<-126.695 584.123> 385 731 435 552 0.902817 -0.430026<1.34968 716.976>
LayerCount: 2
Fore
SplineSet
150 652 m 1,0,-1
 150 834 l 1,1,2
 291 865 291 865 435 934 c 2,3,-1
 791 1104 l 2,4,5
 932 1172 932 1172 1050 1258 c 1,6,-1
 1050 997 l 1,7,8
 904 958 904 958 765 897 c 2,9,-1
 385 731 l 25,10,-1
 765 550 l 2,11,12
 914 479 914 479 1050 450 c 1,13,-1
 1050 228 l 1,14,15
 921 320 921 320 791 382 c 2,16,-1
 435 552 l 2,17,18
 302 616 302 616 150 652 c 1,0,-1
EndSplineSet
Validated: 1
EndChar

StartChar: equal
Encoding: 61 61 30
Width: 1133
GlyphClass: 2
Flags: W
HStem: 484 154<154.688 978.251> 852 154<154.688 978.251>
LayerCount: 2
Fore
SplineSet
150 668 m 1,0,1
 300 638 300 638 450 638 c 2,2,-1
 683 638 l 2,3,4
 831 638 831 638 983 668 c 1,5,-1
 983 454 l 1,6,7
 832 484 832 484 683 484 c 2,8,-1
 450 484 l 2,9,10
 300 484 300 484 150 454 c 1,11,-1
 150 668 l 1,0,1
150 1036 m 1,12,13
 300 1006 300 1006 450 1006 c 2,14,-1
 683 1006 l 2,15,16
 831 1006 831 1006 983 1036 c 1,17,-1
 983 822 l 1,18,19
 832 852 832 852 683 852 c 2,20,-1
 450 852 l 2,21,22
 300 852 300 852 150 822 c 1,23,-1
 150 1036 l 1,12,13
EndSplineSet
Validated: 1
EndChar

StartChar: greater
Encoding: 62 62 31
Width: 1250
GlyphClass: 2
Flags: W
DStem2: 459 1104 485 936 0.902817 -0.430026<-200.354 515.273> 865 755 459 382 0.916379 0.400313<-711.206 -0.387859>
LayerCount: 2
Fore
SplineSet
1100 834 m 1,0,-1
 1100 652 l 1,1,2
 959 621 959 621 815 552 c 2,3,-1
 459 382 l 2,4,5
 318 314 318 314 200 228 c 1,6,-1
 200 489 l 1,7,8
 346 528 346 528 485 589 c 2,9,-1
 865 755 l 25,10,-1
 485 936 l 2,11,12
 336 1007 336 1007 200 1036 c 1,13,-1
 200 1258 l 1,14,15
 329 1166 329 1166 459 1104 c 2,16,-1
 815 934 l 2,17,18
 948 870 948 870 1100 834 c 1,0,-1
EndSplineSet
Validated: 1
EndChar

StartChar: question
Encoding: 63 63 32
Width: 1194
GlyphClass: 2
Flags: W
HStem: -20 264<430.191 611.809> 1121 21G<150 180> 1404 126<366.998 698.957>
VStem: 391 260<19.7072 204.293> 459 116<360 520.898> 833 211<917.218 1270.16>
LayerCount: 2
Fore
SplineSet
554 1530 m 0,0,1
 790 1530 790 1530 919 1407 c 0,2,3
 1044 1288 1044 1288 1044 1100 c 0,4,5
 1044 842 1044 842 780 676 c 0,6,7
 575 547 575 547 575 360 c 1,8,-1
 459 360 l 1,9,10
 459 634 459 634 684 802 c 0,11,12
 833 914 833 914 833 1082 c 0,13,14
 833 1229 833 1229 758 1312 c 0,15,16
 675 1404 675 1404 535 1404 c 0,17,18
 375 1404 375 1404 253 1268 c 0,19,20
 200 1209 200 1209 160 1121 c 1,21,-1
 150 1121 l 1,22,-1
 150 1412 l 1,23,24
 344 1530 344 1530 554 1530 c 0,0,1
521 -20 m 128,-1,26
 467 -20 467 -20 429 18.5 c 128,-1,27
 391 57 391 57 391 112 c 128,-1,28
 391 167 391 167 429 205.5 c 128,-1,29
 467 244 467 244 521 244 c 128,-1,30
 575 244 575 244 613 205.5 c 128,-1,31
 651 167 651 167 651 112 c 128,-1,32
 651 57 651 57 613 18.5 c 128,-1,25
 575 -20 575 -20 521 -20 c 128,-1,26
EndSplineSet
Validated: 1
EndChar

StartChar: at
Encoding: 64 64 33
Width: 1589
GlyphClass: 2
Flags: W
HStem: -430 149<676.382 1147.62> -20 103<807.105 1105> 0 21G<1191 1417> 649 103<805.358 1106.13> 971 149<676.382 1105.78>
VStem: 150 146<95.4668 594.783> 501 189<205.118 526.154> 1219 170<197.56 534.05 643 853.08>
LayerCount: 2
Fore
SplineSet
1417 0 m 1,0,-1
 1191 0 l 1,1,2
 1200 31 1200 31 1203 80 c 1,3,4
 1093 -20 1093 -20 930 -20 c 0,5,6
 751 -20 751 -20 630 80 c 0,7,8
 501 188 501 188 501 368 c 128,-1,9
 501 548 501 548 630 652 c 0,10,11
 755 752 755 752 930 752 c 0,12,13
 1094 752 1094 752 1218 643 c 1,14,15
 1215 791 1215 791 1167 867 c 0,16,17
 1100 971 1100 971 912 971 c 0,18,19
 665 970 665 970 486 807 c 0,20,21
 296 633 296 633 296 345 c 0,22,23
 296 58 296 58 486 -117 c 0,24,25
 665 -281 665 -281 912 -281 c 128,-1,26
 1159 -281 1159 -281 1338 -117 c 1,27,-1
 1439 -227 l 1,28,29
 1218 -430 1218 -430 912 -430 c 128,-1,30
 606 -430 606 -430 385 -227 c 0,31,32
 150 -11 150 -11 150 345 c 128,-1,33
 150 701 150 701 385 917 c 0,34,35
 606 1120 606 1120 912 1120 c 0,36,37
 1214 1120 1214 1120 1329 947 c 0,38,39
 1389 857 1389 857 1389 641 c 2,40,-1
 1389 294 l 2,41,42
 1389 147 1389 147 1417 0 c 1,0,-1
1219 373 m 2,43,44
 1219 479 1219 479 1163 550 c 0,45,46
 1085 649 1085 649 953 649 c 0,47,48
 824 649 824 649 751 551 c 0,49,50
 690 470 690 470 690 366 c 128,-1,51
 690 262 690 262 751 181 c 0,52,53
 825 83 825 83 953 83 c 0,54,55
 1083 83 1083 83 1163 182 c 0,56,57
 1219 251 1219 251 1219 359 c 2,58,-1
 1219 373 l 2,43,44
EndSplineSet
Validated: 1
EndChar

StartChar: A
Encoding: 65 65 34
Width: 1590
GlyphClass: 2
Flags: W
HStem: 0 21G<5 246 1281.5 1585> 697 114<569 961> 1235 275<566.5 1023.5>
DStem2: 604 1225 517 697 0.418402 0.908262<-1265.6 -515.963 -390.664 75.3312> 986 1225 765 1235 0.418402 -0.908262<-98.1126 365.56 490.859 1240.1>
LayerCount: 2
Fore
SplineSet
5 0 m 1,0,1
 99 129 99 129 159 259 c 2,2,-1
 604 1225 l 2,3,4
 662 1351 662 1351 704 1510 c 1,5,-1
 886 1510 l 1,6,7
 928 1351 928 1351 986 1225 c 2,8,-1
 1431 259 l 2,9,10
 1487 137 1487 137 1585 0 c 1,11,-1
 1303 0 l 1,12,13
 1260 162 1260 162 1203 285 c 2,14,-1
 1013 697 l 1,15,-1
 517 697 l 1,16,-1
 327 285 l 2,17,18
 265 150 265 150 227 0 c 1,19,-1
 5 0 l 1,0,1
569 811 m 1,20,-1
 961 811 l 1,21,-1
 765 1235 l 1,22,-1
 569 811 l 1,20,-1
EndSplineSet
Validated: 1
EndChar

StartChar: B
Encoding: 66 66 35
Width: 1152
GlyphClass: 2
Flags: W
HStem: 0 124<390.625 668.308> 775 125<385 627.967> 1386 124<390.625 649.125>
VStem: 200 185<126.75 775 900 1383.25> 735 189<1008.59 1301.68> 836 216<279.625 617.93>
LayerCount: 2
Fore
SplineSet
395 124 m 1,0,-1
 495 124 l 2,1,2
 642 124 642 124 746 223 c 0,3,4
 836 309 836 309 836 450 c 0,5,6
 836 587 836 587 746 676 c 0,7,8
 646 775 646 775 495 775 c 2,9,-1
 385 775 l 1,10,-1
 385 300 l 2,11,12
 385 212 385 212 395 124 c 1,0,-1
170 0 m 1,13,14
 200 150 200 150 200 300 c 2,15,-1
 200 1210 l 2,16,17
 200 1360 200 1360 170 1510 c 1,18,-1
 525 1510 l 2,19,20
 704 1510 704 1510 811 1423 c 0,21,22
 924 1331 924 1331 924 1169 c 0,23,24
 924 1016 924 1016 799 914 c 0,25,26
 738 864 738 864 694 850 c 1,27,28
 815 832 815 832 894 770 c 0,29,30
 1052 644 1052 644 1052 450 c 0,31,32
 1052 263 1052 263 899 125 c 0,33,34
 759 0 759 0 510 0 c 2,35,-1
 170 0 l 1,13,14
385 900 m 1,36,-1
 491 900 l 2,37,38
 600 900 600 900 676 988 c 0,39,40
 735 1056 735 1056 735 1170 c 0,41,42
 735 1260 735 1260 671 1325 c 0,43,44
 611 1386 611 1386 491 1386 c 2,45,-1
 395 1386 l 1,46,47
 385 1298 385 1298 385 1210 c 2,48,-1
 385 900 l 1,36,-1
EndSplineSet
Validated: 1
EndChar

StartChar: C
Encoding: 67 67 36
Width: 1526
GlyphClass: 2
Flags: W
HStem: -20 126<686.01 1131.81> 1404 126<686.506 1121.29>
VStem: 100 225<487.881 1027.47>
LayerCount: 2
Fore
SplineSet
913 -20 m 0,0,1
 557 -20 557 -20 336 183 c 0,2,3
 100 400 100 400 100 755 c 128,-1,4
 100 1110 100 1110 336 1327 c 0,5,6
 557 1530 557 1530 913 1530 c 0,7,8
 1190 1530 1190 1530 1406 1402 c 1,9,-1
 1406 1098 l 1,10,-1
 1396 1098 l 1,11,12
 1215 1404 1215 1404 913 1404 c 0,13,14
 645 1404 645 1404 468 1198 c 0,15,16
 325 1032 325 1032 325 756 c 128,-1,17
 325 480 325 480 468 312 c 0,18,19
 643 106 643 106 913 106 c 0,20,21
 1224 106 1224 106 1416 412 c 1,22,-1
 1426 412 l 1,23,-1
 1426 168 l 1,24,25
 1213 -20 1213 -20 913 -20 c 0,0,1
EndSplineSet
Validated: 1
EndChar

StartChar: D
Encoding: 68 68 37
Width: 1599
GlyphClass: 2
Flags: W
HStem: 0 124<394.5 929.335> 1386 124<395.625 928.544>
VStem: 200 190<126.658 1383.31> 1274 225<493.547 1015.47>
LayerCount: 2
Fore
SplineSet
170 0 m 1,0,1
 200 150 200 150 200 300 c 2,2,-1
 200 1210 l 2,3,4
 200 1360 200 1360 170 1510 c 1,5,-1
 696 1510 l 2,6,7
 1042 1510 1042 1510 1263 1307 c 0,8,9
 1499 1089 1499 1089 1499 755 c 0,10,11
 1499 420 1499 420 1262 201 c 0,12,13
 1044 0 1044 0 696 0 c 2,14,-1
 170 0 l 1,0,1
398 124 m 1,15,16
 696 124 l 2,17,18
 983 124 983 124 1137 324 c 0,19,20
 1274 502 1274 502 1274 755 c 0,21,22
 1274 1007 1274 1007 1138 1184 c 0,23,24
 985 1382 985 1382 697 1384 c 2,25,-1
 400 1386 l 1,26,27
 390 1300 390 1300 390 1210 c 2,28,-1
 390 300 l 2,29,30
 390 209 390 209 398 124 c 1,15,16
EndSplineSet
Validated: 1
EndChar

StartChar: E
Encoding: 69 69 38
Width: 1068
GlyphClass: 2
Flags: W
HStem: 0 124<394.689 963.559> 697 124<390 843.312> 1386 124<395.862 843.312>
VStem: 200 190<126.873 697 821 1383.13>
LayerCount: 2
Fore
SplineSet
170 0 m 1,0,1
 200 150 200 150 200 300 c 2,2,-1
 200 1210 l 2,3,4
 200 1360 200 1360 170 1510 c 1,5,-1
 848 1510 l 1,6,-1
 848 1356 l 5,7,8
 698 1386 698 1386 548 1386 c 6,9,-1
 400 1386 l 5,10,11
 390 1294 390 1294 390 1210 c 6,12,-1
 390 821 l 5,13,-1
 548 821 l 6,14,15
 698 821 698 821 848 851 c 5,16,-1
 848 667 l 5,17,18
 698 697 698 697 548 697 c 6,19,-1
 390 697 l 5,20,-1
 390 300 l 6,21,22
 390 216 390 216 398 124 c 5,23,-1
 668 124 l 6,24,25
 826 124 826 124 968 154 c 5,26,-1
 968 0 l 1,27,-1
 170 0 l 1,0,1
EndSplineSet
Validated: 1
EndChar

StartChar: F
Encoding: 70 70 39
Width: 1028
GlyphClass: 2
Flags: W
HStem: 0 21G<170 420> 697 124<390 843.312> 1386 124<395.862 843.312>
VStem: 200 190<4.6875 697 821 1381.7>
LayerCount: 2
Fore
SplineSet
170 0 m 1,0,1
 200 150 200 150 200 300 c 2,2,-1
 200 1210 l 2,3,4
 200 1366 200 1366 170 1510 c 1,5,-1
 848 1510 l 1,6,-1
 848 1356 l 1,7,8
 698 1386 698 1386 548 1386 c 2,9,-1
 400 1386 l 1,10,11
 390 1294 390 1294 390 1210 c 2,12,-1
 390 821 l 1,13,-1
 548 821 l 2,14,15
 698 821 698 821 848 851 c 1,16,-1
 848 667 l 1,17,18
 698 697 698 697 548 697 c 2,19,-1
 390 697 l 1,20,-1
 390 300 l 2,21,22
 390 150 390 150 420 0 c 1,23,-1
 170 0 l 1,0,1
EndSplineSet
Validated: 1
EndChar

StartChar: G
Encoding: 71 71 40
Width: 1616
GlyphClass: 2
Flags: W
HStem: -20 126<693.555 1159.82> 667 154<908 1265.09> 697 123<912.688 1266> 1404 126<693.578 1140.58>
VStem: 100 225<487.881 1027.47> 1266 200<179.853 697>
LayerCount: 2
Fore
SplineSet
933 -20 m 0,0,1
 557 -20 557 -20 336 183 c 0,2,3
 100 400 100 400 100 755 c 128,-1,4
 100 1110 100 1110 336 1327 c 0,5,6
 556 1529 556 1529 933 1530 c 0,7,8
 1208 1530 1208 1530 1397 1428 c 1,9,-1
 1397 1124 l 1,10,-1
 1387 1124 l 1,11,12
 1220 1404 1220 1404 933 1404 c 0,13,14
 645 1404 645 1404 468 1198 c 0,15,16
 325 1032 325 1032 325 756 c 128,-1,17
 325 480 325 480 468 312 c 0,18,19
 644 106 644 106 933 106 c 0,20,21
 1122 106 1122 106 1266 206 c 1,22,-1
 1266 697 l 1,23,-1
 1208 697 l 2,24,25
 1058 697 1058 697 908 667 c 1,26,-1
 908 821 l 1,27,-1
 1466 820 l 1,28,-1
 1466 168 l 1,29,30
 1253 -20 1253 -20 933 -20 c 0,0,1
EndSplineSet
Validated: 1
EndChar

StartChar: H
Encoding: 72 72 41
Width: 1550
GlyphClass: 2
Flags: W
HStem: 0 21G<170 420 1130 1380> 697 124<390 1160> 1490 20G<170 420 1130 1380>
VStem: 200 190<4.6875 697 821 1505.31> 1160 190<4.6875 697 821 1505.31>
LayerCount: 2
Fore
SplineSet
170 0 m 1,0,1
 200 150 200 150 200 300 c 2,2,-1
 200 1210 l 2,3,4
 200 1360 200 1360 170 1510 c 1,5,-1
 420 1510 l 1,6,7
 390 1360 390 1360 390 1210 c 2,8,-1
 390 821 l 1,9,-1
 1160 821 l 1,10,-1
 1160 1210 l 2,11,12
 1160 1360 1160 1360 1130 1510 c 1,13,-1
 1380 1510 l 1,14,15
 1350 1360 1350 1360 1350 1210 c 2,16,-1
 1350 300 l 2,17,18
 1350 150 1350 150 1380 0 c 1,19,-1
 1130 0 l 1,20,21
 1160 150 1160 150 1160 300 c 2,22,-1
 1160 697 l 1,23,-1
 390 697 l 1,24,-1
 390 300 l 2,25,26
 390 150 390 150 420 0 c 1,27,-1
 170 0 l 1,0,1
EndSplineSet
Validated: 1
EndChar

StartChar: I
Encoding: 73 73 42
Width: 590
GlyphClass: 2
Flags: W
HStem: 0 21G<170 420> 1490 20G<170 420>
VStem: 200 190<4.6875 1505.31>
LayerCount: 2
Fore
SplineSet
170 0 m 1,0,1
 200 150 200 150 200 300 c 2,2,-1
 200 1210 l 2,3,4
 200 1360 200 1360 170 1510 c 1,5,-1
 420 1510 l 1,6,7
 390 1360 390 1360 390 1210 c 2,8,-1
 390 300 l 2,9,10
 390 150 390 150 420 0 c 1,11,-1
 170 0 l 1,0,1
EndSplineSet
Validated: 1
EndChar

StartChar: J
Encoding: 74 74 43
Width: 590
GlyphClass: 2
Flags: W
HStem: -200 10<20 25.5811> 1490 20G<170 420>
VStem: 200 190<-62.8652 1505.31>
LayerCount: 2
Fore
SplineSet
170 1510 m 1,0,-1
 420 1510 l 1,1,2
 390 1360 390 1360 390 1210 c 2,3,-1
 390 114 l 2,4,5
 390 -200 390 -200 20 -200 c 9,6,-1
 20 -190 l 1,7,8
 200 -107 200 -107 200 114 c 2,9,-1
 200 1210 l 2,10,11
 200 1360 200 1360 170 1510 c 1,0,-1
EndSplineSet
Validated: 1
EndChar

StartChar: K
Encoding: 75 75 44
Width: 1422
GlyphClass: 2
Flags: W
HStem: 0 21G<170 420 1014.5 1417> 1490 20G<170 420 1000.5 1304>
VStem: 200 190<4.6875 598 790 1505.31>
DStem2: 390 790 563 779 0.69026 0.723562<111.456 964.519> 563 779 434 644 0.721574 -0.692337<0.382423 893.091>
LayerCount: 2
Fore
SplineSet
170 0 m 1,0,1
 200 150 200 150 200 300 c 2,2,-1
 200 1210 l 2,3,4
 200 1360 200 1360 170 1510 c 1,5,-1
 420 1510 l 1,6,7
 390 1360 390 1360 390 1210 c 2,8,-1
 390 790 l 9,9,-1
 852 1273 l 2,10,11
 962 1388 962 1388 1039 1510 c 1,12,-1
 1304 1510 l 1,13,14
 1177 1423 1177 1423 1074 1315 c 2,15,-1
 563 779 l 25,16,-1
 1180 187 l 2,17,18
 1292 80 1292 80 1417 0 c 1,19,-1
 1060 0 l 1,20,21
 969 130 969 130 865 230 c 2,22,-1
 434 644 l 1,23,-1
 390 598 l 1,24,-1
 390 300 l 2,25,26
 390 150 390 150 420 0 c 1,27,-1
 170 0 l 1,0,1
EndSplineSet
Validated: 1
EndChar

StartChar: L
Encoding: 76 76 45
Width: 998
GlyphClass: 2
Flags: W
HStem: 0 124<404.689 973.559> 1490 20G<170 430>
VStem: 200 200<126.873 1505.31>
LayerCount: 2
Fore
SplineSet
170 0 m 1,0,1
 200 150 200 150 200 300 c 2,2,-1
 200 1210 l 2,3,4
 200 1360 200 1360 170 1510 c 1,5,-1
 430 1510 l 1,6,7
 400 1360 400 1360 400 1210 c 2,8,-1
 400 300 l 2,9,10
 400 216 400 216 408 124 c 1,11,-1
 678 124 l 2,12,13
 836 124 836 124 978 154 c 1,14,-1
 978 0 l 1,15,-1
 170 0 l 1,0,1
EndSplineSet
Validated: 1
EndChar

StartChar: M
Encoding: 77 77 46
Width: 2034
GlyphClass: 2
Flags: W
HStem: 0 21G<120 322 875.5 1113.5 1662 1914> 1490 20G<253 477 1554.5 1781>
VStem: 253 210<1359.84 1510> 1578 203<1365.74 1510>
DStem2: 257 1209 392 1131 0.0883714 0.996088<-1027.12 -65.7647> 563 1225 392 1131 0.424005 -0.90566<12.6272 1074.57> 1019 251 1196 285 0.426289 0.904587<0.25328 1060.2> 1777 1209 1592 1153 0.0883714 -0.996088<39.4322 1022.76>
LayerCount: 2
Fore
SplineSet
120 0 m 1,0,1
 162 143 162 143 176 296 c 2,2,-1
 257 1209 l 2,3,4
 262 1265 262 1265 262 1332 c 0,5,6
 262 1415 262 1415 253 1510 c 1,7,-1
 463 1510 l 1,8,9
 491 1379 491 1379 563 1225 c 2,10,-1
 1019 251 l 25,11,-1
 1478 1225 l 2,12,13
 1531 1337 1531 1337 1578 1510 c 1,14,-1
 1781 1510 l 1,15,16
 1772 1417 1772 1417 1772 1332 c 0,17,18
 1772 1265 1772 1265 1777 1209 c 2,19,-1
 1858 296 l 2,20,21
 1872 143 1872 143 1914 0 c 1,22,-1
 1662 0 l 1,23,24
 1672 86 1672 86 1672 171 c 0,25,26
 1672 232 1672 232 1666 301 c 2,27,-1
 1592 1153 l 1,28,-1
 1196 285 l 2,29,30
 1131 143 1131 143 1096 0 c 1,31,-1
 889 0 l 1,32,33
 862 130 862 130 789 285 c 2,34,-1
 392 1131 l 25,35,-1
 318 301 l 2,36,37
 312 234 312 234 312 171 c 0,38,39
 312 82 312 82 322 0 c 1,40,-1
 120 0 l 1,0,1
EndSplineSet
Validated: 1
EndChar

StartChar: N
Encoding: 78 78 47
Width: 1570
GlyphClass: 2
Flags: W
HStem: 0 21G<170 372 1156 1400> 1490 20G<170 416.5 1198 1400>
VStem: 200 142<4.6875 1177> 1228 142<348 1505.07>
DStem2: 536 1252 342 1177 0.602637 -0.798016<-56.0388 1138.22>
LayerCount: 2
Fore
SplineSet
170 0 m 1,0,1
 200 150 200 150 200 300 c 2,2,-1
 200 1210 l 2,3,4
 200 1360 200 1360 170 1510 c 1,5,-1
 379 1510 l 1,6,7
 454 1359 454 1359 536 1252 c 2,8,-1
 1228 348 l 17,9,-1
 1228 1210 l 2,10,11
 1228 1352 1228 1352 1198 1510 c 1,12,-1
 1400 1510 l 1,13,14
 1370 1360 1370 1360 1370 1210 c 2,15,-1
 1370 300 l 2,16,17
 1370 150 1370 150 1400 0 c 1,18,-1
 1193 0 l 1,19,20
 1119 148 1119 148 1036 258 c 2,21,-1
 342 1177 l 17,22,-1
 342 300 l 2,23,24
 342 150 342 150 372 0 c 1,25,-1
 170 0 l 1,0,1
EndSplineSet
Validated: 1
EndChar

StartChar: O
Encoding: 79 79 48
Width: 1726
GlyphClass: 2
Flags: W
HStem: -20 126<652.315 1072.4> 1404 126<652.315 1072.4>
VStem: 100 225<479.546 1030.45> 1401 225<480.034 1029.97>
LayerCount: 2
Fore
SplineSet
862 -20 m 128,-1,1
 556 -20 556 -20 335 183 c 0,2,3
 100 399 100 399 100 755 c 128,-1,4
 100 1111 100 1111 335 1327 c 0,5,6
 556 1530 556 1530 862 1530 c 128,-1,7
 1168 1530 1168 1530 1389 1327 c 0,8,9
 1626 1109 1626 1109 1626 755 c 128,-1,10
 1626 401 1626 401 1389 183 c 0,11,0
 1168 -20 1168 -20 862 -20 c 128,-1,1
862 106 m 0,12,13
 1110 106 1110 106 1264 306 c 0,14,15
 1401 484 1401 484 1401 755 c 128,-1,16
 1401 1026 1401 1026 1264 1204 c 0,17,18
 1110 1404 1110 1404 862 1404 c 0,19,20
 616 1404 616 1404 462 1204 c 0,21,22
 325 1026 325 1026 325 755 c 128,-1,23
 325 484 325 484 462 306 c 0,24,25
 616 106 616 106 862 106 c 0,12,13
EndSplineSet
Validated: 1
EndChar

StartChar: P
Encoding: 80 80 49
Width: 1152
GlyphClass: 2
Flags: W
HStem: 0 21G<170 420> 610 125<390 691.672> 1386 124<395.625 692.141>
VStem: 200 190<4.6875 610 735 1383.25> 842 210<879.977 1240.02>
LayerCount: 2
Fore
SplineSet
390 735 m 1,0,-1
 520 735 l 2,1,2
 666 735 666 735 761 831 c 0,3,4
 842 913 842 913 842 1060 c 128,-1,5
 842 1207 842 1207 761 1289 c 0,6,7
 665 1386 665 1386 520 1386 c 2,8,-1
 400 1386 l 1,9,10
 390 1298 390 1298 390 1210 c 2,11,-1
 390 735 l 1,0,-1
170 0 m 1,12,13
 200 150 200 150 200 300 c 2,14,-1
 200 1210 l 2,15,16
 200 1360 200 1360 170 1510 c 1,17,-1
 530 1510 l 2,18,19
 764 1510 764 1510 903 1395 c 0,20,21
 1052 1272 1052 1272 1052 1060 c 128,-1,22
 1052 848 1052 848 903 725 c 0,23,24
 763 610 763 610 530 610 c 2,25,-1
 390 610 l 1,26,-1
 390 300 l 2,27,28
 390 150 390 150 420 0 c 1,29,-1
 170 0 l 1,12,13
EndSplineSet
Validated: 1
EndChar

StartChar: Q
Encoding: 81 81 50
Width: 1726
GlyphClass: 2
Flags: W
HStem: -20 126<652.315 1075.29> 1404 126<652.315 1072.4>
VStem: 100 225<479.546 1030.45> 1401 225<480.034 1029.97>
DStem2: 1198 254 1002 287 0.55597 -0.831202<-294.679 15.2534>
LayerCount: 2
Fore
SplineSet
862 -20 m 0,0,1
 556 -20 556 -20 335 183 c 0,2,3
 100 399 100 399 100 755 c 128,-1,4
 100 1111 100 1111 335 1327 c 0,5,6
 556 1530 556 1530 862 1530 c 128,-1,7
 1168 1530 1168 1530 1389 1327 c 0,8,9
 1626 1109 1626 1109 1626 755 c 128,-1,10
 1626 401 1626 401 1389 183 c 0,11,12
 1344 142 1344 142 1295 109 c 1,13,-1
 1299 103 l 2,14,15
 1386 -27 1386 -27 1488 -132 c 1,16,-1
 1241 -132 l 1,17,18
 1206 -43 1206 -43 1163 37 c 1,19,20
 1025 -20 1025 -20 862 -20 c 0,0,1
1089 157 m 1,21,-1
 1002 287 l 2,22,23
 915 417 915 417 813 522 c 1,24,-1
 1060 522 l 1,25,26
 1117 375 1117 375 1198 254 c 2,27,-1
 1206 241 l 1,28,29
 1236 270 1236 270 1264 306 c 0,30,31
 1401 484 1401 484 1401 755 c 128,-1,32
 1401 1026 1401 1026 1264 1204 c 0,33,34
 1110 1404 1110 1404 862 1404 c 0,35,36
 616 1404 616 1404 462 1204 c 0,37,38
 325 1026 325 1026 325 755 c 128,-1,39
 325 484 325 484 462 306 c 0,40,41
 616 106 616 106 862 106 c 0,42,43
 988 106 988 106 1089 157 c 1,21,-1
EndSplineSet
Validated: 1
EndChar

StartChar: R
Encoding: 82 82 51
Width: 1257
GlyphClass: 2
Flags: W
HStem: 0 21G<170 420 920.5 1252> 610 125<390 581> 1386 124<395.625 692.141>
VStem: 200 190<4.6875 610 735 1383.25> 842 210<879.977 1240.02>
DStem2: 783 654 581 611 0.555616 -0.831439<0 631.186>
LayerCount: 2
Fore
SplineSet
170 0 m 1,0,1
 200 150 200 150 200 300 c 2,2,-1
 200 1210 l 2,3,4
 200 1360 200 1360 170 1510 c 1,5,-1
 530 1510 l 2,6,7
 764 1510 764 1510 903 1395 c 0,8,9
 1052 1272 1052 1272 1052 1060 c 128,-1,10
 1052 848 1052 848 903 725 c 0,11,12
 850 681 850 681 783 654 c 1,13,-1
 1063 235 l 2,14,15
 1150 105 1150 105 1252 0 c 1,16,-1
 949 0 l 1,17,18
 892 147 892 147 811 268 c 2,19,-1
 581 611 l 1,20,21
 556 610 556 610 530 610 c 2,22,-1
 390 610 l 1,23,-1
 390 300 l 2,24,25
 390 150 390 150 420 0 c 1,26,-1
 170 0 l 1,0,1
390 735 m 1,27,-1
 520 735 l 2,28,29
 666 735 666 735 761 831 c 0,30,31
 842 913 842 913 842 1060 c 128,-1,32
 842 1207 842 1207 761 1289 c 0,33,34
 665 1386 665 1386 520 1386 c 2,35,-1
 400 1386 l 1,36,37
 390 1298 390 1298 390 1210 c 2,38,-1
 390 735 l 1,27,-1
EndSplineSet
Validated: 1
EndChar

StartChar: S
Encoding: 83 83 52
Width: 1070
GlyphClass: 2
Flags: W
HStem: -20 126<293.804 629.474> 1406 124<447.134 724.059>
VStem: 182 195<1088.6 1336.47> 779 211<258.188 560.503> 829 10<1223 1232.66>
DStem2: 527 995 430 806 0.826227 -0.563337<-193.529 441.318>
LayerCount: 2
Fore
SplineSet
445 -20 m 0,0,1
 255 -20 255 -20 80 88 c 1,2,-1
 80 389 l 1,3,-1
 90 389 l 1,4,5
 130 301 130 301 183 242 c 0,6,7
 303 106 303 106 457 106 c 128,-1,8
 611 106 611 106 702 212 c 0,9,10
 778 301 778 301 779 418 c 0,11,12
 779 568 779 568 606 686 c 2,13,-1
 430 806 l 2,14,15
 182 975 182 975 182 1175 c 0,16,17
 182 1370 182 1370 337 1466 c 0,18,19
 440 1530 440 1530 573 1530 c 0,20,21
 716 1530 716 1530 839 1474 c 1,22,-1
 839 1223 l 1,23,-1
 829 1223 l 1,24,25
 814 1254 814 1254 795 1284 c 0,26,27
 717 1406 717 1406 597 1406 c 0,28,29
 505 1406 505 1406 449 1363 c 0,30,31
 377 1308 377 1308 377 1210 c 0,32,33
 377 1094 377 1094 527 995 c 2,34,-1
 689 888 l 2,35,36
 990 689 990 689 990 452 c 0,37,38
 990 252 990 252 844 118 c 0,39,40
 693 -20 693 -20 445 -20 c 0,0,1
EndSplineSet
Validated: 1
EndChar

StartChar: T
Encoding: 84 84 53
Width: 1100
GlyphClass: 2
Flags: W
HStem: 0 21G<425 675> 1386 124<24.6875 449.375 650.625 1075.31>
VStem: 455 190<4.6875 1383.25>
LayerCount: 2
Fore
SplineSet
425 0 m 1,0,1
 455 150 455 150 455 300 c 2,2,-1
 455 1210 l 2,3,4
 455 1298 455 1298 445 1386 c 1,5,-1
 320 1386 l 2,6,7
 170 1386 170 1386 20 1356 c 1,8,-1
 20 1510 l 1,9,-1
 1080 1510 l 1,10,-1
 1080 1356 l 1,11,12
 930 1386 930 1386 780 1386 c 2,13,-1
 655 1386 l 1,14,15
 645 1298 645 1298 645 1210 c 2,16,-1
 645 300 l 2,17,18
 645 150 645 150 675 0 c 1,19,-1
 425 0 l 1,0,1
EndSplineSet
Validated: 1
EndChar

StartChar: U
Encoding: 85 85 54
Width: 1560
GlyphClass: 2
Flags: W
HStem: -20 151<605.03 954.036> 0 21G<1140 1390> 1490 20G<170 430 1140 1390>
VStem: 200 200<359.75 1505.31> 1170 190<367.822 1505.31>
LayerCount: 2
Fore
SplineSet
1390 0 m 1,0,-1
 1140 0 l 1,1,2
 1161 97 1161 97 1167 191 c 1,3,4
 997 -20 997 -20 735 -20 c 0,5,6
 474 -20 474 -20 333 155 c 0,7,8
 200 319 200 319 200 646 c 2,9,-1
 200 1210 l 2,10,11
 200 1360 200 1360 170 1510 c 1,12,-1
 430 1510 l 1,13,14
 400 1360 400 1360 400 1210 c 2,15,-1
 400 648 l 2,16,17
 400 417 400 417 472 304 c 24,18,19
 582 131 582 131 785 131 c 0,20,21
 983 131 983 131 1086 288 c 0,22,23
 1170 415 1170 415 1170 648 c 2,24,-1
 1170 1210 l 2,25,26
 1170 1360 1170 1360 1140 1510 c 1,27,-1
 1390 1510 l 1,28,29
 1360 1360 1360 1360 1360 1210 c 2,30,-1
 1360 300 l 2,31,32
 1360 150 1360 150 1390 0 c 1,0,-1
EndSplineSet
Validated: 1
EndChar

StartChar: V
Encoding: 86 86 55
Width: 1590
GlyphClass: 2
Flags: W
HStem: 0 275<566.5 1023.5> 1490 20G<5 308.5 1343 1585>
DStem2: 387 1225 159 1251 0.418402 -0.908262<-295.542 1042.67> 825 275 986 285 0.418402 0.908262<1.11415 1341.88>
LayerCount: 2
Fore
SplineSet
704 0 m 1,0,1
 662 159 662 159 604 285 c 2,2,-1
 159 1251 l 2,3,4
 103 1373 103 1373 5 1510 c 1,5,-1
 287 1510 l 1,6,7
 330 1348 330 1348 387 1225 c 2,8,-1
 825 275 l 25,9,-1
 1263 1225 l 2,10,11
 1323 1355 1323 1355 1363 1510 c 1,12,-1
 1585 1510 l 1,13,14
 1492 1383 1492 1383 1431 1251 c 2,15,-1
 986 285 l 2,16,17
 928 159 928 159 886 0 c 1,18,-1
 704 0 l 1,0,1
EndSplineSet
Validated: 1
EndChar

StartChar: W
Encoding: 87 87 56
Width: 1984
GlyphClass: 2
Flags: W
HStem: 0 301<308.5 834.5 1149.5 1675.5> 1163 347<754.5 1296.5>
VStem: 1769 195<1419.11 1510>
DStem2: 336 1213 132 1230 0.280829 -0.959758<-295.46 949.811> 605 301 738 297 0.282906 0.959148<1.16275 936.27> 1177 1213 992 1163 0.282906 -0.959148<-4.38032 949.393> 1446 301 1579 297 0.280829 0.959758<0.883231 1246.3>
LayerCount: 2
Fore
SplineSet
459 0 m 1,0,1
 447 154 447 154 405 297 c 2,2,-1
 132 1230 l 2,3,4
 85 1389 85 1389 20 1510 c 1,5,-1
 282 1510 l 1,6,7
 294 1355 294 1355 336 1213 c 2,8,-1
 605 301 l 9,9,-1
 874 1213 l 2,10,11
 916 1355 916 1355 928 1510 c 1,12,-1
 1123 1510 l 1,13,14
 1135 1355 1135 1355 1177 1213 c 2,15,-1
 1446 301 l 1,16,-1
 1715 1213 l 2,17,18
 1757 1355 1757 1355 1769 1510 c 1,19,-1
 1964 1510 l 1,20,21
 1899 1389 1899 1389 1852 1230 c 2,22,-1
 1579 297 l 2,23,24
 1537 154 1537 154 1525 0 c 1,25,-1
 1300 0 l 1,26,27
 1288 154 1288 154 1246 297 c 2,28,-1
 992 1163 l 1,29,-1
 738 297 l 2,30,31
 696 154 696 154 684 0 c 1,32,-1
 459 0 l 1,0,1
EndSplineSet
Validated: 1
EndChar

StartChar: X
Encoding: 88 88 57
Width: 1383
GlyphClass: 2
Flags: W
HStem: 0 21G<40 304 1012 1343> 1490 20G<40 370.5 1073 1343>
DStem2: 481 1242 229 1275 0.555652 -0.831415<-294.803 415.194 628.534 1338.49> 593 730 671 613 0.579571 0.814922<-774.655 -50.1393 205.061 928.936>
LayerCount: 2
Fore
SplineSet
40 0 m 1,0,1
 151 108 151 108 237 229 c 2,2,-1
 593 730 l 1,3,-1
 229 1275 l 2,4,5
 140 1407 140 1407 40 1510 c 1,6,-1
 343 1510 l 1,7,8
 398 1366 398 1366 481 1242 c 2,9,-1
 712 897 l 1,10,-1
 961 1247 l 2,11,12
 1038 1356 1038 1356 1108 1510 c 1,13,-1
 1343 1510 l 1,14,15
 1235 1406 1235 1406 1146 1281 c 2,16,-1
 790 780 l 1,17,-1
 1154 235 l 2,18,19
 1243 103 1243 103 1343 0 c 1,20,-1
 1040 0 l 1,21,22
 984 145 984 145 902 268 c 2,23,-1
 671 613 l 1,24,-1
 422 263 l 2,25,26
 333 137 333 137 275 0 c 1,27,-1
 40 0 l 1,0,1
EndSplineSet
Validated: 1
EndChar

StartChar: Y
Encoding: 89 89 58
Width: 1333
GlyphClass: 2
Flags: W
HStem: 0 21G<535 795> 1490 20G<5 320.5 1069.5 1328>
VStem: 565 200<4.6875 629>
DStem2: 428 1237 185 1268 0.515893 -0.856653<-296.261 535.074> 703 778 765 629 0.514101 0.85773<0 827.179>
LayerCount: 2
Fore
SplineSet
535 0 m 1,0,1
 565 150 565 150 565 300 c 2,2,-1
 565 637 l 25,3,-1
 185 1268 l 2,4,5
 103 1404 103 1404 5 1510 c 1,6,-1
 299 1510 l 1,7,8
 342 1381 342 1381 428 1237 c 2,9,-1
 703 778 l 1,10,-1
 972 1237 l 2,11,12
 1038 1350 1038 1350 1101 1510 c 1,13,-1
 1328 1510 l 1,14,15
 1229 1403 1229 1403 1148 1268 c 2,16,-1
 765 629 l 25,17,-1
 765 300 l 2,18,19
 765 148 765 148 795 0 c 1,20,-1
 535 0 l 1,0,1
EndSplineSet
Validated: 1
EndChar

StartChar: Z
Encoding: 90 90 59
Width: 1358
GlyphClass: 2
Flags: W
HStem: 0 124<316 1273.4> 1386 124<192.78 1010>
DStem2: 261 349 316 124 0.590621 0.806949<-148.086 1275.68>
LayerCount: 2
Fore
SplineSet
103 0 m 1,0,-1
 60 124 l 1,1,2
 170 223 170 223 261 349 c 2,3,-1
 1010 1386 l 17,4,-1
 488 1386 l 2,5,6
 341 1386 341 1386 188 1356 c 1,7,-1
 188 1510 l 1,8,-1
 1238 1510 l 1,9,-1
 1276 1386 l 1,10,11
 1168 1288 1168 1288 1075 1161 c 2,12,-1
 316 124 l 17,13,-1
 978 124 l 2,14,15
 1131 124 1131 124 1278 154 c 1,16,-1
 1278 0 l 1,17,-1
 103 0 l 1,0,-1
EndSplineSet
Validated: 1
EndChar

StartChar: bracketleft
Encoding: 91 91 60
Width: 803
GlyphClass: 2
Flags: W
HStem: -250 154<408.703 753> -250 124<405.486 748.559> 1606 154<410.672 753> 1636 124<404.104 748.312>
VStem: 200 200<-121.5 1633.31>
LayerCount: 2
Fore
SplineSet
170 1760 m 1,0,-1
 753 1760 l 1,1,-1
 753 1606 l 1,2,3
 603 1636 603 1636 453 1636 c 2,4,-1
 410 1636 l 1,5,6
 400 1591 400 1591 400 1460 c 2,7,-1
 400 50 l 2,8,9
 400 7 400 7 408 -126 c 1,10,-1
 453 -126 l 2,11,12
 611 -126 611 -126 753 -96 c 1,13,-1
 753 -250 l 1,14,-1
 170 -250 l 1,15,16
 200 -143 200 -143 200 50 c 2,17,-1
 200 1460 l 2,18,19
 200 1569 200 1569 170 1760 c 1,0,-1
EndSplineSet
Validated: 1
EndChar

StartChar: backslash
Encoding: 92 92 61
Width: 1126
GlyphClass: 2
Flags: W
DStem2: 352 1405 164 1431 0.417928 -0.90848<-296.024 1652.97>
LayerCount: 2
Fore
SplineSet
1116 -180 m 1,0,1
 874 -180 l 1,2,3
 831 -19 831 -19 774 105 c 2,4,-1
 164 1431 l 2,5,6
 104 1562 104 1562 10 1690 c 1,7,-1
 252 1690 l 1,8,9
 289 1542 289 1542 352 1405 c 2,10,-1
 962 79 l 18,11,12
 1017 -41 1017 -41 1116 -180 c 1,0,1
EndSplineSet
Validated: 1
EndChar

StartChar: bracketright
Encoding: 93 93 62
Width: 803
GlyphClass: 2
Flags: W
HStem: -250 154<50 394.297> -250 124<54.4414 397.514> 1606 154<50 392.328> 1636 124<54.6875 398.896>
VStem: 403 200<-121.5 1633.31>
LayerCount: 2
Fore
SplineSet
50 1760 m 1,0,-1
 633 1760 l 1,1,2
 603 1569 603 1569 603 1460 c 2,3,-1
 603 50 l 2,4,5
 603 -143 603 -143 633 -250 c 1,6,-1
 50 -250 l 1,7,-1
 50 -96 l 1,8,9
 192 -126 192 -126 350 -126 c 2,10,-1
 395 -126 l 1,11,12
 403 7 403 7 403 50 c 2,13,-1
 403 1460 l 2,14,15
 403 1591 403 1591 393 1636 c 1,16,-1
 350 1636 l 2,17,18
 200 1636 200 1636 50 1606 c 1,19,-1
 50 1760 l 1,0,-1
EndSplineSet
Validated: 1
EndChar

StartChar: asciicircum
Encoding: 94 94 63
Width: 1053
GlyphClass: 2
Flags: W
HStem: 1200 330
LayerCount: 2
Fore
SplineSet
407 1530 m 1,0,-1
 646 1530 l 1,1,2
 700 1355 700 1355 903 1210 c 1,3,-1
 903 1200 l 1,4,-1
 660 1200 l 1,5,6
 568 1298 568 1298 526 1429 c 1,7,8
 484 1298 484 1298 393 1200 c 1,9,-1
 150 1200 l 1,10,-1
 150 1210 l 1,11,12
 353 1355 353 1355 407 1530 c 1,0,-1
EndSplineSet
Validated: 1
EndChar

StartChar: underscore
Encoding: 95 95 64
Width: 1133
GlyphClass: 2
Flags: W
HStem: -194 124<154.688 978.251>
LayerCount: 2
Fore
SplineSet
150 -40 m 1,0,1
 300 -70 300 -70 450 -70 c 2,2,-1
 683 -70 l 2,3,4
 831 -70 831 -70 983 -40 c 1,5,-1
 983 -224 l 1,6,7
 832 -194 832 -194 683 -194 c 2,8,-1
 450 -194 l 2,9,10
 300 -194 300 -194 150 -224 c 1,11,-1
 150 -40 l 1,0,1
EndSplineSet
Validated: 1
EndChar

StartChar: grave
Encoding: 96 96 65
Width: 479
GlyphClass: 2
Flags: W
HStem: 1200 330
VStem: 50 222<1433.33 1530>
LayerCount: 2
Fore
SplineSet
50 1530 m 1,0,-1
 272 1530 l 1,1,2
 272 1366 272 1366 429 1210 c 1,3,-1
 429 1200 l 9,4,-1
 306 1200 l 1,5,6
 118 1345 118 1345 50 1520 c 1,7,-1
 50 1530 l 1,0,-1
EndSplineSet
Validated: 1
EndChar

StartChar: a
Encoding: 97 97 66
Width: 1347
GlyphClass: 2
Flags: W
HStem: -20 103<508.513 838.538> 0 21G<945 1176> 1017 103<508.973 838.397>
VStem: 100 210<318.494 782.256> 973 175<217.688 882.203>
LayerCount: 2
Fore
SplineSet
1176 0 m 1,0,-1
 945 0 l 1,1,2
 954 45 954 45 960 93 c 1,3,4
 845 -20 845 -20 664 -20 c 0,5,6
 434 -20 434 -20 278 128 c 0,7,8
 100 298 100 298 100 550 c 0,9,10
 100 805 100 805 278 972 c 0,11,12
 436 1120 436 1120 664 1120 c 0,13,14
 845 1120 845 1120 959 1010 c 1,15,16
 953 1053 953 1053 945 1094 c 1,17,-1
 1175 1140 l 1,18,19
 1148 987 1148 987 1148 847 c 2,20,-1
 1148 295 l 2,21,22
 1148 138 1148 138 1176 0 c 1,0,-1
684 83 m 0,23,24
 839 83 839 83 934 223 c 24,25,26
 973 280 973 280 973 395 c 2,27,-1
 973 705 l 2,28,29
 973 820 973 820 934 877 c 24,30,31
 839 1017 839 1017 684 1017 c 0,32,33
 508 1017 508 1017 404 877 c 0,34,35
 310 751 310 751 310 550 c 128,-1,36
 310 349 310 349 404 223 c 0,37,38
 508 83 508 83 684 83 c 0,23,24
EndSplineSet
Validated: 1
EndChar

StartChar: b
Encoding: 98 98 67
Width: 1348
GlyphClass: 2
Flags: W
HStem: -20 103<509.321 839.487> 0 21G<172 403> 1017 103<509.68 839.027> 1530 20G<302 388.5>
VStem: 200 175<216 885.613 996 1499.19> 1038 210<318.494 782.256>
LayerCount: 2
Fore
SplineSet
664 83 m 0,0,1
 840 83 840 83 944 223 c 0,2,3
 1038 349 1038 349 1038 550 c 128,-1,4
 1038 751 1038 751 944 877 c 0,5,6
 840 1017 840 1017 664 1017 c 0,7,8
 509 1017 509 1017 414 877 c 24,9,10
 375 820 375 820 375 705 c 2,11,-1
 375 395 l 2,12,13
 375 280 375 280 414 223 c 24,14,15
 509 83 509 83 664 83 c 0,0,1
172 0 m 1,16,17
 200 135 200 135 200 294 c 2,18,-1
 200 1208 l 2,19,20
 200 1350 200 1350 172 1504 c 1,21,-1
 402 1550 l 1,22,23
 375 1394 375 1394 375 1259 c 2,24,-1
 375 996 l 1,25,26
 492 1120 492 1120 684 1120 c 0,27,28
 912 1120 912 1120 1070 972 c 0,29,30
 1248 805 1248 805 1248 550 c 0,31,32
 1248 298 1248 298 1070 128 c 0,33,34
 914 -20 914 -20 684 -20 c 0,35,36
 503 -20 503 -20 387 93 c 1,37,38
 393 45 393 45 403 0 c 1,39,-1
 172 0 l 1,16,17
EndSplineSet
Validated: 1
EndChar

StartChar: c
Encoding: 99 99 68
Width: 1198
GlyphClass: 2
Flags: W
HStem: -20 104<520.242 887.305> 1016 104<520.242 872.925>
VStem: 100 210<316.626 783.374>
LayerCount: 2
Fore
SplineSet
714 -20 m 0,0,1
 436 -20 436 -20 278 128 c 0,2,3
 100 295 100 295 100 550 c 128,-1,4
 100 805 100 805 278 972 c 0,5,6
 436 1120 436 1120 714 1120 c 0,7,8
 916 1120 916 1120 1083 1018 c 1,9,-1
 1083 772 l 1,10,-1
 1073 771 l 1,11,12
 910 1016 910 1016 714 1016 c 0,13,14
 514 1016 514 1016 406 878 c 0,15,16
 310 755 310 755 310 550 c 128,-1,17
 310 345 310 345 406 222 c 0,18,19
 514 84 514 84 714 84 c 0,20,21
 933 84 933 84 1088 329 c 1,22,-1
 1098 328 l 1,23,-1
 1098 122 l 1,24,25
 929 -20 929 -20 714 -20 c 0,0,1
EndSplineSet
Validated: 1
EndChar

StartChar: d
Encoding: 100 100 69
Width: 1348
GlyphClass: 2
Flags: W
HStem: -20 103<508.513 838.679> 0 21G<945 1176> 1017 103<508.973 838.32> 1530 20G<1075 1161.5>
VStem: 100 210<318.494 782.256> 973 175<216.375 885.613 996 1499.19>
LayerCount: 2
Fore
SplineSet
684 83 m 0,0,1
 839 83 839 83 934 223 c 24,2,3
 973 280 973 280 973 395 c 2,4,-1
 973 705 l 2,5,6
 973 820 973 820 934 877 c 24,7,8
 839 1017 839 1017 684 1017 c 0,9,10
 508 1017 508 1017 404 877 c 0,11,12
 310 751 310 751 310 550 c 128,-1,13
 310 349 310 349 404 223 c 0,14,15
 508 83 508 83 684 83 c 0,0,1
1176 0 m 1,16,-1
 945 0 l 1,17,18
 954 45 954 45 961 93 c 1,19,20
 845 -20 845 -20 664 -20 c 0,21,22
 434 -20 434 -20 278 128 c 0,23,24
 100 298 100 298 100 550 c 0,25,26
 100 805 100 805 278 972 c 0,27,28
 436 1120 436 1120 664 1120 c 0,29,30
 856 1120 856 1120 973 996 c 1,31,-1
 973 1208 l 2,32,33
 973 1350 973 1350 945 1504 c 1,34,-1
 1175 1550 l 1,35,36
 1148 1394 1148 1394 1148 1259 c 2,37,-1
 1148 294 l 2,38,39
 1148 136 1148 136 1176 0 c 1,16,-1
EndSplineSet
Validated: 1
EndChar

StartChar: e
Encoding: 101 101 70
Width: 1278
GlyphClass: 2
Flags: W
HStem: -20 104<517.332 870.647> 499 105<317 956> 1017 103<497.18 805.851>
VStem: 100 217<317 499 604 783.5> 956 222<604 797.749>
LayerCount: 2
Fore
SplineSet
704 -20 m 0,0,1
 436 -20 436 -20 278 128 c 0,2,3
 100 295 100 295 100 550 c 0,4,5
 100 806 100 806 278 972 c 0,6,7
 437 1120 437 1120 654 1120 c 0,8,9
 916 1120 916 1120 1060 930 c 0,10,11
 1178 774 1178 774 1178 550 c 1,12,-1
 1127 499 l 9,13,-1
 317 499 l 1,14,15
 327 323 327 323 406 222 c 0,16,17
 514 84 514 84 704 84 c 0,18,19
 913 84 913 84 1068 329 c 1,20,-1
 1078 328 l 1,21,-1
 1078 122 l 1,22,23
 909 -20 909 -20 704 -20 c 0,0,1
317 604 m 1,24,-1
 956 604 l 1,25,26
 947 789 947 789 897 874 c 0,27,28
 813 1017 813 1017 654 1017 c 0,29,30
 498 1017 498 1017 394 877 c 0,31,32
 326 785 326 785 317 604 c 1,24,-1
EndSplineSet
Validated: 1
EndChar

StartChar: f
Encoding: 102 102 71
Width: 800
GlyphClass: 2
Flags: W
HStem: 0 21G<172 403> 786 105<52.2798 200 375 660.471> 1445 85<468.932 707.609>
VStem: 200 175<4.62451 786 891 1319.33> 770 10<1290 1304.19>
LayerCount: 2
Fore
SplineSet
172 0 m 1,0,1
 200 148 200 148 200 294 c 2,2,-1
 200 786 l 1,3,-1
 190 786 l 2,4,5
 123 786 123 786 50 760 c 1,6,-1
 50 917 l 1,7,8
 123 891 123 891 190 891 c 2,9,-1
 200 891 l 1,10,-1
 200 1064 l 2,11,12
 200 1295 200 1295 297 1404 c 0,13,14
 409 1530 409 1530 618 1530 c 0,15,16
 702 1530 702 1530 780 1511 c 1,17,-1
 780 1290 l 1,18,-1
 770 1290 l 1,19,20
 724 1445 724 1445 600 1445 c 0,21,22
 485 1445 485 1445 426 1358 c 0,23,24
 375 1282 375 1282 375 1095 c 2,25,-1
 375 891 l 1,26,-1
 385 891 l 2,27,28
 521 891 521 891 665 919 c 1,29,-1
 665 758 l 1,30,31
 520 786 520 786 385 786 c 2,32,-1
 375 786 l 1,33,-1
 375 294 l 2,34,35
 375 148 375 148 403 0 c 1,36,-1
 172 0 l 1,0,1
EndSplineSet
Validated: 1
EndChar

StartChar: g
Encoding: 103 103 72
Width: 1347
GlyphClass: 2
Flags: W
HStem: -430 104<449.318 800.777> -20 103<508.513 837.978> 1017 103<508.973 838.397>
VStem: 100 210<318.494 782.256> 284 11<-113.199 -98> 973 175<-117.656 105 214.387 881.547>
LayerCount: 2
Fore
SplineSet
684 83 m 0,0,1
 839 83 839 83 934 223 c 24,2,3
 973 280 973 280 973 395 c 2,4,-1
 973 705 l 2,5,6
 973 820 973 820 934 877 c 24,7,8
 839 1017 839 1017 684 1017 c 0,9,10
 508 1017 508 1017 404 877 c 0,11,12
 310 751 310 751 310 550 c 128,-1,13
 310 349 310 349 404 223 c 0,14,15
 508 83 508 83 684 83 c 0,0,1
664 -20 m 0,16,17
 434 -20 434 -20 278 128 c 0,18,19
 100 298 100 298 100 550 c 0,20,21
 100 805 100 805 278 972 c 0,22,23
 436 1120 436 1120 664 1120 c 0,24,25
 845 1120 845 1120 959 1010 c 1,26,27
 953 1053 953 1053 945 1094 c 1,28,-1
 1175 1140 l 1,29,30
 1148 984 1148 984 1148 847 c 2,31,-1
 1148 134 l 2,32,33
 1148 -114 1148 -114 1028 -257 c 0,34,35
 883 -430 883 -430 651 -430 c 0,36,37
 456 -430 456 -430 284 -357 c 1,38,-1
 284 -98 l 1,39,-1
 295 -98 l 1,40,41
 322 -180 322 -180 390 -242 c 0,42,43
 484 -326 484 -326 647 -326 c 0,44,45
 791 -326 791 -326 878 -210 c 0,46,47
 919 -156 919 -156 947 -69 c 0,48,49
 973 10 973 10 973 105 c 1,50,51
 845 -20 845 -20 664 -20 c 0,16,17
EndSplineSet
Validated: 1
EndChar

StartChar: h
Encoding: 104 104 73
Width: 1341
GlyphClass: 2
Flags: W
HStem: 0 21G<172 403 933 1169> 1005 115<523.229 828.984> 1530 20G<302 388.5>
VStem: 200 175<4.31714 870.986 959 1499.19> 961 180<4.62476 867.078>
LayerCount: 2
Fore
SplineSet
172 0 m 1,0,1
 200 137 200 137 200 295 c 2,2,-1
 200 1208 l 2,3,4
 200 1350 200 1350 172 1504 c 1,5,-1
 402 1550 l 1,6,7
 375 1394 375 1394 375 1259 c 2,8,-1
 375 959 l 1,9,10
 511 1120 511 1120 724 1120 c 0,11,12
 961 1120 961 1120 1076 947 c 0,13,14
 1141 850 1141 850 1141 641 c 2,15,-1
 1141 294 l 2,16,17
 1141 147 1141 147 1169 0 c 1,18,-1
 933 0 l 1,19,20
 961 148 961 148 961 295 c 2,21,-1
 961 642 l 2,22,23
 961 797 961 797 915 871 c 0,24,25
 830 1005 830 1005 668 1005 c 0,26,27
 507 1005 507 1005 420 871 c 0,28,29
 375 802 375 802 375 642 c 2,30,-1
 375 295 l 2,31,32
 375 138 375 138 403 0 c 1,33,-1
 172 0 l 1,0,1
EndSplineSet
Validated: 1
EndChar

StartChar: i
Encoding: 105 105 74
Width: 580
GlyphClass: 2
Flags: W
HStem: 0 21G<175 406> 1266 264<199.191 380.809>
VStem: 160 260<1305.71 1490.29> 203 175<4.31714 1089.5>
LayerCount: 2
Fore
SplineSet
290 1530 m 128,-1,1
 344 1530 344 1530 382 1491.5 c 128,-1,2
 420 1453 420 1453 420 1398 c 128,-1,3
 420 1343 420 1343 382 1304.5 c 128,-1,4
 344 1266 344 1266 290 1266 c 128,-1,5
 236 1266 236 1266 198 1304.5 c 128,-1,6
 160 1343 160 1343 160 1398 c 128,-1,7
 160 1453 160 1453 198 1491.5 c 128,-1,0
 236 1530 236 1530 290 1530 c 128,-1,1
175 0 m 1,8,9
 203 137 203 137 203 295 c 2,10,-1
 203 797 l 2,11,12
 203 950 203 950 175 1094 c 1,13,-1
 405 1140 l 1,14,15
 378 987 378 987 378 847 c 2,16,-1
 378 295 l 2,17,18
 378 138 378 138 406 0 c 1,19,-1
 175 0 l 1,8,9
EndSplineSet
Validated: 1
EndChar

StartChar: j
Encoding: 106 106 75
Width: 580
GlyphClass: 2
Flags: W
HStem: -430 21G<35 206> 1266 264<199.191 380.809>
VStem: 160 260<1305.71 1490.29> 202 175<-290.964 1089.16>
LayerCount: 2
Fore
SplineSet
290 1530 m 128,-1,1
 344 1530 344 1530 382 1491.5 c 128,-1,2
 420 1453 420 1453 420 1398 c 128,-1,3
 420 1343 420 1343 382 1304.5 c 128,-1,4
 344 1266 344 1266 290 1266 c 128,-1,5
 236 1266 236 1266 198 1304.5 c 128,-1,6
 160 1343 160 1343 160 1398 c 128,-1,7
 160 1453 160 1453 198 1491.5 c 128,-1,0
 236 1530 236 1530 290 1530 c 128,-1,1
405 1140 m 1,8,9
 377 997 377 997 377 849 c 2,10,-1
 377 -122 l 2,11,12
 377 -430 377 -430 35 -430 c 1,13,-1
 35 -420 l 1,14,15
 202 -308 202 -308 202 -122 c 2,16,-1
 202 799 l 2,17,18
 202 939 202 939 174 1094 c 1,19,-1
 405 1140 l 1,8,9
EndSplineSet
Validated: 1
EndChar

StartChar: k
Encoding: 107 107 76
Width: 1214
GlyphClass: 2
Flags: W
HStem: 0 21G<172 403 860 1209> 1080 20G<788.5 1056> 1530 20G<299.778 388.5>
VStem: 200 175<4.65527 446 610 1500.01>
DStem2: 375 610 533 615 0.707107 0.707107<115.258 661.606> 533 615 421 495 0.72325 -0.690587<1.86645 685.084>
LayerCount: 2
Fore
SplineSet
172 0 m 1,0,1
 200 149 200 149 200 294 c 2,2,-1
 200 1209 l 2,3,4
 200 1345 200 1345 172 1505 c 1,5,-1
 402 1550 l 1,6,7
 375 1405 375 1405 375 1260 c 2,8,-1
 375 610 l 1,9,-1
 640 867 l 2,10,11
 750 974 750 974 827 1100 c 1,12,-1
 1056 1100 l 1,13,14
 936 1004 936 1004 849 920 c 2,15,-1
 533 615 l 1,16,-1
 998 171 l 2,17,18
 1099 75 1099 75 1209 0 c 1,19,-1
 899 0 l 1,20,21
 821 119 821 119 705 228 c 2,22,-1
 421 495 l 1,23,-1
 375 446 l 1,24,-1
 375 297 l 2,25,26
 375 148 375 148 403 0 c 1,27,-1
 172 0 l 1,0,1
EndSplineSet
Validated: 1
EndChar

StartChar: l
Encoding: 108 108 77
Width: 575
GlyphClass: 2
Flags: W
HStem: 0 21G<172 403> 1530 20G<302 388.5>
VStem: 200 175<4.25537 1499.19>
LayerCount: 2
Fore
SplineSet
172 0 m 1,0,1
 200 135 200 135 200 294 c 2,2,-1
 200 1208 l 2,3,4
 200 1350 200 1350 172 1504 c 1,5,-1
 402 1550 l 1,6,7
 375 1394 375 1394 375 1259 c 2,8,-1
 375 294 l 2,9,10
 375 136 375 136 403 0 c 1,11,-1
 172 0 l 1,0,1
EndSplineSet
Validated: 1
EndChar

StartChar: m
Encoding: 109 109 78
Width: 2107
GlyphClass: 2
Flags: W
HStem: 0 21G<172 403 933 1169 1699 1935> 1005 115<521.344 828.984 1275.99 1592.71>
VStem: 172 230<965.689 1096.87> 200 175<4.31714 868.224> 961 180<4.62476 867.822> 1727 180<4.62451 866.078>
LayerCount: 2
Fore
SplineSet
172 0 m 1,0,1
 200 137 200 137 200 295 c 2,2,-1
 200 797 l 2,3,4
 200 950 200 950 172 1094 c 1,5,-1
 402 1140 l 1,6,7
 386 1049 386 1049 379 963 c 1,8,9
 512 1120 512 1120 724 1120 c 0,10,11
 961 1120 961 1120 1076 947 c 0,12,13
 1086 932 1086 932 1095 916 c 1,14,15
 1120 951 1120 951 1138 970 c 0,16,17
 1269 1120 1269 1120 1490 1120 c 0,18,19
 1726 1120 1726 1120 1842 946 c 0,20,21
 1907 849 1907 849 1907 640 c 2,22,-1
 1907 293 l 2,23,24
 1907 147 1907 147 1935 0 c 1,25,-1
 1699 0 l 1,26,27
 1727 148 1727 148 1727 294 c 2,28,-1
 1727 641 l 2,29,30
 1727 796 1727 796 1681 870 c 0,31,32
 1595 1005 1595 1005 1434 1005 c 0,33,34
 1274 1005 1274 1005 1186 870 c 0,35,36
 1141 801 1141 801 1141 641 c 2,37,-1
 1141 294 l 2,38,39
 1141 147 1141 147 1169 0 c 1,40,-1
 933 0 l 1,41,42
 961 148 961 148 961 295 c 2,43,-1
 961 642 l 2,44,45
 961 797 961 797 915 871 c 0,46,47
 830 1005 830 1005 668 1005 c 0,48,49
 507 1005 507 1005 420 871 c 0,50,51
 375 802 375 802 375 642 c 2,52,-1
 375 295 l 2,53,54
 375 138 375 138 403 0 c 1,55,-1
 172 0 l 1,0,1
EndSplineSet
Validated: 1
EndChar

StartChar: n
Encoding: 110 110 79
Width: 1341
GlyphClass: 2
Flags: W
HStem: 0 21G<172 403 933 1169> 1005 115<521.344 828.984>
VStem: 172 230<965.689 1096.87> 200 175<4.31714 868.224> 961 180<4.62476 867.078>
LayerCount: 2
Fore
SplineSet
172 0 m 1,0,1
 200 137 200 137 200 295 c 2,2,-1
 200 797 l 2,3,4
 200 950 200 950 172 1094 c 1,5,-1
 402 1140 l 1,6,7
 386 1049 386 1049 379 963 c 1,8,9
 512 1120 512 1120 724 1120 c 0,10,11
 961 1120 961 1120 1076 947 c 0,12,13
 1141 850 1141 850 1141 641 c 2,14,-1
 1141 294 l 2,15,16
 1141 147 1141 147 1169 0 c 1,17,-1
 933 0 l 1,18,19
 961 148 961 148 961 295 c 2,20,-1
 961 642 l 2,21,22
 961 797 961 797 915 871 c 0,23,24
 830 1005 830 1005 668 1005 c 0,25,26
 507 1005 507 1005 420 871 c 0,27,28
 375 802 375 802 375 642 c 2,29,-1
 375 295 l 2,30,31
 375 138 375 138 403 0 c 1,32,-1
 172 0 l 1,0,1
EndSplineSet
Validated: 1
EndChar

StartChar: o
Encoding: 111 111 80
Width: 1328
GlyphClass: 2
Flags: W
HStem: -20 103<496.712 831.534> 1017 103<496.712 831.772>
VStem: 100 210<317.131 782.869> 1018 210<317.592 782.408>
LayerCount: 2
Fore
SplineSet
664 -20 m 128,-1,1
 436 -20 436 -20 278 128 c 0,2,3
 100 295 100 295 100 550 c 128,-1,4
 100 805 100 805 278 972 c 0,5,6
 436 1120 436 1120 664 1120 c 0,7,8
 893 1120 893 1120 1050 972 c 0,9,10
 1228 805 1228 805 1228 550 c 128,-1,11
 1228 295 1228 295 1050 128 c 0,12,0
 892 -20 892 -20 664 -20 c 128,-1,1
664 83 m 0,13,14
 831 83 831 83 934 223 c 0,15,16
 1018 338 1018 338 1018 550 c 128,-1,17
 1018 762 1018 762 934 877 c 0,18,19
 831 1017 831 1017 664 1017 c 0,20,21
 498 1017 498 1017 394 877 c 0,22,23
 310 764 310 764 310 550 c 128,-1,24
 310 336 310 336 394 223 c 0,25,26
 498 83 498 83 664 83 c 0,13,14
EndSplineSet
Validated: 1
EndChar

StartChar: p
Encoding: 112 112 81
Width: 1348
GlyphClass: 2
Flags: W
HStem: -410 21G<172 403> -20 103<509.93 839.487> 1017 103<509.837 839.027>
VStem: 200 175<-405.745 106 214.387 883.37> 1038 210<318.494 782.256>
LayerCount: 2
Fore
SplineSet
664 83 m 0,0,1
 840 83 840 83 944 223 c 0,2,3
 1038 349 1038 349 1038 550 c 128,-1,4
 1038 751 1038 751 944 877 c 0,5,6
 840 1017 840 1017 664 1017 c 0,7,8
 509 1017 509 1017 414 877 c 24,9,10
 375 820 375 820 375 705 c 2,11,-1
 375 395 l 2,12,13
 375 280 375 280 414 223 c 24,14,15
 509 83 509 83 664 83 c 0,0,1
684 -20 m 0,16,17
 493 -20 493 -20 375 106 c 1,18,-1
 375 -116 l 2,19,20
 375 -274 375 -274 403 -410 c 1,21,-1
 172 -410 l 1,22,23
 200 -275 200 -275 200 -116 c 2,24,-1
 200 798 l 2,25,26
 200 940 200 940 172 1094 c 1,27,-1
 402 1140 l 1,28,29
 390 1070 390 1070 383 1005 c 1,30,31
 498 1120 498 1120 684 1120 c 0,32,33
 912 1120 912 1120 1070 972 c 0,34,35
 1248 805 1248 805 1248 550 c 0,36,37
 1248 298 1248 298 1070 128 c 0,38,39
 914 -20 914 -20 684 -20 c 0,16,17
EndSplineSet
Validated: 1
EndChar

StartChar: q
Encoding: 113 113 82
Width: 1348
GlyphClass: 2
Flags: W
HStem: -410 21G<945 1176> -20 103<508.513 838.07> 1017 103<508.973 838.007>
VStem: 100 210<318.244 782.256> 973 175<-405.745 106 214.387 883.078>
LayerCount: 2
Fore
SplineSet
684 83 m 0,0,1
 839 83 839 83 934 223 c 24,2,3
 973 280 973 280 973 395 c 2,4,-1
 973 705 l 2,5,6
 973 820 973 820 934 877 c 24,7,8
 839 1017 839 1017 684 1017 c 0,9,10
 508 1017 508 1017 404 877 c 0,11,12
 310 751 310 751 310 550 c 128,-1,13
 310 349 310 349 404 223 c 0,14,15
 508 83 508 83 684 83 c 0,0,1
664 -20 m 0,16,17
 434 -20 434 -20 278 128 c 0,18,19
 100 297 100 297 100 550 c 0,20,21
 100 805 100 805 278 972 c 0,22,23
 436 1120 436 1120 664 1120 c 0,24,25
 844 1120 844 1120 958 1011 c 1,26,27
 953 1052 953 1052 945 1094 c 1,28,-1
 1175 1140 l 1,29,30
 1148 984 1148 984 1148 849 c 2,31,-1
 1148 -116 l 2,32,33
 1148 -274 1148 -274 1176 -410 c 1,34,-1
 945 -410 l 1,35,36
 973 -275 973 -275 973 -116 c 2,37,-1
 973 106 l 1,38,39
 855 -20 855 -20 664 -20 c 0,16,17
EndSplineSet
Validated: 1
EndChar

StartChar: r
Encoding: 114 114 83
Width: 848
GlyphClass: 2
Flags: W
HStem: 0 21G<172 403> 1005 115<502.295 753.303>
VStem: 201 175<4.50195 870.737> 818 10<850 859.536>
LayerCount: 2
Fore
SplineSet
172 0 m 1,0,1
 201 144 201 144 201 296 c 2,2,-1
 200 797 l 2,3,4
 200 957 200 957 172 1094 c 1,5,-1
 403 1139 l 1,6,7
 382 1049 382 1049 379 963 c 1,8,9
 500 1120 500 1120 665 1120 c 0,10,11
 751 1120 751 1120 828 1101 c 1,12,-1
 828 850 l 1,13,-1
 818 850 l 1,14,15
 766 1005 766 1005 639 1005 c 0,16,17
 489 1005 489 1005 420 871 c 0,18,19
 375 784 375 784 375 642 c 2,20,-1
 376 296 l 2,21,22
 376 142 376 142 403 0 c 1,23,-1
 172 0 l 1,0,1
EndSplineSet
Validated: 1
EndChar

StartChar: s
Encoding: 115 115 84
Width: 874
GlyphClass: 2
Flags: W
HStem: -20 104<242.367 537.063> 1026 94<369.448 589.436>
VStem: 80 10<320.157 334> 160 172<796.163 996.121> 617 177<165.366 413.27> 652 10<888 896.49>
DStem2: 437 744 367 565 0.828216 -0.560409<-150.955 364.206>
LayerCount: 2
Fore
SplineSet
408 -20 m 0,0,1
 232 -20 232 -20 80 71 c 1,2,-1
 80 334 l 1,3,-1
 90 334 l 1,4,5
 116 244 116 244 166 190 c 0,6,7
 264 84 264 84 402 84 c 0,8,9
 507 84 507 84 572 161 c 0,10,11
 617 214 617 214 617 298 c 0,12,13
 617 397 617 397 508 470 c 2,14,-1
 367 565 l 2,15,16
 160 704 160 704 160 865 c 0,17,18
 160 978 160 978 266 1063 c 0,19,20
 338 1120 338 1120 460 1120 c 0,21,22
 561 1120 561 1120 662 1087 c 1,23,-1
 662 888 l 1,24,-1
 652 888 l 1,25,26
 593 1026 593 1026 477 1026 c 0,27,28
 416 1026 416 1026 378 998 c 0,29,30
 332 964 332 964 332 899 c 0,31,32
 332 815 332 815 437 744 c 2,33,-1
 604 631 l 2,34,35
 794 502 794 502 794 337 c 0,36,37
 794 177 794 177 670 72 c 0,38,39
 560 -20 560 -20 408 -20 c 0,0,1
EndSplineSet
Validated: 1
EndChar

StartChar: t
Encoding: 116 116 85
Width: 795
GlyphClass: 2
Flags: W
HStem: 0 21G<282 513> 967 105<24.4365 310 485 770.471> 1080 20G<20 90.5 703 775> 1530 20G<412 498.5>
VStem: 310 175<4.50146 967 1072 1500.14>
LayerCount: 2
Fore
SplineSet
282 0 m 1,0,1
 310 144 310 144 310 294 c 2,2,-1
 310 967 l 1,3,-1
 300 967 l 2,4,5
 162 967 162 967 20 939 c 1,6,-1
 20 1100 l 1,7,8
 161 1072 161 1072 300 1072 c 2,9,-1
 310 1072 l 1,10,-1
 310 1208 l 2,11,12
 310 1381 310 1381 282 1504 c 1,13,-1
 512 1550 l 1,14,15
 485 1395 485 1395 485 1259 c 2,16,-1
 485 1072 l 1,17,-1
 495 1072 l 2,18,19
 631 1072 631 1072 775 1100 c 1,20,-1
 775 939 l 1,21,22
 630 967 630 967 495 967 c 2,23,-1
 485 967 l 1,24,-1
 485 294 l 2,25,26
 485 143 485 143 513 0 c 1,27,-1
 282 0 l 1,0,1
EndSplineSet
Validated: 1
EndChar

StartChar: u
Encoding: 117 117 86
Width: 1341
GlyphClass: 2
Flags: W
HStem: -20 115<511.528 819.656> 0 21G<938 1169>
VStem: 200 180<232.922 1089.37> 966 175<232.326 1089.34>
LayerCount: 2
Fore
SplineSet
1169 0 m 1,0,1
 938 0 l 1,2,3
 955 71 955 71 962 137 c 1,4,5
 829 -20 829 -20 617 -20 c 0,6,7
 380 -20 380 -20 265 153 c 0,8,9
 200 250 200 250 200 459 c 2,10,-1
 200 797 l 2,11,12
 200 946 200 946 172 1094 c 1,13,-1
 407 1140 l 1,14,15
 380 993 380 993 380 847 c 2,16,-1
 380 458 l 2,17,18
 380 303 380 303 426 229 c 0,19,20
 509 95 509 95 673 95 c 0,21,22
 834 95 834 95 921 229 c 0,23,24
 966 298 966 298 966 458 c 2,25,-1
 966 796 l 2,26,27
 966 945 966 945 938 1094 c 1,28,-1
 1168 1140 l 1,29,30
 1141 998 1141 998 1141 847 c 2,31,-1
 1141 295 l 2,32,33
 1141 139 1141 139 1169 0 c 1,0,1
EndSplineSet
Validated: 1
EndChar

StartChar: v
Encoding: 118 118 87
Width: 1178
GlyphClass: 2
Flags: W
HStem: 0 21G<491.5 692.5> 1080 20G<5 281 965.5 1173>
DStem2: 358 816 149 851 0.415797 -0.909458<-293.892 639.269> 625 232 774 284 0.410624 0.911805<1.96208 934.687>
LayerCount: 2
Fore
SplineSet
506 0 m 1,0,1
 477 132 477 132 408 284 c 2,2,-1
 149 851 l 2,3,4
 98 962 98 962 5 1100 c 1,5,-1
 260 1100 l 1,6,7
 302 938 302 938 358 816 c 2,8,-1
 625 232 l 1,9,-1
 888 816 l 2,10,11
 945 943 945 943 986 1100 c 1,12,-1
 1173 1100 l 1,13,14
 1082 969 1082 969 1029 851 c 2,15,-1
 774 284 l 2,16,17
 709 140 709 140 676 0 c 1,18,-1
 506 0 l 1,0,1
EndSplineSet
Validated: 1
EndChar

StartChar: w
Encoding: 119 119 88
Width: 1721
GlyphClass: 2
Flags: W
HStem: 0 21G<378.5 608.5 1121 1344> 1080 20G<10 267 789.5 1000 1523 1711>
VStem: 388 212<0 208.954> 799 192<887.272 1100> 1131 202<0 211.38> 1532 179<1027.85 1100>
DStem2: 326 809 128 835 0.329504 -0.944154<-292.602 628.897> 534 213 668 291 0.313837 0.949477<2.97678 714.288> 1267 214 857 862 0.329997 -0.943982<-743.104 -1.19344> 1267 214 1401 291 0.312874 0.949795<4.1234 920.21>
LayerCount: 2
Fore
SplineSet
388 0 m 1,0,1
 369 145 369 145 318 291 c 2,2,-1
 128 835 l 2,3,4
 81 970 81 970 10 1100 c 1,5,-1
 258 1100 l 1,6,7
 276 952 276 952 326 809 c 2,8,-1
 534 213 l 1,9,-1
 731 809 l 2,10,11
 780 957 780 957 799 1100 c 1,12,-1
 991 1100 l 1,13,14
 1009 952 1009 952 1059 809 c 2,15,-1
 1267 214 l 1,16,-1
 1463 809 l 2,17,18
 1514 964 1514 964 1532 1100 c 1,19,-1
 1711 1100 l 1,20,21
 1622 963 1622 963 1580 835 c 2,22,-1
 1401 291 l 2,23,24
 1355 151 1355 151 1333 0 c 1,25,-1
 1131 0 l 1,26,27
 1111 151 1111 151 1061 291 c 2,28,-1
 857 862 l 1,29,-1
 668 291 l 2,30,31
 617 137 617 137 600 0 c 1,32,-1
 388 0 l 1,0,1
EndSplineSet
Validated: 1
EndChar

StartChar: x
Encoding: 120 120 89
Width: 1071
GlyphClass: 2
Flags: W
HStem: 0 21G<22 256.5 745.5 1051> 1080 20G<20 325 815 1050>
DStem2: 442 836 201 883 0.567826 -0.823148<-295.684 201.375 377.041 872.716> 451 519 516 429 0.598193 0.801352<-546.656 -33.2392 183.814 698.453>
LayerCount: 2
Fore
SplineSet
22 0 m 1,0,1
 136 105 136 105 212 205 c 2,2,-1
 451 519 l 1,3,-1
 201 883 l 2,4,5
 129 988 129 988 20 1100 c 1,6,-1
 296 1100 l 1,7,8
 354 964 354 964 442 836 c 2,9,-1
 556 670 l 1,10,-1
 689 844 l 2,11,12
 782 965 782 965 848 1100 c 1,13,-1
 1050 1100 l 1,14,15
 943 1003 943 1003 861 895 c 2,16,-1
 621 579 l 1,17,-1
 869 217 l 2,18,19
 947 103 947 103 1051 0 c 1,20,-1
 775 0 l 1,21,22
 716 135 716 135 629 263 c 2,23,-1
 516 429 l 1,24,-1
 384 256 l 2,25,26
 288 130 288 130 225 0 c 1,27,-1
 22 0 l 1,0,1
EndSplineSet
Validated: 1
EndChar

StartChar: y
Encoding: 121 121 90
Width: 1341
GlyphClass: 2
Flags: W
HStem: -430 104<442.318 794.253> -20 115<511.528 815.093>
VStem: 200 180<232.922 1089.37> 277 11<-113.199 -98> 966 175<-117.656 144 229.014 1089.34>
LayerCount: 2
Fore
SplineSet
617 -20 m 0,0,1
 380 -20 380 -20 265 153 c 0,2,3
 200 250 200 250 200 459 c 2,4,-1
 200 797 l 2,5,6
 200 946 200 946 172 1094 c 1,7,-1
 407 1140 l 1,8,9
 380 993 380 993 380 847 c 2,10,-1
 380 458 l 2,11,12
 380 303 380 303 426 229 c 0,13,14
 509 95 509 95 673 95 c 0,15,16
 834 95 834 95 921 229 c 0,17,18
 966 298 966 298 966 458 c 2,19,-1
 966 796 l 2,20,21
 966 945 966 945 938 1094 c 1,22,-1
 1168 1140 l 1,23,24
 1141 994 1141 994 1141 849 c 2,25,-1
 1141 134 l 2,26,27
 1141 -114 1141 -114 1021 -257 c 0,28,29
 876 -430 876 -430 644 -430 c 0,30,31
 449 -430 449 -430 277 -357 c 1,32,-1
 277 -98 l 1,33,-1
 288 -98 l 1,34,35
 315 -180 315 -180 383 -242 c 0,36,37
 477 -326 477 -326 640 -326 c 0,38,39
 786 -326 786 -326 871 -210 c 0,40,41
 916 -149 916 -149 941 -68 c 128,-1,42
 966 13 966 13 966 115 c 2,43,-1
 966 144 l 1,44,45
 827 -20 827 -20 617 -20 c 0,0,1
EndSplineSet
Validated: 1
EndChar

StartChar: z
Encoding: 122 122 91
Width: 1076
GlyphClass: 2
Flags: W
HStem: 0 104<292 992.176> 996 104<196.562 757>
DStem2: 257 338 292 104 0.605022 0.796209<-163.605 826.041>
LayerCount: 2
Fore
SplineSet
98 0 m 1,0,-1
 60 117 l 1,1,2
 165 217 165 217 257 338 c 2,3,-1
 757 996 l 1,4,-1
 483 996 l 2,5,6
 338 996 338 996 192 968 c 1,7,-1
 192 1100 l 1,8,-1
 956 1100 l 1,9,-1
 990 984 l 1,10,11
 896 899 896 899 792 762 c 2,12,-1
 292 104 l 1,13,-1
 705 104 l 2,14,15
 874 104 874 104 996 132 c 1,16,-1
 996 0 l 1,17,-1
 98 0 l 1,0,-1
EndSplineSet
Validated: 1
EndChar

StartChar: braceleft
Encoding: 123 123 92
Width: 855
GlyphClass: 2
Flags: W
HStem: -246 10<699.419 705> 1750 10<699.419 705>
VStem: 150 89<707.5 806.5> 330 195<-108.865 624.367 889.633 1622.87>
LayerCount: 2
Fore
SplineSet
705 1760 m 1,0,-1
 705 1750 l 1,1,2
 525 1667 525 1667 525 1446 c 2,3,-1
 525 1066 l 2,4,5
 525 792 525 792 239 757 c 1,6,7
 525 722 525 722 525 448 c 2,8,-1
 525 68 l 2,9,10
 525 -153 525 -153 705 -236 c 1,11,-1
 705 -246 l 1,12,13
 330 -246 330 -246 330 68 c 2,14,-1
 330 448 l 2,15,16
 330 668 330 668 150 752 c 1,17,-1
 150 762 l 1,18,19
 330 846 330 846 330 1066 c 2,20,-1
 330 1446 l 2,21,22
 330 1760 330 1760 705 1760 c 1,0,-1
EndSplineSet
Validated: 1
EndChar

StartChar: bar
Encoding: 124 124 93
Width: 660
GlyphClass: 2
Flags: W
VStem: 250 160<-175.312 1685.31>
LayerCount: 2
Fore
SplineSet
220 -180 m 1,0,1
 250 -30 250 -30 250 120 c 2,2,-1
 250 1390 l 2,3,4
 250 1540 250 1540 220 1690 c 1,5,-1
 440 1690 l 1,6,7
 410 1540 410 1540 410 1390 c 2,8,-1
 410 120 l 2,9,10
 410 -30 410 -30 440 -180 c 1,11,-1
 220 -180 l 1,0,1
EndSplineSet
Validated: 1
EndChar

StartChar: braceright
Encoding: 125 125 94
Width: 855
GlyphClass: 2
Flags: W
HStem: -246 10<150 155.581> 1750 10<150 155.581>
VStem: 330 195<-108.865 624.367 889.633 1622.87> 616 89<707.5 806.5>
LayerCount: 2
Fore
SplineSet
150 1760 m 1,0,1
 525 1760 525 1760 525 1446 c 2,2,-1
 525 1066 l 2,3,4
 525 846 525 846 705 762 c 1,5,-1
 705 752 l 1,6,7
 525 668 525 668 525 448 c 2,8,-1
 525 68 l 2,9,10
 525 -246 525 -246 150 -246 c 1,11,-1
 150 -236 l 1,12,13
 330 -153 330 -153 330 68 c 2,14,-1
 330 448 l 2,15,16
 330 722 330 722 616 757 c 1,17,18
 330 792 330 792 330 1066 c 2,19,-1
 330 1446 l 2,20,21
 330 1667 330 1667 150 1750 c 1,22,-1
 150 1760 l 1,0,1
EndSplineSet
Validated: 1
EndChar

StartChar: asciitilde
Encoding: 126 126 95
Width: 1106
GlyphClass: 2
Flags: W
HStem: 551 168<664.146 870.96> 759 168<234.753 441.854>
VStem: 150 10<551 570.043> 946 10<907.957 927>
DStem2: 664 763 442 715 0.788976 -0.614424<-254.321 108.661>
LayerCount: 2
Fore
SplineSet
150 858 m 1,0,1
 237 927 237 927 348 927 c 0,2,3
 453 927 453 927 551 851 c 2,4,-1
 664 763 l 2,5,6
 720 719 720 719 769 719 c 272,7,8
 900 719 900 719 946 927 c 1,9,-1
 956 927 l 1,10,-1
 956 620 l 1,11,12
 874 551 874 551 758 551 c 0,13,14
 653 551 653 551 555 627 c 2,15,-1
 442 715 l 2,16,17
 386 759 386 759 337 759 c 272,18,19
 206 759 206 759 160 551 c 1,20,-1
 150 551 l 1,21,-1
 150 858 l 1,0,1
EndSplineSet
Validated: 1
EndChar

StartChar: exclamdown
Encoding: 161 161 97
Width: 692
GlyphClass: 2
Flags: W
HStem: -410 21G<200 492> 856 264<255.191 436.809>
VStem: 216 260<895.707 1080.29> 240 212<-405.312 506.448> 260 172<133.552 750>
LayerCount: 2
Fore
SplineSet
492 -410 m 1,0,-1
 200 -410 l 1,1,2
 236 -262 236 -262 240 -110 c 2,3,-1
 260 750 l 25,4,-1
 432 750 l 25,5,-1
 452 -110 l 2,6,7
 455 -260 455 -260 492 -410 c 1,0,-1
346 1120 m 128,-1,9
 400 1120 400 1120 438 1081.5 c 128,-1,10
 476 1043 476 1043 476 988 c 128,-1,11
 476 933 476 933 438 894.5 c 128,-1,12
 400 856 400 856 346 856 c 128,-1,13
 292 856 292 856 254 894.5 c 128,-1,14
 216 933 216 933 216 988 c 128,-1,15
 216 1043 216 1043 254 1081.5 c 128,-1,8
 292 1120 292 1120 346 1120 c 128,-1,9
EndSplineSet
Validated: 1
EndChar

StartChar: cent
Encoding: 162 162 98
Width: 1198
GlyphClass: 2
Flags: W
HStem: -20 104<520.625 622 722 885.363> 1016 104<520.625 622 722 870.871>
VStem: 100 210<316.626 783.374> 622 100<-180 -20 92 1008 1120 1280>
LayerCount: 2
Fore
SplineSet
622 1280 m 1,0,-1
 722 1280 l 1,1,-1
 722 1120 l 1,2,3
 919 1118 919 1118 1083 1018 c 1,4,-1
 1083 772 l 1,5,-1
 1073 771 l 1,6,7
 913 1011 913 1011 722 1016 c 1,8,-1
 722 84 l 1,9,10
 936 88 936 88 1088 329 c 1,11,-1
 1098 328 l 1,12,-1
 1098 122 l 1,13,14
 932 -17 932 -17 722 -20 c 1,15,-1
 722 -180 l 1,16,-1
 622 -180 l 1,17,-1
 622 -16 l 1,18,19
 409 5 409 5 278 128 c 0,20,21
 100 295 100 295 100 550 c 128,-1,22
 100 805 100 805 278 972 c 0,23,24
 409 1095 409 1095 622 1116 c 1,25,-1
 622 1280 l 1,0,-1
622 92 m 1,26,-1
 622 1008 l 1,27,28
 488 983 488 983 406 878 c 0,29,30
 310 755 310 755 310 550 c 128,-1,31
 310 345 310 345 406 222 c 0,32,33
 488 117 488 117 622 92 c 1,26,-1
EndSplineSet
Validated: 1
EndChar

StartChar: sterling
Encoding: 163 163 99
Width: 967
GlyphClass: 2
Flags: W
HStem: 0 124<400.062 862.066> 786 105<52.2798 200 395 680.471> 1415 115<486.067 746.058>
VStem: 200 195<126.656 786 891 1314.65> 810 10<1260 1274.19>
LayerCount: 2
Fore
SplineSet
172 0 m 1,0,1
 200 148 200 148 200 294 c 2,2,-1
 200 786 l 1,3,-1
 190 786 l 2,4,5
 123 786 123 786 50 760 c 1,6,-1
 50 917 l 1,7,8
 123 891 123 891 190 891 c 2,9,-1
 200 891 l 1,10,-1
 200 1064 l 2,11,12
 200 1295 200 1295 297 1404 c 0,13,14
 409 1530 409 1530 638 1530 c 0,15,16
 742 1530 742 1530 820 1511 c 1,17,-1
 820 1260 l 1,18,-1
 810 1260 l 1,19,20
 764 1415 764 1415 620 1415 c 0,21,22
 505 1415 505 1415 446 1328 c 0,23,24
 395 1252 395 1252 395 1065 c 2,25,-1
 395 891 l 1,26,-1
 405 891 l 2,27,28
 541 891 541 891 685 919 c 1,29,-1
 685 758 l 1,30,31
 540 786 540 786 405 786 c 2,32,-1
 395 786 l 1,33,-1
 395 294 l 2,34,35
 395 209 395 209 404 124 c 1,36,-1
 567 124 l 2,37,38
 709 124 709 124 867 154 c 1,39,-1
 867 0 l 1,40,-1
 172 0 l 1,0,1
EndSplineSet
Validated: 1
EndChar

StartChar: currency
Encoding: 164 164 100
Width: 1594
GlyphClass: 2
Flags: W
HStem: 191 103<639.609 974.133> 1228 103<641.933 972.611>
VStem: 243 210<529.749 994.191> 1161 210<529.111 992.876>
DStem2: 264 1401 150 1287 0.703521 -0.710675<0.815607 273.76 1397.83 1677.28> 150 209 263 96 0.703521 0.710675<0 294.471 1414.15 1676.46>
LayerCount: 2
Fore
SplineSet
807 294 m 0,0,1
 974 294 974 294 1077 434 c 0,2,3
 1161 549 1161 549 1161 761 c 128,-1,4
 1161 973 1161 973 1077 1088 c 0,5,6
 974 1228 974 1228 807 1228 c 0,7,8
 641 1228 641 1228 537 1088 c 0,9,10
 453 975 453 975 453 761 c 128,-1,11
 453 547 453 547 537 434 c 0,12,13
 641 294 641 294 807 294 c 0,0,1
1137 292 m 1,14,15
 996 191 996 191 807 191 c 0,16,17
 610 191 610 191 466 301 c 1,18,-1
 263 96 l 1,19,-1
 150 209 l 1,20,-1
 353 414 l 1,21,22
 243 560 243 560 243 761 c 0,23,24
 243 951 243 951 342 1093 c 1,25,-1
 150 1287 l 1,26,-1
 264 1401 l 1,27,-1
 453 1211 l 1,28,29
 602 1331 602 1331 807 1331 c 0,30,31
 1006 1331 1006 1331 1150 1219 c 1,32,-1
 1330 1401 l 1,33,-1
 1444 1287 l 1,34,-1
 1263 1104 l 1,35,36
 1371 959 1371 959 1371 761 c 0,37,38
 1371 553 1371 553 1252 403 c 1,39,-1
 1444 209 l 1,40,-1
 1331 96 l 1,41,-1
 1137 292 l 1,14,15
EndSplineSet
Validated: 1
EndChar

StartChar: yen
Encoding: 165 165 101
Width: 1323
GlyphClass: 2
Flags: W
HStem: 0 21G<530 790> 414 104<249.688 560 760 1073.25> 1490 20G<0 309 1068 1323>
VStem: 560 200<4.6875 414 518 629>
DStem2: 677 786 180 1268 0.515893 -0.856653<-817.702 -109.019 -9.73023 0> 703 786 855 788 0.514101 0.85773<79.8588 818.174>
LayerCount: 2
Fore
SplineSet
530 0 m 1,0,1
 560 150 560 150 560 300 c 2,2,-1
 560 414 l 1,3,-1
 545 414 l 2,4,5
 395 414 395 414 245 384 c 1,6,-1
 245 548 l 1,7,8
 395 518 395 518 545 518 c 2,9,-1
 560 518 l 1,10,-1
 560 637 l 1,11,-1
 533 682 l 1,12,13
 389 681 389 681 245 652 c 1,14,-1
 245 816 l 1,15,16
 357 794 357 794 469 788 c 1,17,-1
 180 1268 l 2,18,19
 98 1404 98 1404 0 1510 c 1,20,-1
 286 1510 l 1,21,22
 332 1380 332 1380 415 1237 c 2,23,-1
 677 786 l 1,24,-1
 703 786 l 1,25,-1
 967 1237 l 2,26,27
 1040 1362 1040 1362 1096 1510 c 1,28,-1
 1323 1510 l 1,29,30
 1222 1401 1222 1401 1143 1268 c 2,31,-1
 855 788 l 1,32,33
 966 794 966 794 1078 816 c 1,34,-1
 1078 652 l 1,35,36
 934 681 934 681 792 682 c 1,37,-1
 760 629 l 1,38,-1
 760 518 l 1,39,-1
 778 518 l 2,40,41
 926 518 926 518 1078 548 c 1,42,-1
 1078 384 l 1,43,44
 927 414 927 414 778 414 c 2,45,-1
 760 414 l 1,46,-1
 760 300 l 2,47,48
 760 148 760 148 790 0 c 1,49,-1
 530 0 l 1,0,1
EndSplineSet
Validated: 1
EndChar

StartChar: brokenbar
Encoding: 166 166 102
Width: 660
GlyphClass: 2
Flags: W
VStem: 250 160<-176.312 642.312 866.688 1685.31>
LayerCount: 2
Fore
SplineSet
220 -181 m 1,0,1
 250 -31 250 -31 250 119 c 2,2,-1
 250 347 l 2,3,4
 250 497 250 497 220 647 c 1,5,-1
 440 647 l 1,6,7
 410 497 410 497 410 347 c 2,8,-1
 410 119 l 2,9,10
 410 -31 410 -31 440 -181 c 1,11,-1
 220 -181 l 1,0,1
220 1690 m 1,12,-1
 440 1690 l 1,13,14
 410 1540 410 1540 410 1390 c 2,15,-1
 410 1162 l 2,16,17
 410 1012 410 1012 440 862 c 1,18,-1
 220 862 l 1,19,20
 250 1012 250 1012 250 1162 c 2,21,-1
 250 1390 l 2,22,23
 250 1540 250 1540 220 1690 c 1,12,-1
EndSplineSet
Validated: 1
EndChar

StartChar: section
Encoding: 167 167 103
Width: 987
GlyphClass: 2
Flags: W
HStem: -20 104<355.211 574.536> 1426 104<412.464 631.789>
VStem: 150 167<679.785 925.342> 213 162<1209.19 1396.48> 612 162<113.521 300.81> 670 167<584.658 830.215>
DStem2: 424 622 338 465 0.828216 -0.560409<-145.952 371.777> 649 1045 563 888 0.828216 -0.560409<-355.019 162.709>
LayerCount: 2
Fore
SplineSet
484 -20 m 0,0,1
 383 -20 383 -20 282 13 c 1,2,-1
 282 212 l 1,3,-1
 292 212 l 1,4,5
 359 84 359 84 467 84 c 0,6,7
 527 84 527 84 566 112 c 0,8,9
 612 145 612 145 612 211 c 0,10,11
 611 280 611 280 505 352 c 2,12,-1
 338 465 l 2,13,14
 150 592 150 592 150 763 c 0,15,16
 150 923 150 923 274 1028 c 1,17,-1
 372 939 l 1,18,19
 317 876 317 876 317 802 c 0,20,21
 317 696 317 696 424 622 c 2,22,-1
 565 525 l 2,23,24
 774 381 774 381 774 231 c 0,25,26
 774 112 774 112 678 37 c 0,27,28
 606 -20 606 -20 484 -20 c 0,0,1
503 1530 m 0,29,30
 604 1530 604 1530 705 1497 c 1,31,-1
 705 1298 l 1,32,-1
 695 1298 l 1,33,34
 628 1426 628 1426 520 1426 c 0,35,36
 460 1426 460 1426 421 1398 c 0,37,38
 375 1365 375 1365 375 1299 c 0,39,40
 376 1230 376 1230 482 1158 c 2,41,-1
 649 1045 l 2,42,43
 837 918 837 918 837 747 c 0,44,45
 837 587 837 587 713 482 c 1,46,-1
 615 571 l 1,47,48
 670 634 670 634 670 708 c 0,49,50
 670 814 670 814 563 888 c 2,51,-1
 422 985 l 2,52,53
 213 1129 213 1129 213 1279 c 0,54,55
 213 1398 213 1398 309 1473 c 0,56,57
 381 1530 381 1530 503 1530 c 0,29,30
EndSplineSet
Validated: 1
EndChar

StartChar: dieresis
Encoding: 168 168 104
Width: 654
GlyphClass: 2
Flags: W
HStem: 1292 238<85.0662 248.934 406.097 568.934>
VStem: 50 234<1327.58 1494.42> 370 234<1327.58 1494.42>
LayerCount: 2
Fore
SplineSet
488 1530 m 128,-1,1
 536 1530 536 1530 570 1495.5 c 128,-1,2
 604 1461 604 1461 604 1411 c 128,-1,3
 604 1361 604 1361 570 1326.5 c 128,-1,4
 536 1292 536 1292 488 1292 c 128,-1,5
 440 1292 440 1292 405 1326.5 c 128,-1,6
 370 1361 370 1361 370 1411 c 128,-1,7
 370 1461 370 1461 405 1495.5 c 128,-1,0
 440 1530 440 1530 488 1530 c 128,-1,1
167 1530 m 128,-1,9
 216 1530 216 1530 250 1495.5 c 128,-1,10
 284 1461 284 1461 284 1411 c 128,-1,11
 284 1361 284 1361 250 1326.5 c 128,-1,12
 216 1292 216 1292 167 1292 c 128,-1,13
 118 1292 118 1292 84 1326.5 c 128,-1,14
 50 1361 50 1361 50 1411 c 128,-1,15
 50 1461 50 1461 84 1495.5 c 128,-1,8
 118 1530 118 1530 167 1530 c 128,-1,9
EndSplineSet
Validated: 1
EndChar

StartChar: copyright
Encoding: 169 169 105
Width: 1401
GlyphClass: 2
Flags: W
HStem: 386 73<514.363 878.202> 548 101<578.871 846.787> 1112 21G<912.5 955> 1258 103<576.489 837.756> 1453 77<516.855 884.866>
VStem: 150 74<768.815 1151.31> 310 150<779.725 1127.39> 1176 75<757.376 1158.43>
LayerCount: 2
Fore
SplineSet
994 802 m 1,0,-1
 994 672 l 1,1,2
 872 548 872 548 708 548 c 0,3,4
 541 548 541 548 426 666 c 0,5,6
 310 787 310 787 310 954 c 0,7,8
 310 1122 310 1122 426 1241 c 0,9,10
 543 1361 543 1361 707 1361 c 0,11,12
 844 1361 844 1361 955 1272 c 1,13,-1
 955 1112 l 1,14,-1
 918 1112 l 1,15,16
 907 1135 907 1135 886 1163 c 0,17,18
 815 1258 815 1258 707 1258 c 128,-1,19
 599 1258 599 1258 528 1163 c 0,20,21
 460 1070 460 1070 460 953 c 0,22,23
 460 834 460 834 528 744 c 0,24,25
 601 649 601 649 707 649 c 0,26,27
 843 649 843 649 958 802 c 1,28,-1
 994 802 l 1,0,-1
701 1530 m 0,29,30
 943 1530 943 1530 1099 1357 c 0,31,32
 1251 1188 1251 1188 1251 953 c 0,33,34
 1251 701 1251 701 1090 549 c 0,35,36
 919 386 919 386 699 386 c 0,37,38
 476 386 476 386 311 549 c 0,39,40
 150 708 150 708 150 953 c 0,41,42
 150 1197 150 1197 308 1362 c 0,43,44
 469 1530 469 1530 701 1530 c 0,29,30
699 1453 m 0,45,46
 509 1453 509 1453 367 1312 c 0,47,48
 224 1170 224 1170 224 953 c 0,49,50
 224 760 224 760 364 605 c 0,51,52
 495 459 495 459 701 459 c 0,53,54
 892 459 892 459 1037 605 c 0,55,56
 1176 745 1176 745 1176 953 c 0,57,58
 1176 1174 1176 1174 1039 1309 c 0,59,60
 893 1453 893 1453 699 1453 c 0,45,46
EndSplineSet
Validated: 1
EndChar

StartChar: ordfeminine
Encoding: 170 170 106
Width: 700
GlyphClass: 2
Flags: W
HStem: 713 94<54.6875 645.251> 941 73<254.842 410.186> 1276 71<253.113 406.706> 1344 131<150 191.719> 1453 77<217.605 405.773>
VStem: 83 137<1047.19 1243.52> 443 125<1056.07 1234.75>
LayerCount: 2
Fore
SplineSet
443 1145 m 0,0,1
 443 1196 443 1196 411.5 1236 c 128,-1,2
 380 1276 380 1276 330.5 1276 c 128,-1,3
 281 1276 281 1276 249 1236 c 24,4,5
 220 1200 220 1200 220 1146 c 0,6,7
 220 1095 220 1095 250.5 1054.5 c 128,-1,8
 281 1014 281 1014 330.5 1014 c 128,-1,9
 380 1014 380 1014 415 1055 c 0,10,11
 443 1089 443 1089 443 1145 c 0,0,1
350 1530 m 0,12,13
 478 1530 478 1530 537 1439 c 0,14,15
 568 1391 568 1391 568 1282 c 2,16,-1
 568 1108 l 2,17,18
 568 1039 568 1039 584 951 c 1,19,-1
 426 951 l 1,20,-1
 430 967 l 1,21,22
 379 941 379 941 297.5 941 c 128,-1,23
 216 941 216 941 150 997 c 0,24,25
 83 1055 83 1055 83 1146 c 0,26,27
 83 1241 83 1241 151 1293 c 0,28,29
 221 1347 221 1347 303.5 1347 c 128,-1,30
 386 1347 386 1347 441 1316 c 1,31,32
 436 1369 436 1369 421 1394 c 0,33,34
 386 1453 386 1453 316 1453 c 128,-1,35
 246 1453 246 1453 198 1396 c 0,36,37
 172 1365 172 1365 160 1344 c 1,38,-1
 150 1344 l 1,39,-1
 150 1475 l 1,40,41
 236 1530 236 1530 350 1530 c 0,12,13
50 837 m 1,42,43
 200 807 200 807 350 807 c 0,44,45
 498 807 498 807 650 837 c 1,46,-1
 650 683 l 1,47,48
 499 713 499 713 350 713 c 0,49,50
 200 713 200 713 50 683 c 1,51,-1
 50 837 l 1,42,43
EndSplineSet
Validated: 1
EndChar

StartChar: guillemotleft
Encoding: 171 171 107
Width: 1310
GlyphClass: 2
Flags: W
VStem: 100 184<655 839> 515 184<655 839>
DStem2: 284 747 100 747 0.588499 -0.808498<0 506.324> 100 747 284 747 0.588499 0.808498<108.284 614.608> 699 747 515 747 0.588499 -0.808498<0 506.324> 515 747 699 747 0.588499 0.808498<108.284 614.608>
LayerCount: 2
Fore
SplineSet
849 1270 m 1,0,-1
 1110 1270 l 1,1,2
 993 1151 993 1151 913 1041 c 2,3,-1
 699 747 l 1,4,-1
 913 453 l 2,5,6
 991 346 991 346 1110 224 c 1,7,-1
 849 224 l 1,8,9
 786 368 786 368 701 487 c 2,10,-1
 515 747 l 1,11,-1
 701 1007 l 2,12,13
 786 1126 786 1126 849 1270 c 1,0,-1
434 1270 m 1,14,-1
 695 1270 l 1,15,16
 578 1151 578 1151 498 1041 c 2,17,-1
 284 747 l 1,18,-1
 498 453 l 2,19,20
 576 346 576 346 695 224 c 1,21,-1
 434 224 l 1,22,23
 371 368 371 368 286 487 c 2,24,-1
 100 747 l 1,25,-1
 286 1007 l 2,26,27
 371 1126 371 1126 434 1270 c 1,14,-1
EndSplineSet
Validated: 1
EndChar

StartChar: logicalnot
Encoding: 172 172 108
Width: 1133
GlyphClass: 2
Flags: W
HStem: 668 154<154.688 855.462>
VStem: 829 154<368 663.066> 859 124<372.441 668>
LayerCount: 2
Fore
SplineSet
150 852 m 1,0,1
 300 822 300 822 450 822 c 2,2,-1
 683 822 l 2,3,4
 831 822 831 822 983 852 c 1,5,-1
 983 368 l 1,6,-1
 829 368 l 1,7,8
 859 510 859 510 859 668 c 9,9,-1
 450 668 l 2,10,11
 300 668 300 668 150 638 c 1,12,-1
 150 852 l 1,0,1
EndSplineSet
Validated: 1
EndChar

StartChar: uni00AD
Encoding: 173 173 109
Width: 1133
GlyphClass: 2
Flags: W
HStem: 668 154<154.688 978.251>
LayerCount: 2
Fore
SplineSet
150 852 m 1,0,1
 300 822 300 822 450 822 c 2,2,-1
 683 822 l 2,3,4
 831 822 831 822 983 852 c 1,5,-1
 983 638 l 1,6,7
 832 668 832 668 683 668 c 2,8,-1
 450 668 l 2,9,10
 300 668 300 668 150 638 c 1,11,-1
 150 852 l 1,0,1
EndSplineSet
Validated: 1
EndChar

StartChar: registered
Encoding: 174 174 110
Width: 1401
GlyphClass: 2
Flags: W
HStem: 386 73<514.363 876.761> 870 102<637 701.963> 1258 102<637.354 782.682> 1453 77<516.855 884.866>
VStem: 150 74<769.065 1151.31> 497 140<567.964 870 972 1256.94> 818 150<1010.95 1219.35> 1176 75<758.47 1158.43>
DStem2: 842 907 702 871 0.555694 -0.831387<0 304.409>
LayerCount: 2
Fore
SplineSet
699 1453 m 0,0,1
 509 1453 509 1453 367 1312 c 0,2,3
 224 1170 224 1170 224 953 c 0,4,5
 224 761 224 761 364 605 c 0,6,7
 495 459 495 459 701 459 c 0,8,9
 864 459 864 459 993 565 c 1,10,-1
 883 565 l 1,11,12
 851 648 851 648 811 708 c 2,13,-1
 702 871 l 1,14,15
 701 870 701 870 677 870 c 2,16,-1
 637 870 l 1,17,-1
 637 735 l 2,18,19
 637 660 637 660 657 565 c 1,20,-1
 478 565 l 1,21,22
 497 638 497 638 497 735 c 2,23,-1
 497 1190 l 2,24,25
 497 1288 497 1288 478 1360 c 1,26,-1
 677 1360 l 2,27,28
 813 1360 813 1360 887 1294 c 0,29,30
 968 1223 968 1223 968 1115 c 0,31,32
 968 1018 968 1018 885 938 c 0,33,34
 865 919 865 919 842 907 c 1,35,-1
 971 714 l 2,36,37
 999 672 999 672 1048 616 c 1,38,39
 1176 753 1176 753 1176 953 c 0,40,41
 1176 1174 1176 1174 1039 1309 c 0,42,43
 893 1453 893 1453 699 1453 c 0,0,1
701 1530 m 0,44,45
 943 1530 943 1530 1099 1357 c 0,46,47
 1251 1188 1251 1188 1251 953 c 0,48,49
 1251 702 1251 702 1090 549 c 0,50,51
 918 386 918 386 699 386 c 0,52,53
 476 386 476 386 311 549 c 0,54,55
 150 708 150 708 150 953 c 0,56,57
 150 1197 150 1197 308 1362 c 0,58,59
 469 1530 469 1530 701 1530 c 0,44,45
637 972 m 1,60,-1
 677 972 l 2,61,62
 742 972 742 972 784 1015 c 0,63,64
 818 1050 818 1050 818 1115 c 128,-1,65
 818 1180 818 1180 784 1215 c 0,66,67
 742 1258 742 1258 677 1258 c 2,68,-1
 640 1258 l 1,69,70
 637 1224 637 1224 637 1190 c 2,71,-1
 637 972 l 1,60,-1
EndSplineSet
Validated: 1
EndChar

StartChar: macron
Encoding: 175 175 111
Width: 640
GlyphClass: 2
Flags: W
HStem: 1308 114<54.6802 585.258>
VStem: 50 540
LayerCount: 2
Fore
SplineSet
50 1452 m 1,0,1
 200 1422 200 1422 320 1422 c 0,2,3
 438 1422 438 1422 590 1452 c 1,4,-1
 590 1278 l 1,5,6
 439 1308 439 1308 320 1308 c 0,7,8
 200 1308 200 1308 50 1278 c 1,9,-1
 50 1452 l 1,0,1
EndSplineSet
Validated: 1
EndChar

StartChar: degree
Encoding: 176 176 112
Width: 696
GlyphClass: 2
Flags: W
HStem: 944 90<243.479 451.904> 1439 91<244.342 451.908>
VStem: 50 133<1095.74 1376.38> 513 133<1095.77 1376.17>
LayerCount: 2
Fore
SplineSet
348 1530 m 0,0,1
 477 1530 477 1530 557 1452 c 0,2,3
 646 1366 646 1366 646 1237 c 128,-1,4
 646 1108 646 1108 557 1022 c 0,5,6
 476 944 476 944 348 944 c 0,7,8
 217 944 217 944 139 1022 c 0,9,10
 50 1108 50 1108 50 1237 c 0,11,12
 50 1367 50 1367 139 1452 c 0,13,14
 221 1530 221 1530 348 1530 c 0,0,1
348 1439 m 0,15,16
 278 1439 278 1439 229 1379 c 0,17,18
 183 1323 183 1323 183 1237 c 0,19,20
 183 1149 183 1149 229 1094 c 0,21,22
 279 1034 279 1034 348 1034 c 0,23,24
 418 1034 418 1034 467 1094 c 0,25,26
 513 1151 513 1151 513 1237 c 0,27,28
 513 1325 513 1325 467 1379 c 0,29,30
 416 1439 416 1439 348 1439 c 0,15,16
EndSplineSet
Validated: 1
EndChar

StartChar: plusminus
Encoding: 177 177 113
Width: 1133
GlyphClass: 2
Flags: W
HStem: 240 154<154.688 978.251> 804 154<154.688 490 644 978.251>
VStem: 490 154<468.688 804 958 1293.25>
LayerCount: 2
Fore
SplineSet
150 424 m 1,0,1
 300 394 300 394 450 394 c 2,2,-1
 683 394 l 2,3,4
 831 394 831 394 983 424 c 1,5,-1
 983 210 l 1,6,7
 832 240 832 240 683 240 c 2,8,-1
 450 240 l 2,9,10
 300 240 300 240 150 210 c 1,11,-1
 150 424 l 1,0,1
460 1298 m 1,12,-1
 674 1298 l 1,13,14
 644 1146 644 1146 644 998 c 2,15,-1
 644 958 l 1,16,-1
 683 958 l 2,17,18
 831 958 831 958 983 988 c 1,19,-1
 983 774 l 1,20,21
 832 804 832 804 683 804 c 2,22,-1
 644 804 l 1,23,-1
 644 764 l 2,24,25
 644 614 644 614 674 464 c 1,26,-1
 460 464 l 1,27,28
 490 614 490 614 490 764 c 2,29,-1
 490 804 l 1,30,-1
 450 804 l 2,31,32
 300 804 300 804 150 774 c 1,33,-1
 150 988 l 1,34,35
 300 958 300 958 450 958 c 2,36,-1
 490 958 l 1,37,-1
 490 998 l 2,38,39
 490 1146 490 1146 460 1298 c 1,12,-1
EndSplineSet
Validated: 1
EndChar

StartChar: uni00B2
Encoding: 178 178 114
Width: 633
GlyphClass: 2
Flags: W
HStem: 853 117<205 580.436> 1536 102<170.303 388.64>
VStem: 93 10<1394 1402.74> 423 157<1283.95 1497.59>
LayerCount: 2
Fore
SplineSet
320 1638 m 0,0,1
 422 1638 422 1638 495 1580 c 0,2,3
 580 1512 580 1512 580 1398 c 0,4,5
 580 1246 580 1246 378 1128 c 0,6,7
 245 1050 245 1050 205 970 c 1,8,-1
 413 970 l 2,9,10
 501 970 501 970 583 989 c 1,11,-1
 583 853 l 1,12,-1
 50 853 l 1,13,14
 78 1056 78 1056 319 1230 c 0,15,16
 423 1305 423 1305 423 1396 c 0,17,18
 423 1456 423 1456 389 1493 c 0,19,20
 348 1536 348 1536 282 1536 c 0,21,22
 169 1536 169 1536 103 1394 c 1,23,-1
 93 1394 l 1,24,-1
 93 1577 l 1,25,26
 191 1638 191 1638 320 1638 c 0,0,1
EndSplineSet
Validated: 1
EndChar

StartChar: uni00B3
Encoding: 179 179 115
Width: 612
GlyphClass: 2
Flags: W
HStem: 843 103<137.16 365.908> 1526 102<98.4409 351>
VStem: 402 160<987.37 1209.45>
DStem2: 186 1303 348 1329 0.594796 0.803876<117.258 276.744>
LayerCount: 2
Fore
SplineSet
96 1628 m 1,0,-1
 502 1628 l 1,1,-1
 518 1539 l 1,2,3
 465 1491 465 1491 413 1419 c 2,4,-1
 348 1329 l 1,5,6
 425 1319 425 1319 478 1278 c 0,7,8
 562 1215 562 1215 562 1095 c 0,9,10
 562 996 562 996 478 919 c 0,11,12
 396 843 396 843 252 843 c 0,13,14
 143 843 143 843 50 904 c 1,15,-1
 50 1088 l 1,16,-1
 60 1088 l 1,17,18
 137 946 137 946 263 946 c 0,19,20
 325 946 325 946 367 991 c 0,21,22
 402 1030 402 1030 402 1098 c 0,23,24
 402 1174 402 1174 363 1208 c 0,25,26
 315 1250 315 1250 225 1250 c 1,27,-1
 186 1303 l 1,28,-1
 351 1526 l 1,29,-1
 266 1526 l 2,30,31
 174 1526 174 1526 96 1507 c 1,32,-1
 96 1628 l 1,0,-1
EndSplineSet
Validated: 1
EndChar

StartChar: acute
Encoding: 180 180 116
Width: 479
GlyphClass: 2
Flags: W
HStem: 1200 330
VStem: 207 222<1433.33 1530>
LayerCount: 2
Fore
SplineSet
429 1530 m 1,0,-1
 429 1520 l 1,1,2
 361 1345 361 1345 173 1200 c 1,3,-1
 50 1200 l 17,4,-1
 50 1210 l 1,5,6
 207 1366 207 1366 207 1530 c 1,7,-1
 429 1530 l 1,0,-1
EndSplineSet
Validated: 1
EndChar

StartChar: uni00B5
Encoding: 181 181 117
Width: 1341
GlyphClass: 2
Flags: W
HStem: -410 21G<177 408> -20 115<510.397 819.656> 0 21G<938 1169>
VStem: 200 180<-405.745 40 231.332 1089.37> 966 175<232.326 1089.34>
LayerCount: 2
Fore
SplineSet
1169 0 m 1,0,-1
 938 0 l 1,1,2
 955 71 955 71 962 137 c 1,3,4
 829 -20 829 -20 617 -20 c 0,5,6
 477 -20 477 -20 380 40 c 1,7,-1
 380 -116 l 2,8,9
 380 -274 380 -274 408 -410 c 1,10,-1
 177 -410 l 1,11,12
 200 -300 200 -300 200 -117 c 2,13,-1
 200 797 l 2,14,15
 200 946 200 946 172 1094 c 1,16,-1
 407 1140 l 1,17,18
 380 1000 380 1000 380 847 c 10,19,-1
 380 458 l 2,20,21
 380 303 380 303 426 229 c 0,22,23
 509 95 509 95 673 95 c 0,24,25
 834 95 834 95 921 229 c 0,26,27
 966 298 966 298 966 458 c 2,28,-1
 966 796 l 2,29,30
 966 945 966 945 938 1094 c 1,31,-1
 1168 1140 l 1,32,33
 1141 998 1141 998 1141 847 c 2,34,-1
 1141 295 l 2,35,36
 1141 139 1141 139 1169 0 c 1,0,-1
EndSplineSet
Validated: 1
EndChar

StartChar: paragraph
Encoding: 182 182 118
Width: 1113
GlyphClass: 2
Flags: W
HStem: 0 21G<683 781 847 943> 705 815<358.808 710.652> 1446 64<781 847>
VStem: 150 631<915.156 1307.81> 713 68<4.6875 740> 847 66<4.6875 1444.38>
LayerCount: 2
Fore
SplineSet
683 0 m 1,0,1
 713 150 713 150 713 300 c 2,2,-1
 713 740 l 1,3,4
 638 705 638 705 547 705 c 0,5,6
 374 705 374 705 262 820 c 0,7,8
 150 936 150 936 150 1110 c 0,9,10
 150 1287 150 1287 262 1404 c 0,11,12
 373 1520 373 1520 547 1520 c 0,13,14
 596 1520 596 1520 640 1510 c 1,15,-1
 943 1510 l 1,16,17
 913 1360 913 1360 913 1210 c 2,18,-1
 913 300 l 2,19,20
 913 150 913 150 943 0 c 1,21,-1
 847 0 l 1,22,-1
 847 1446 l 1,23,-1
 781 1446 l 1,24,-1
 781 0 l 1,25,-1
 683 0 l 1,0,1
EndSplineSet
Validated: 1
EndChar

StartChar: periodcentered
Encoding: 183 183 119
Width: 660
GlyphClass: 2
Flags: W
HStem: 624 264<239.191 420.809>
VStem: 200 260<663.707 848.293>
LayerCount: 2
Fore
SplineSet
200 756 m 128,-1,1
 200 811 200 811 238 849.5 c 128,-1,2
 276 888 276 888 330 888 c 128,-1,3
 384 888 384 888 422 849.5 c 128,-1,4
 460 811 460 811 460 756 c 128,-1,5
 460 701 460 701 422 662.5 c 128,-1,6
 384 624 384 624 330 624 c 128,-1,7
 276 624 276 624 238 662.5 c 128,-1,0
 200 701 200 701 200 756 c 128,-1,1
EndSplineSet
Validated: 1
EndChar

StartChar: cedilla
Encoding: 184 184 120
Width: 376
GlyphClass: 2
Flags: W
HStem: -460 138<50 177.151> -137 137<81 174.71>
VStem: 81 94<-96.168 0> 195 131<-302.724 -160.771>
LayerCount: 2
Fore
SplineSet
81 0 m 1,0,-1
 175 0 l 1,1,-1
 175 -79 l 1,2,3
 326 -128 326 -128 326 -253 c 0,4,5
 326 -460 326 -460 50 -460 c 1,6,-1
 50 -322 l 1,7,8
 195 -322 195 -322 195 -234 c 0,9,10
 195 -158 195 -158 81 -137 c 1,11,-1
 81 0 l 1,0,-1
EndSplineSet
Validated: 1
EndChar

StartChar: uni00B9
Encoding: 185 185 121
Width: 468
GlyphClass: 2
Flags: W
VStem: 208 140<855.779 1492>
LayerCount: 2
Fore
SplineSet
368 1653 m 1,0,1
 348 1576 348 1576 348 1498 c 2,2,-1
 348 1023 l 2,3,4
 348 942 348 942 368 853 c 1,5,-1
 189 853 l 1,6,7
 208 925 208 925 208 1023 c 2,8,-1
 208 1492 l 17,9,-1
 115 1402 l 1,10,-1
 50 1477 l 1,11,-1
 204 1621 l 1,12,-1
 368 1653 l 1,0,1
EndSplineSet
Validated: 1
EndChar

StartChar: ordmasculine
Encoding: 186 186 122
Width: 704
GlyphClass: 2
Flags: W
HStem: 713 94<56.6875 647.251> 939 73<260.159 444.028> 1458 72<260.24 441.555>
VStem: 50 145<1075.09 1395.66> 509 145<1075.12 1394.71>
LayerCount: 2
Fore
SplineSet
352 1530 m 0,0,1
 478 1530 478 1530 563 1451 c 0,2,3
 654 1365 654 1365 654 1235 c 128,-1,4
 654 1105 654 1105 563 1018 c 0,5,6
 478 939 478 939 352 939 c 128,-1,7
 226 939 226 939 141 1018 c 0,8,9
 50 1105 50 1105 50 1235 c 128,-1,10
 50 1365 50 1365 141 1451 c 0,11,12
 227 1530 227 1530 352 1530 c 0,0,1
352 1458 m 0,13,14
 284 1458 284 1458 237 1397 c 24,15,16
 195 1342 195 1342 195 1235 c 0,17,18
 195 1130 195 1130 236 1075 c 0,19,20
 282 1012 282 1012 352 1012 c 0,21,22
 423 1012 423 1012 468 1075 c 24,23,24
 509 1132 509 1132 509 1235 c 0,25,26
 509 1343 509 1343 468 1395 c 0,27,28
 419 1458 419 1458 352 1458 c 0,13,14
52 837 m 1,29,30
 202 807 202 807 352 807 c 0,31,32
 500 807 500 807 652 837 c 1,33,-1
 652 683 l 1,34,35
 501 713 501 713 352 713 c 0,36,37
 202 713 202 713 52 683 c 1,38,-1
 52 837 l 1,29,30
EndSplineSet
Validated: 1
EndChar

StartChar: guillemotright
Encoding: 187 187 123
Width: 1310
GlyphClass: 2
Flags: W
VStem: 611 184<655 839> 1026 184<655 839>
DStem2: 795 747 397 1041 0.588499 -0.808498<-614.608 -108.284> 397 453 609 487 0.588499 0.808498<-142.687 363.637> 1210 747 812 1041 0.588499 -0.808498<-614.608 -108.284> 812 453 1024 487 0.588499 0.808498<-142.687 363.637>
LayerCount: 2
Fore
SplineSet
200 1270 m 1,0,-1
 461 1270 l 1,1,2
 524 1126 524 1126 609 1007 c 2,3,-1
 795 747 l 1,4,-1
 609 487 l 2,5,6
 524 368 524 368 461 224 c 1,7,-1
 200 224 l 1,8,9
 319 346 319 346 397 453 c 2,10,-1
 611 747 l 1,11,-1
 397 1041 l 2,12,13
 317 1151 317 1151 200 1270 c 1,0,-1
615 1270 m 1,14,-1
 876 1270 l 1,15,16
 939 1126 939 1126 1024 1007 c 2,17,-1
 1210 747 l 1,18,-1
 1024 487 l 2,19,20
 939 368 939 368 876 224 c 1,21,-1
 615 224 l 1,22,23
 734 346 734 346 812 453 c 2,24,-1
 1026 747 l 1,25,-1
 812 1041 l 2,26,27
 732 1151 732 1151 615 1270 c 1,14,-1
EndSplineSet
Validated: 1
EndChar

StartChar: onequarter
Encoding: 188 188 124
Width: 1546
GlyphClass: 2
Flags: W
HStem: 0 21G<262 504.5 1113 1291> 180 122<1273.25 1346> 180 102<900 1132 1272 1344.94> 1510 0G<365.5 458 942.5 1182>
VStem: 308 140<732.779 1369> 1132 140<2.87158 180 288 603>
DStem2: 851 387 900 282 0.585767 0.810479<-56.0018 339.139> 860 1225 1028 1251 0.417626 0.908619<-1265.13 296.199>
LayerCount: 2
Fore
SplineSet
468 1530 m 1,0,1
 448 1453 448 1453 448 1375 c 2,2,-1
 448 900 l 2,3,4
 448 819 448 819 468 730 c 1,5,-1
 289 730 l 1,6,7
 308 802 308 802 308 900 c 2,8,-1
 308 1369 l 17,9,-1
 215 1279 l 1,10,-1
 150 1354 l 1,11,-1
 304 1498 l 1,12,-1
 468 1530 l 1,0,1
1291 0 m 1,13,-1
 1113 0 l 1,14,15
 1132 92 1132 92 1132 170 c 10,16,-1
 1132 180 l 1,17,-1
 779 180 l 1,18,-1
 749 267 l 1,19,20
 802 320 802 320 851 387 c 10,21,-1
 1047 655 l 18,22,23
 1092 716 1092 716 1123 795 c 1,24,-1
 1291 826 l 1,25,26
 1272 725 1272 725 1272 625 c 2,27,-1
 1272 288 l 1,28,29
 1312 288 1312 288 1346 302 c 1,30,-1
 1346 180 l 1,31,-1
 1272 180 l 1,32,-1
 1272 170 l 18,33,34
 1272 86 1272 86 1291 0 c 1,13,-1
1132 282 m 1,35,-1
 1132 603 l 1,36,-1
 900 282 l 1,37,-1
 1132 282 l 1,35,-1
262 0 m 1,38,39
 350 116 350 116 416 259 c 10,40,-1
 860 1225 l 2,41,42
 925 1367 925 1367 960 1510 c 1,43,-1
 1182 1510 l 1,44,45
 1094 1394 1094 1394 1028 1251 c 2,46,-1
 584 285 l 2,47,48
 525 156 525 156 484 0 c 1,49,-1
 262 0 l 1,38,39
EndSplineSet
Validated: 1
EndChar

StartChar: onehalf
Encoding: 189 189 125
Width: 1616
GlyphClass: 2
Flags: W
HStem: 0 117<1038 1413.44> 683 102<1003.3 1221.64> 1510 0G<365.5 458 942.5 1182>
VStem: 308 140<732.779 1369> 926 10<541 549.736> 1256 157<430.946 644.585>
DStem2: 860 1225 1028 1251 0.417626 0.908619<-1265.13 296.199>
LayerCount: 2
Fore
SplineSet
1153 785 m 0,0,1
 1255 785 1255 785 1328 727 c 0,2,3
 1413 659 1413 659 1413 545 c 0,4,5
 1413 393 1413 393 1211 275 c 0,6,7
 1078 197 1078 197 1038 117 c 1,8,-1
 1246 117 l 2,9,10
 1334 117 1334 117 1416 136 c 1,11,-1
 1416 0 l 1,12,-1
 883 0 l 1,13,14
 911 203 911 203 1152 377 c 0,15,16
 1256 452 1256 452 1256 543 c 0,17,18
 1256 603 1256 603 1222 640 c 0,19,20
 1181 683 1181 683 1115 683 c 0,21,22
 1002 683 1002 683 936 541 c 1,23,-1
 926 541 l 1,24,-1
 926 724 l 1,25,26
 1024 785 1024 785 1153 785 c 0,0,1
468 1530 m 1,27,28
 448 1453 448 1453 448 1375 c 2,29,-1
 448 900 l 2,30,31
 448 819 448 819 468 730 c 1,32,-1
 289 730 l 1,33,34
 308 802 308 802 308 900 c 2,35,-1
 308 1369 l 17,36,-1
 215 1279 l 1,37,-1
 150 1354 l 1,38,-1
 304 1498 l 1,39,-1
 468 1530 l 1,27,28
262 0 m 1,40,41
 351 117 351 117 416 259 c 10,42,-1
 860 1225 l 2,43,44
 925 1367 925 1367 960 1510 c 1,45,-1
 1182 1510 l 1,46,47
 1093 1393 1093 1393 1028 1251 c 2,48,-1
 584 285 l 2,49,50
 525 156 525 156 484 0 c 1,51,-1
 262 0 l 1,40,41
EndSplineSet
Validated: 1
EndChar

StartChar: threequarters
Encoding: 190 190 126
Width: 1609
GlyphClass: 2
Flags: W
HStem: 0 21G<326 568.5 1176 1354> 180 122<1336.25 1409> 180 102<963 1195 1335 1407.94> 735 103<237.16 465.908> 1418 102<198.441 451>
VStem: 502 160<879.37 1101.45> 1195 140<2.87158 180 288 603>
DStem2: 286 1195 448 1221 0.594796 0.803876<117.258 276.744> 914 387 963 282 0.585767 0.810479<-56.0018 339.139> 924 1225 1092 1251 0.417626 0.908619<-1265.13 296.199>
LayerCount: 2
Fore
SplineSet
196 1520 m 1,0,-1
 602 1520 l 1,1,-1
 618 1431 l 1,2,3
 565 1383 565 1383 513 1311 c 2,4,-1
 448 1221 l 1,5,6
 525 1211 525 1211 578 1170 c 0,7,8
 662 1107 662 1107 662 987 c 0,9,10
 662 888 662 888 578 811 c 0,11,12
 496 735 496 735 352 735 c 0,13,14
 243 735 243 735 150 796 c 1,15,-1
 150 980 l 1,16,-1
 160 980 l 1,17,18
 237 838 237 838 363 838 c 0,19,20
 425 838 425 838 467 883 c 0,21,22
 502 922 502 922 502 990 c 0,23,24
 502 1066 502 1066 463 1100 c 0,25,26
 415 1142 415 1142 325 1142 c 1,27,-1
 286 1195 l 1,28,-1
 451 1418 l 1,29,-1
 366 1418 l 2,30,31
 274 1418 274 1418 196 1399 c 1,32,-1
 196 1520 l 1,0,-1
1354 0 m 1,33,-1
 1176 0 l 1,34,35
 1195 92 1195 92 1195 170 c 10,36,-1
 1195 180 l 1,37,-1
 842 180 l 1,38,-1
 812 267 l 1,39,40
 865 320 865 320 914 387 c 10,41,-1
 1110 655 l 18,42,43
 1155 716 1155 716 1186 795 c 1,44,-1
 1354 826 l 1,45,46
 1335 725 1335 725 1335 625 c 2,47,-1
 1335 288 l 1,48,49
 1375 288 1375 288 1409 302 c 1,50,-1
 1409 180 l 1,51,-1
 1335 180 l 1,52,-1
 1335 170 l 18,53,54
 1335 86 1335 86 1354 0 c 1,33,-1
1195 282 m 1,55,-1
 1195 603 l 1,56,-1
 963 282 l 1,57,-1
 1195 282 l 1,55,-1
326 0 m 1,58,59
 414 116 414 116 480 259 c 10,60,-1
 924 1225 l 2,61,62
 989 1367 989 1367 1024 1510 c 1,63,-1
 1246 1510 l 1,64,65
 1158 1394 1158 1394 1092 1251 c 2,66,-1
 648 285 l 2,67,68
 589 156 589 156 548 0 c 1,69,-1
 326 0 l 1,58,59
EndSplineSet
Validated: 1
EndChar

StartChar: questiondown
Encoding: 191 191 127
Width: 1194
GlyphClass: 2
Flags: W
HStem: -430 126<495.043 827.002> -41 20G<1014 1044> 856 264<582.191 763.809>
VStem: 150 211<-170.164 182.782> 543 260<895.707 1080.29> 619 116<579.102 740>
LayerCount: 2
Fore
SplineSet
640 -430 m 0,0,1
 404 -430 404 -430 275 -307 c 0,2,3
 150 -188 150 -188 150 0 c 0,4,5
 150 258 150 258 414 424 c 0,6,7
 619 553 619 553 619 740 c 1,8,-1
 735 740 l 1,9,10
 735 466 735 466 510 298 c 0,11,12
 361 186 361 186 361 18 c 0,13,14
 361 -129 361 -129 436 -212 c 0,15,16
 519 -304 519 -304 659 -304 c 0,17,18
 819 -304 819 -304 941 -168 c 0,19,20
 994 -109 994 -109 1034 -21 c 1,21,-1
 1044 -21 l 1,22,-1
 1044 -312 l 1,23,24
 850 -430 850 -430 640 -430 c 0,0,1
673 1120 m 128,-1,26
 727 1120 727 1120 765 1081.5 c 128,-1,27
 803 1043 803 1043 803 988 c 128,-1,28
 803 933 803 933 765 894.5 c 128,-1,29
 727 856 727 856 673 856 c 128,-1,30
 619 856 619 856 581 894.5 c 128,-1,31
 543 933 543 933 543 988 c 128,-1,32
 543 1043 543 1043 581 1081.5 c 128,-1,25
 619 1120 619 1120 673 1120 c 128,-1,26
EndSplineSet
Validated: 1
EndChar

StartChar: multiply
Encoding: 215 215 128
Width: 1040
GlyphClass: 2
Flags: W
HStem: 1095 20G<281 344 696 759>
DStem2: 383 717 492 608 0.707107 0.707107<-295.129 39.598 193.747 528.409> 520 854 411 745 0.707107 -0.707107<-334.661 0 154.149 488.876>
LayerCount: 2
Fore
SplineSet
150 964 m 1,0,-1
 301 1115 l 1,1,2
 387 987 387 987 492 882 c 2,3,-1
 520 854 l 1,4,-1
 548 882 l 2,5,6
 653 986 653 986 739 1115 c 1,7,-1
 890 964 l 1,8,9
 762 878 762 878 657 773 c 2,10,-1
 629 745 l 1,11,-1
 657 717 l 2,12,13
 763 611 763 611 890 526 c 1,14,-1
 739 375 l 1,15,16
 654 502 654 502 548 608 c 2,17,-1
 520 636 l 1,18,-1
 492 608 l 2,19,20
 386 502 386 502 301 375 c 1,21,-1
 150 526 l 1,22,23
 277 611 277 611 383 717 c 2,24,-1
 411 745 l 1,25,-1
 383 773 l 2,26,27
 279 878 279 878 150 964 c 1,0,-1
EndSplineSet
Validated: 1
EndChar

StartChar: Oslash
Encoding: 216 216 129
Width: 1726
GlyphClass: 2
Flags: W
HStem: -20 126<652.092 1072.4> 1404 126<652.315 1075.39>
VStem: 100 225<479.546 1030.45> 1401 225<480.034 1029.97>
DStem2: 296 38 377 -20 0.573794 0.819<0 138.669 309.342 1517.59 1685.25 1821.93>
LayerCount: 2
Fore
SplineSet
862 -20 m 0,0,1
 635 -20 635 -20 455 92 c 1,2,-1
 377 -20 l 1,3,-1
 296 38 l 1,4,-1
 374 149 l 1,5,6
 354 165 354 165 335 183 c 0,7,8
 100 399 100 399 100 755 c 128,-1,9
 100 1111 100 1111 335 1327 c 0,10,11
 556 1530 556 1530 862 1530 c 0,12,13
 1087 1530 1087 1530 1265 1421 c 1,14,-1
 1342 1530 l 1,15,-1
 1423 1473 l 1,16,-1
 1346 1364 l 1,17,18
 1368 1347 1368 1347 1389 1327 c 0,19,20
 1626 1109 1626 1109 1626 755 c 128,-1,21
 1626 401 1626 401 1389 183 c 0,22,23
 1168 -20 1168 -20 862 -20 c 0,0,1
862 106 m 0,24,25
 1110 106 1110 106 1264 306 c 0,26,27
 1401 484 1401 484 1401 755 c 128,-1,28
 1401 1026 1401 1026 1264 1204 c 0,29,30
 1256 1214 1256 1214 1248 1224 c 1,31,-1
 544 219 l 1,32,33
 677 106 677 106 862 106 c 0,24,25
474 291 m 1,34,-1
 1177 1295 l 1,35,36
 1045 1404 1045 1404 862 1404 c 0,37,38
 616 1404 616 1404 462 1204 c 0,39,40
 325 1026 325 1026 325 755 c 128,-1,41
 325 484 325 484 462 306 c 0,42,43
 468 298 468 298 474 291 c 1,34,-1
EndSplineSet
Validated: 1
EndChar

StartChar: divide
Encoding: 247 247 130
Width: 1133
GlyphClass: 2
Flags: W
HStem: 181 264<468.191 649.809> 668 154<154.688 978.251> 1024 264<483.191 664.809>
VStem: 429 260<220.707 405.293> 444 260<1063.71 1248.29>
LayerCount: 2
Fore
SplineSet
150 852 m 1,0,1
 300 822 300 822 450 822 c 2,2,-1
 683 822 l 2,3,4
 831 822 831 822 983 852 c 1,5,-1
 983 638 l 1,6,7
 832 668 832 668 683 668 c 2,8,-1
 450 668 l 2,9,10
 300 668 300 668 150 638 c 1,11,-1
 150 852 l 1,0,1
429 313 m 128,-1,13
 429 368 429 368 467 406.5 c 128,-1,14
 505 445 505 445 559 445 c 128,-1,15
 613 445 613 445 651 406.5 c 128,-1,16
 689 368 689 368 689 313 c 128,-1,17
 689 258 689 258 651 219.5 c 128,-1,18
 613 181 613 181 559 181 c 128,-1,19
 505 181 505 181 467 219.5 c 128,-1,12
 429 258 429 258 429 313 c 128,-1,13
444 1156 m 128,-1,21
 444 1211 444 1211 482 1249.5 c 128,-1,22
 520 1288 520 1288 574 1288 c 128,-1,23
 628 1288 628 1288 666 1249.5 c 128,-1,24
 704 1211 704 1211 704 1156 c 128,-1,25
 704 1101 704 1101 666 1062.5 c 128,-1,26
 628 1024 628 1024 574 1024 c 128,-1,27
 520 1024 520 1024 482 1062.5 c 128,-1,20
 444 1101 444 1101 444 1156 c 128,-1,21
EndSplineSet
Validated: 1
EndChar

StartChar: oslash
Encoding: 248 248 131
Width: 1328
GlyphClass: 2
Flags: W
HStem: -20 103<495.321 831.534> 1017 103<496.712 830.367>
VStem: 100 210<318.387 782.869> 1018 210<317.592 782.537>
DStem2: 235 37 318 -20 0.579457 0.815003<1.63979 99.9479 251.676 1082.98 1236.42 1328.83>
LayerCount: 2
Fore
SplineSet
664 -20 m 0,0,1
 500 -20 500 -20 372 56 c 1,2,-1
 318 -20 l 1,3,-1
 235 37 l 1,4,-1
 291 116 l 1,5,6
 285 122 285 122 278 128 c 0,7,8
 100 295 100 295 100 550 c 128,-1,9
 100 805 100 805 278 972 c 0,10,11
 436 1120 436 1120 664 1120 c 0,12,13
 826 1120 826 1120 952 1046 c 1,14,-1
 1005 1120 l 1,15,-1
 1088 1063 l 1,16,-1
 1034 986 l 1,17,18
 1042 979 1042 979 1050 972 c 0,19,20
 1228 805 1228 805 1228 550 c 128,-1,21
 1228 295 1228 295 1050 128 c 0,22,23
 892 -20 892 -20 664 -20 c 0,0,1
664 83 m 0,24,25
 831 83 831 83 934 223 c 0,26,27
 1018 338 1018 338 1018 550 c 0,28,29
 1018 748 1018 748 945 861 c 1,30,-1
 448 163 l 1,31,32
 538 83 538 83 664 83 c 0,24,25
381 242 m 1,33,-1
 877 940 l 1,34,35
 788 1017 788 1017 664 1017 c 0,36,37
 498 1017 498 1017 394 877 c 0,38,39
 310 764 310 764 310 550 c 0,40,41
 310 353 310 353 381 242 c 1,33,-1
EndSplineSet
Validated: 1
EndChar

StartChar: endash
Encoding: 8211 8211 132
Width: 1233
GlyphClass: 2
Flags: W
HStem: 668 154<204.688 1028.25>
LayerCount: 2
Fore
SplineSet
200 852 m 1,0,1
 350 822 350 822 500 822 c 2,2,-1
 733 822 l 2,3,4
 881 822 881 822 1033 852 c 1,5,-1
 1033 638 l 1,6,7
 882 668 882 668 733 668 c 2,8,-1
 500 668 l 2,9,10
 350 668 350 668 200 638 c 1,11,-1
 200 852 l 1,0,1
EndSplineSet
Validated: 1
EndChar

StartChar: emdash
Encoding: 8212 8212 133
Width: 1533
GlyphClass: 2
Flags: W
HStem: 668 154<204.688 1328.25>
LayerCount: 2
Fore
SplineSet
200 852 m 1,0,1
 350 822 350 822 500 822 c 2,2,-1
 1033 822 l 2,3,4
 1181 822 1181 822 1333 852 c 1,5,-1
 1333 638 l 1,6,7
 1182 668 1182 668 1033 668 c 2,8,-1
 500 668 l 2,9,10
 350 668 350 668 200 638 c 1,11,-1
 200 852 l 1,0,1
EndSplineSet
Validated: 1
EndChar

StartChar: afii00208
Encoding: 8213 8213 134
Width: 1533
GlyphClass: 2
Flags: W
HStem: 668 154<204.688 1328.25>
LayerCount: 2
Fore
SplineSet
200 852 m 1,0,1
 350 822 350 822 500 822 c 2,2,-1
 1033 822 l 2,3,4
 1181 822 1181 822 1333 852 c 1,5,-1
 1333 638 l 1,6,7
 1182 668 1182 668 1033 668 c 2,8,-1
 500 668 l 2,9,10
 350 668 350 668 200 638 c 1,11,-1
 200 852 l 1,0,1
EndSplineSet
Validated: 1
EndChar

StartChar: quoteleft
Encoding: 8216 8216 135
Width: 378
GlyphClass: 2
Flags: W
HStem: 978 572
VStem: 50 171<1162.99 1370.37>
LayerCount: 2
Fore
SplineSet
328 1550 m 1,0,-1
 328 1540 l 1,1,2
 221 1420 221 1420 221 1282 c 0,3,4
 221 1184 221 1184 313 1118 c 1,5,-1
 173 978 l 1,6,7
 50 1078 50 1078 50 1213 c 0,8,9
 50 1435 50 1435 328 1550 c 1,0,-1
EndSplineSet
Validated: 1
EndChar

StartChar: quoteright
Encoding: 8217 8217 136
Width: 378
GlyphClass: 2
Flags: W
HStem: 978 572
VStem: 157 171<1157.63 1365.01>
LayerCount: 2
Fore
SplineSet
205 1550 m 1,0,1
 328 1450 328 1450 328 1315 c 0,2,3
 328 1093 328 1093 50 978 c 1,4,-1
 50 988 l 1,5,6
 157 1108 157 1108 157 1246 c 0,7,8
 157 1344 157 1344 65 1410 c 1,9,-1
 205 1550 l 1,0,1
EndSplineSet
Validated: 1
EndChar

StartChar: quotesinglbase
Encoding: 8218 8218 137
Width: 378
GlyphClass: 2
Flags: W
HStem: -292 572
VStem: 157 171<-112.368 95.0098>
LayerCount: 2
Fore
SplineSet
205 280 m 1,0,1
 328 180 328 180 328 45 c 0,2,3
 328 -177 328 -177 50 -292 c 1,4,-1
 50 -282 l 1,5,6
 157 -162 157 -162 157 -24 c 0,7,8
 157 74 157 74 65 140 c 1,9,-1
 205 280 l 1,0,1
EndSplineSet
Validated: 1
EndChar

StartChar: quotereversed
Encoding: 8219 8219 138
Width: 378
GlyphClass: 2
Flags: W
HStem: 978 572
VStem: 50 171<1157.63 1365.01>
LayerCount: 2
Fore
SplineSet
173 1550 m 1,0,1
 313 1410 l 1,2,3
 221 1344 221 1344 221 1246 c 0,4,5
 221 1108 221 1108 328 988 c 1,6,-1
 328 978 l 1,7,8
 50 1093 50 1093 50 1315 c 0,9,10
 50 1450 50 1450 173 1550 c 1,0,1
EndSplineSet
Validated: 1
EndChar

StartChar: quotedblleft
Encoding: 8220 8220 139
Width: 672
GlyphClass: 2
Flags: W
HStem: 978 572
VStem: 50 171<1162.99 1370.37> 344 171<1162.99 1370.37>
LayerCount: 2
Fore
SplineSet
328 1550 m 1,0,-1
 328 1540 l 1,1,2
 221 1420 221 1420 221 1282 c 0,3,4
 221 1184 221 1184 313 1118 c 1,5,-1
 173 978 l 1,6,7
 50 1078 50 1078 50 1213 c 0,8,9
 50 1435 50 1435 328 1550 c 1,0,-1
622 1550 m 1,10,-1
 622 1540 l 1,11,12
 515 1420 515 1420 515 1282 c 0,13,14
 515 1184 515 1184 607 1118 c 1,15,-1
 467 978 l 1,16,17
 344 1078 344 1078 344 1213 c 0,18,19
 344 1435 344 1435 622 1550 c 1,10,-1
EndSplineSet
Validated: 1
EndChar

StartChar: quotedblright
Encoding: 8221 8221 140
Width: 672
GlyphClass: 2
Flags: W
HStem: 978 572
VStem: 157 171<1157.63 1365.01> 451 171<1157.63 1365.01>
LayerCount: 2
Fore
SplineSet
499 1550 m 1,0,1
 622 1450 622 1450 622 1315 c 0,2,3
 622 1093 622 1093 344 978 c 1,4,-1
 344 988 l 1,5,6
 451 1108 451 1108 451 1246 c 0,7,8
 451 1344 451 1344 359 1410 c 1,9,-1
 499 1550 l 1,0,1
205 1550 m 1,10,11
 328 1450 328 1450 328 1315 c 0,12,13
 328 1093 328 1093 50 978 c 1,14,-1
 50 988 l 1,15,16
 157 1108 157 1108 157 1246 c 0,17,18
 157 1344 157 1344 65 1410 c 1,19,-1
 205 1550 l 1,10,11
EndSplineSet
Validated: 1
EndChar

StartChar: quotedblbase
Encoding: 8222 8222 141
Width: 672
GlyphClass: 2
Flags: W
HStem: -292 572
VStem: 157 171<-112.368 95.0098> 451 171<-112.368 95.0098>
LayerCount: 2
Fore
SplineSet
499 280 m 1,0,1
 622 180 622 180 622 45 c 0,2,3
 622 -177 622 -177 344 -292 c 1,4,-1
 344 -282 l 1,5,6
 451 -162 451 -162 451 -24 c 0,7,8
 451 74 451 74 359 140 c 1,9,-1
 499 280 l 1,0,1
205 280 m 1,10,11
 328 180 328 180 328 45 c 0,12,13
 328 -177 328 -177 50 -292 c 1,14,-1
 50 -282 l 1,15,16
 157 -162 157 -162 157 -24 c 0,17,18
 157 74 157 74 65 140 c 1,19,-1
 205 280 l 1,10,11
EndSplineSet
Validated: 1
EndChar

StartChar: dagger
Encoding: 8224 8224 142
Width: 1133
GlyphClass: 2
Flags: W
HStem: 0 21G<456 676> 1014 154<154.688 486 646 978.251> 1490 20G<456 676>
VStem: 486 160<4.6875 1014 1168 1505.28>
LayerCount: 2
Fore
SplineSet
456 0 m 1,0,1
 486 150 486 150 486 300 c 2,2,-1
 486 1014 l 1,3,-1
 450 1014 l 2,4,5
 300 1014 300 1014 150 984 c 1,6,-1
 150 1198 l 1,7,8
 300 1168 300 1168 450 1168 c 2,9,-1
 486 1168 l 1,10,-1
 486 1210 l 2,11,12
 486 1359 486 1359 456 1510 c 1,13,-1
 676 1510 l 1,14,15
 646 1359 646 1359 646 1210 c 2,16,-1
 646 1168 l 1,17,-1
 683 1168 l 2,18,19
 831 1168 831 1168 983 1198 c 1,20,-1
 983 984 l 1,21,22
 832 1014 832 1014 683 1014 c 2,23,-1
 646 1014 l 1,24,-1
 646 300 l 2,25,26
 646 150 646 150 676 0 c 1,27,-1
 456 0 l 1,0,1
EndSplineSet
Validated: 1
EndChar

StartChar: daggerdbl
Encoding: 8225 8225 143
Width: 1133
GlyphClass: 2
Flags: W
HStem: 0 21G<456 677> 342 154<154.749 486 647 978.312> 1014 154<154.688 486 647 978.251> 1490 20G<456 677>
VStem: 486 161<4.71826 342 496 1014 1168 1505.28>
LayerCount: 2
Fore
SplineSet
456 0 m 1,0,1
 486 150 486 150 486 300 c 2,2,-1
 486 342 l 1,3,-1
 450 342 l 2,4,5
 302 342 302 342 150 312 c 1,6,-1
 150 526 l 1,7,8
 301 496 301 496 450 496 c 2,9,-1
 486 496 l 1,10,-1
 486 1014 l 1,11,-1
 450 1014 l 2,12,13
 300 1014 300 1014 150 984 c 1,14,-1
 150 1198 l 1,15,16
 300 1168 300 1168 450 1168 c 2,17,-1
 486 1168 l 1,18,-1
 486 1210 l 2,19,20
 486 1359 486 1359 456 1510 c 1,21,-1
 677 1510 l 1,22,23
 647 1360 647 1360 647 1210 c 2,24,-1
 647 1168 l 1,25,-1
 683 1168 l 2,26,27
 831 1168 831 1168 983 1198 c 1,28,-1
 983 984 l 1,29,30
 832 1014 832 1014 683 1014 c 2,31,-1
 647 1014 l 1,32,-1
 647 496 l 1,33,-1
 683 496 l 2,34,35
 833 496 833 496 983 526 c 1,36,-1
 983 312 l 1,37,38
 833 342 833 342 683 342 c 2,39,-1
 647 342 l 1,40,-1
 647 300 l 2,41,42
 647 151 647 151 677 0 c 1,43,-1
 456 0 l 1,0,1
EndSplineSet
Validated: 1
EndChar

StartChar: bullet
Encoding: 8226 8226 144
Width: 962
GlyphClass: 2
Flags: W
HStem: 415 680<317.963 644.252>
VStem: 150 662<584.932 924.627>
LayerCount: 2
Fore
SplineSet
481 415 m 0,0,1
 342 415 342 415 246 515 c 128,-1,2
 150 615 150 615 150 755 c 0,3,4
 150 894 150 894 247 995 c 0,5,6
 343 1095 343 1095 481 1095 c 0,7,8
 620 1095 620 1095 716 995 c 128,-1,9
 812 895 812 895 812 755 c 128,-1,10
 812 615 812 615 715.5 515 c 128,-1,11
 619 415 619 415 481 415 c 0,0,1
EndSplineSet
Validated: 1
EndChar

StartChar: ellipsis
Encoding: 8230 8230 145
Width: 1190
GlyphClass: 2
Flags: W
HStem: -20 264<89.1914 270.809 505.191 686.809 919.191 1100.81>
VStem: 50 260<19.7072 204.293> 466 260<19.7072 204.293> 880 260<19.7072 204.293>
LayerCount: 2
Fore
SplineSet
1010 -20 m 128,-1,1
 956 -20 956 -20 918 18.5 c 128,-1,2
 880 57 880 57 880 112 c 128,-1,3
 880 167 880 167 918 205.5 c 128,-1,4
 956 244 956 244 1010 244 c 128,-1,5
 1064 244 1064 244 1102 205.5 c 128,-1,6
 1140 167 1140 167 1140 112 c 128,-1,7
 1140 57 1140 57 1102 18.5 c 128,-1,0
 1064 -20 1064 -20 1010 -20 c 128,-1,1
596 -20 m 128,-1,9
 542 -20 542 -20 504 18.5 c 128,-1,10
 466 57 466 57 466 112 c 128,-1,11
 466 167 466 167 504 205.5 c 128,-1,12
 542 244 542 244 596 244 c 128,-1,13
 650 244 650 244 688 205.5 c 128,-1,14
 726 167 726 167 726 112 c 128,-1,15
 726 57 726 57 688 18.5 c 128,-1,8
 650 -20 650 -20 596 -20 c 128,-1,9
180 -20 m 128,-1,17
 126 -20 126 -20 88 18.5 c 128,-1,18
 50 57 50 57 50 112 c 128,-1,19
 50 167 50 167 88 205.5 c 128,-1,20
 126 244 126 244 180 244 c 128,-1,21
 234 244 234 244 272 205.5 c 128,-1,22
 310 167 310 167 310 112 c 128,-1,23
 310 57 310 57 272 18.5 c 128,-1,16
 234 -20 234 -20 180 -20 c 128,-1,17
EndSplineSet
Validated: 1
EndChar

StartChar: perthousand
Encoding: 8240 8240 146
Width: 2369
GlyphClass: 2
Flags: W
HStem: -20 100<1055.34 1275.73 1778.34 1998.73> 0 21G<370 612.5> 529 101<1054.51 1275.67 1777.51 1998.67> 880 100<371.338 591.732> 1429 101<370.512 591.671> 1490 20G<1050.5 1290>
VStem: 150 148<1054.57 1355.12> 664 148<1054.68 1355.24> 834 148<154.567 455.12> 1348 148<154.684 455.237> 1557 148<154.567 455.12> 2071 148<154.684 455.237>
DStem2: 968 1225 1136 1251 0.417626 0.908619<-1265.13 296.199>
LayerCount: 2
Fore
SplineSet
1888 -20 m 0,0,1
 1742 -20 1742 -20 1656 66 c 0,2,3
 1557 162 1557 162 1557 305 c 0,4,5
 1557 449 1557 449 1656 544 c 0,6,7
 1747 630 1747 630 1888 630 c 0,8,9
 2031 630 2031 630 2120 544 c 0,10,11
 2219 449 2219 449 2219 305 c 0,12,13
 2219 162 2219 162 2120 66 c 0,14,15
 2030 -20 2030 -20 1888 -20 c 0,0,1
1888 80 m 0,16,17
 1966 80 1966 80 2020 146 c 0,18,19
 2071 209 2071 209 2071 305 c 0,20,21
 2071 403 2071 403 2020 463 c 0,22,23
 1964 529 1964 529 1888 529 c 0,24,25
 1810 529 1810 529 1756 463 c 0,26,27
 1705 401 1705 401 1705 305 c 0,28,29
 1705 207 1705 207 1756 146 c 0,30,31
 1811 80 1811 80 1888 80 c 0,16,17
1165 -20 m 0,32,33
 1019 -20 1019 -20 933 66 c 0,34,35
 834 162 834 162 834 305 c 0,36,37
 834 449 834 449 933 544 c 0,38,39
 1024 630 1024 630 1165 630 c 0,40,41
 1308 630 1308 630 1397 544 c 0,42,43
 1496 449 1496 449 1496 305 c 0,44,45
 1496 162 1496 162 1397 66 c 0,46,47
 1307 -20 1307 -20 1165 -20 c 0,32,33
1165 80 m 0,48,49
 1243 80 1243 80 1297 146 c 0,50,51
 1348 209 1348 209 1348 305 c 0,52,53
 1348 403 1348 403 1297 463 c 0,54,55
 1241 529 1241 529 1165 529 c 0,56,57
 1087 529 1087 529 1033 463 c 0,58,59
 982 401 982 401 982 305 c 0,60,61
 982 207 982 207 1033 146 c 0,62,63
 1088 80 1088 80 1165 80 c 0,48,49
481 1530 m 0,64,65
 624 1530 624 1530 713 1444 c 0,66,67
 812 1349 812 1349 812 1205 c 0,68,69
 812 1062 812 1062 713 966 c 0,70,71
 623 880 623 880 481 880 c 0,72,73
 335 880 335 880 249 966 c 0,74,75
 150 1062 150 1062 150 1205 c 0,76,77
 150 1349 150 1349 249 1444 c 0,78,79
 340 1530 340 1530 481 1530 c 0,64,65
481 1429 m 0,80,81
 403 1429 403 1429 349 1363 c 0,82,83
 298 1301 298 1301 298 1205 c 0,84,85
 298 1107 298 1107 349 1046 c 0,86,87
 404 980 404 980 481 980 c 0,88,89
 559 980 559 980 613 1046 c 0,90,91
 664 1109 664 1109 664 1205 c 0,92,93
 664 1303 664 1303 613 1363 c 0,94,95
 557 1429 557 1429 481 1429 c 0,80,81
370 0 m 1,96,97
 458 116 458 116 524 259 c 10,98,-1
 968 1225 l 2,99,100
 1033 1367 1033 1367 1068 1510 c 1,101,-1
 1290 1510 l 1,102,103
 1202 1394 1202 1394 1136 1251 c 2,104,-1
 692 285 l 2,105,106
 633 156 633 156 592 0 c 1,107,-1
 370 0 l 1,96,97
EndSplineSet
Validated: 1
EndChar

StartChar: minute
Encoding: 8242 8242 147
Width: 443
GlyphClass: 2
Flags: W
HStem: 1100 430<181.054 203.64>
VStem: 50 343
LayerCount: 2
Fore
SplineSet
183 1530 m 1,0,-1
 393 1530 l 1,1,2
 257 1317 257 1317 200 1100 c 9,3,-1
 50 1100 l 17,4,5
 153 1318 153 1318 183 1530 c 1,0,-1
EndSplineSet
Validated: 1
EndChar

StartChar: second
Encoding: 8243 8243 148
Width: 729
GlyphClass: 2
Flags: W
HStem: 1100 430<181.054 203.64 467.054 489.64>
VStem: 50 629
LayerCount: 2
Fore
SplineSet
469 1530 m 1,0,-1
 679 1530 l 1,1,2
 543 1317 543 1317 486 1100 c 9,3,-1
 336 1100 l 17,4,5
 439 1318 439 1318 469 1530 c 1,0,-1
183 1530 m 1,6,-1
 393 1530 l 1,7,8
 257 1317 257 1317 200 1100 c 9,9,-1
 50 1100 l 17,10,11
 153 1318 153 1318 183 1530 c 1,6,-1
EndSplineSet
Validated: 1
EndChar

StartChar: guilsinglleft
Encoding: 8249 8249 149
Width: 895
GlyphClass: 2
Flags: W
VStem: 100 184<655 839>
DStem2: 284 747 100 747 0.588499 -0.808498<0 506.324> 100 747 284 747 0.588499 0.808498<108.284 614.608>
LayerCount: 2
Fore
SplineSet
434 1270 m 1,0,-1
 695 1270 l 1,1,2
 578 1151 578 1151 498 1041 c 2,3,-1
 284 747 l 1,4,-1
 498 453 l 2,5,6
 576 346 576 346 695 224 c 1,7,-1
 434 224 l 1,8,9
 371 368 371 368 286 487 c 2,10,-1
 100 747 l 1,11,-1
 286 1007 l 2,12,13
 371 1126 371 1126 434 1270 c 1,0,-1
EndSplineSet
Validated: 1
EndChar

StartChar: guilsinglright
Encoding: 8250 8250 150
Width: 895
GlyphClass: 2
Flags: W
VStem: 611 184<655 839>
DStem2: 795 747 397 1041 0.588499 -0.808498<-614.608 -108.284> 397 453 609 487 0.588499 0.808498<-142.687 363.637>
LayerCount: 2
Fore
SplineSet
200 1270 m 1,0,-1
 461 1270 l 1,1,2
 524 1126 524 1126 609 1007 c 2,3,-1
 795 747 l 1,4,-1
 609 487 l 2,5,6
 524 368 524 368 461 224 c 1,7,-1
 200 224 l 1,8,9
 319 346 319 346 397 453 c 2,10,-1
 611 747 l 1,11,-1
 397 1041 l 2,12,13
 317 1151 317 1151 200 1270 c 1,0,-1
EndSplineSet
Validated: 1
EndChar

StartChar: fraction
Encoding: 8260 8260 151
Width: 940
GlyphClass: 2
Flags: W
HStem: 0 21G<10 252.5> 1490 20G<690.5 930>
DStem2: 608 1225 776 1251 0.417626 0.908619<-1265.13 296.199>
LayerCount: 2
Fore
SplineSet
10 0 m 1,0,1
 98 116 98 116 164 259 c 10,2,-1
 608 1225 l 2,3,4
 673 1367 673 1367 708 1510 c 1,5,-1
 930 1510 l 1,6,7
 842 1394 842 1394 776 1251 c 2,8,-1
 332 285 l 2,9,10
 273 156 273 156 232 0 c 1,11,-1
 10 0 l 1,0,1
EndSplineSet
Validated: 1
EndChar

StartChar: Euro
Encoding: 8364 8364 152
Width: 1727
GlyphClass: 2
Flags: W
HStem: -20 126<787.01 1232.81> 579 114<443 1078.25> 815 114<442 1078.25> 1404 126<787.506 1222.29>
VStem: 201 225<706 801.351>
LayerCount: 2
Fore
SplineSet
1014 -20 m 0,0,1
 658 -20 658 -20 437 183 c 0,2,3
 267 340 267 340 219 568 c 1,4,5
 160 561 160 561 100 549 c 1,6,-1
 100 723 l 1,7,8
 149 713 149 713 202 706 c 1,9,10
 201 730 201 730 201 755 c 0,11,12
 201 779 201 779 202 802 c 1,13,14
 149 795 149 795 100 785 c 1,15,-1
 100 959 l 1,16,17
 160 947 160 947 219 940 c 1,18,19
 266 1170 266 1170 437 1327 c 0,20,21
 658 1530 658 1530 1014 1530 c 0,22,23
 1291 1530 1291 1530 1507 1402 c 1,24,-1
 1507 1098 l 1,25,-1
 1497 1098 l 1,26,27
 1316 1404 1316 1404 1014 1404 c 0,28,29
 746 1404 746 1404 569 1198 c 0,30,31
 474 1088 474 1088 442 929 c 1,32,-1
 783 929 l 2,33,34
 931 929 931 929 1083 959 c 1,35,-1
 1083 785 l 1,36,37
 932 815 932 815 783 815 c 2,38,-1
 428 815 l 1,39,40
 426 786 426 786 426 756 c 0,41,42
 426 724 426 724 428 693 c 1,43,-1
 783 693 l 2,44,45
 931 693 931 693 1083 723 c 1,46,-1
 1083 549 l 1,47,48
 932 579 932 579 783 579 c 2,49,-1
 443 579 l 1,50,51
 475 422 475 422 569 312 c 0,52,53
 744 106 744 106 1014 106 c 0,54,55
 1325 106 1325 106 1517 412 c 1,56,-1
 1527 412 l 1,57,-1
 1527 168 l 1,58,59
 1314 -20 1314 -20 1014 -20 c 0,0,1
EndSplineSet
Validated: 1
EndChar

StartChar: afii61248
Encoding: 8453 8453 153
Width: 2007
GlyphClass: 2
Flags: W
HStem: -20 101<1322.36 1593.64> 0 21G<530 772.5> 690 103<1321.96 1593.83> 717 101<420.917 705.444> 1427 103<418.383 721.82> 1490 20G<1210.5 1450>
VStem: 150 150<948.725 1296.39> 1059 149<207.404 564.072> 1708 149<207.404 564.072>
DStem2: 1128 1225 1296 1251 0.417626 0.908619<-1265.1 296.171>
LayerCount: 2
Fore
SplineSet
1458 -20 m 128,-1,1
 1285 -20 1285 -20 1172 96 c 0,2,3
 1059 213 1059 213 1059 386 c 0,4,5
 1059 560 1059 560 1172 676 c 0,6,7
 1286 793 1286 793 1458 793 c 128,-1,8
 1630 793 1630 793 1744 676 c 0,9,10
 1857 560 1857 560 1857 386 c 0,11,12
 1857 213 1857 213 1744 96 c 0,13,0
 1631 -20 1631 -20 1458 -20 c 128,-1,1
1458 81 m 128,-1,15
 1571 81 1571 81 1643 175 c 0,16,17
 1708 261 1708 261 1708 386 c 0,18,19
 1708 508 1708 508 1643 596 c 0,20,21
 1573 690 1573 690 1458 690 c 0,22,23
 1342 690 1342 690 1273 596 c 0,24,25
 1208 508 1208 508 1208 386 c 0,26,27
 1208 261 1208 261 1273 175 c 0,28,14
 1345 81 1345 81 1458 81 c 128,-1,15
828 971 m 1,29,-1
 828 821 l 1,30,31
 729 717 729 717 568 717 c 0,32,33
 381 717 381 717 266 835 c 0,34,35
 150 956 150 956 150 1123 c 0,36,37
 150 1291 150 1291 266 1410 c 0,38,39
 383 1530 383 1530 567 1530 c 0,40,41
 721 1530 721 1530 815 1476 c 1,42,-1
 815 1281 l 1,43,-1
 805 1281 l 1,44,45
 794 1304 794 1304 773 1332 c 0,46,47
 702 1427 702 1427 567 1427 c 0,48,49
 439 1427 439 1427 368 1332 c 0,50,51
 300 1239 300 1239 300 1122 c 0,52,53
 300 1003 300 1003 368 913 c 0,54,55
 441 818 441 818 567 818 c 0,56,57
 703 818 703 818 818 971 c 1,58,-1
 828 971 l 1,29,-1
530 0 m 1,59,60
 618 116 618 116 684 259 c 10,61,-1
 1128 1225 l 2,62,63
 1193 1366 1193 1366 1228 1510 c 1,64,-1
 1450 1510 l 1,65,66
 1362 1394 1362 1394 1296 1251 c 2,67,-1
 852 285 l 2,68,69
 793 157 793 157 752 0 c 1,70,-1
 530 0 l 1,59,60
EndSplineSet
Validated: 1
EndChar

StartChar: afii61289
Encoding: 8467 8467 154
Width: 958
GlyphClass: 2
Flags: W
HStem: -20 136<458.002 574.715> 0 21G<50 263> 1510 20G<632 703>
VStem: 232 155<466 819.618> 655 153<1042.58 1357.48>
LayerCount: 2
Fore
SplineSet
387 466 m 1,0,1
 498 708 498 708 554 860 c 0,2,3
 655 1134 655 1134 655 1359 c 1,4,5
 563 1238 563 1238 503 1067 c 0,6,7
 387 740 387 740 387 466 c 1,0,1
50 0 m 1,8,9
 171 158 171 158 244 282 c 1,10,11
 232 366 232 366 232 443 c 0,12,13
 232 629 232 629 279 848 c 0,14,15
 367 1251 367 1251 517 1434 c 0,16,17
 595 1530 595 1530 669 1530 c 0,18,19
 737 1530 737 1530 772 1479 c 0,20,21
 808 1429 808 1429 808 1318 c 0,22,23
 808 1226 808 1226 778 1072 c 0,24,25
 708 722 708 722 422 271 c 1,26,27
 454 116 454 116 511 116 c 0,28,29
 535 116 535 116 562.5 145 c 128,-1,30
 590 174 590 174 616 228 c 1,31,-1
 792 228 l 1,32,33
 715 100 715 100 650.5 40 c 128,-1,34
 586 -20 586 -20 502 -20 c 0,35,36
 382 -20 382 -20 305 90 c 1,37,-1
 251 0 l 1,38,-1
 50 0 l 1,8,9
EndSplineSet
Validated: 1
EndChar

StartChar: trademark
Encoding: 8482 8482 155
Width: 1844
GlyphClass: 2
Flags: W
HStem: 1428 102<53.0562 267.569 408.323 621.913>
VStem: 268 140<757.47 1426.97> 760 143<1424.1 1530> 1429 144<1425.03 1530> 1475 91<860 1423>
DStem2: 724 920 834 924 0.0895267 0.995984<-48.849 369.275> 955 1376 866 1278 0.417276 -0.90878<51.9228 496.821> 1163 923 1272 909 0.425508 0.904954<1.82222 440.03> 1569 1365 1440 1279 0.0895267 -0.995984<74.1057 493.591>
LayerCount: 2
Fore
SplineSet
760 1530 m 1,0,-1
 903 1530 l 1,1,2
 920 1453 920 1453 955 1376 c 2,3,-1
 1163 923 l 1,4,-1
 1376 1376 l 2,5,6
 1402 1429 1402 1429 1429 1530 c 1,7,-1
 1573 1530 l 1,8,9
 1566 1488 1566 1488 1566 1423 c 0,10,11
 1566 1398 1566 1398 1569 1365 c 2,12,-1
 1609 920 l 2,13,14
 1616 847 1616 847 1644 755 c 1,15,-1
 1468 755 l 1,16,17
 1475 806 1475 806 1475 860 c 0,18,19
 1475 891 1475 891 1472 924 c 2,20,-1
 1440 1279 l 1,21,-1
 1272 909 l 2,22,23
 1240 838 1240 838 1219 755 c 1,24,-1
 1084 755 l 1,25,26
 1060 847 1060 847 1032 909 c 2,27,-1
 866 1278 l 1,28,-1
 834 924 l 2,29,30
 832 900 832 900 832 860 c 0,31,32
 832 800 832 800 839 755 c 1,33,-1
 689 755 l 1,34,35
 716 830 716 830 724 920 c 2,36,-1
 764 1365 l 2,37,38
 766 1389 766 1389 766 1423 c 0,39,40
 766 1458 766 1458 760 1530 c 1,0,-1
50 1530 m 1,41,-1
 625 1530 l 1,42,-1
 625 1409 l 1,43,44
 526 1428 526 1428 455 1428 c 2,45,-1
 411 1428 l 1,46,47
 408 1395 408 1395 408 1362 c 2,48,-1
 408 920 l 2,49,50
 408 833 408 833 427 755 c 1,51,-1
 248 755 l 1,52,53
 268 834 268 834 268 920 c 2,54,-1
 268 1362 l 2,55,56
 268 1395 268 1395 264 1428 c 1,57,-1
 220 1428 l 2,58,59
 148 1428 148 1428 50 1409 c 1,60,-1
 50 1530 l 1,41,-1
EndSplineSet
Validated: 1
EndChar

StartChar: uni2126
Encoding: 8486 8486 156
Width: 1806
GlyphClass: 2
Flags: W
HStem: 0 150<54.626 432 638.572 733 1074 1168.54 1374 1751.4> 1404 126<693.315 1113.4>
VStem: 143 223<495.72 1030.94> 1442 225<500.413 1029.97>
LayerCount: 2
Fore
SplineSet
50 0 m 1,0,-1
 50 180 l 1,1,2
 198 150 198 150 350 150 c 2,3,-1
 432 150 l 1,4,5
 405 172 405 172 379 197 c 0,6,7
 143 432 143 432 143 755 c 0,8,9
 143 1113 143 1113 376 1327 c 0,10,11
 597 1530 597 1530 903 1530 c 128,-1,12
 1209 1530 1209 1530 1430 1327 c 0,13,14
 1667 1109 1667 1109 1667 755 c 0,15,16
 1667 437 1667 437 1427 197 c 0,17,18
 1402 172 1402 172 1374 150 c 1,19,-1
 1456 150 l 2,20,21
 1609 150 1609 150 1756 180 c 1,22,-1
 1756 0 l 1,23,-1
 1074 0 l 1,24,-1
 1074 150 l 1,25,26
 1232 211 1232 211 1305 306 c 24,27,28
 1442 484 1442 484 1442 755 c 128,-1,29
 1442 1026 1442 1026 1305 1204 c 0,30,31
 1151 1404 1151 1404 903 1404 c 0,32,33
 657 1404 657 1404 503 1204 c 0,34,35
 366 1026 366 1026 366 755 c 128,-1,36
 366 484 366 484 503 306 c 0,37,38
 575 213 575 213 733 150 c 1,39,-1
 733 0 l 1,40,-1
 50 0 l 1,0,-1
EndSplineSet
Validated: 1
EndChar

StartChar: estimated
Encoding: 8494 8494 157
Width: 1330
GlyphClass: 2
Flags: W
HStem: -20 92<451.758 852.453> 525 80<348 983> 1036 84<468.183 852.399>
VStem: 100 248<309.991 525 605 788.181> 983 247<605 774.087>
LayerCount: 2
Fore
SplineSet
1104 204 m 1,0,1
 1032 113 1032 113 948 61 c 0,2,3
 817 -20 817 -20 665 -20 c 0,4,5
 409 -20 409 -20 256 139 c 0,6,7
 100 301 100 301 100 550 c 0,8,9
 100 788 100 788 249 952 c 24,10,11
 402 1120 402 1120 666 1120 c 0,12,13
 915 1120 915 1120 1064 964 c 280,14,15
 1230 790 1230 790 1230 525 c 1,16,-1
 348 525 l 1,17,-1
 348 192 l 1,18,19
 459 72 459 72 666 72 c 256,20,21
 789 72 789 72 880 132 c 0,22,23
 962 186 962 186 1011 266 c 1,24,25
 1104 204 l 1,0,1
348 605 m 1,26,-1
 983 605 l 1,27,-1
 983 903 l 1,28,29
 852 1036 852 1036 666 1036 c 0,30,31
 475 1036 475 1036 348 914 c 1,32,-1
 348 605 l 1,26,-1
EndSplineSet
Validated: 1
EndChar

StartChar: partialdiff
Encoding: 8706 8706 158
Width: 1285
GlyphClass: 2
Flags: W
HStem: -20 153<399.379 663.581> 870 170<546.66 823.335> 1378 152<492 830.299>
VStem: 150 188<198.966 600.959> 952 183<930 1235.35>
LayerCount: 2
Fore
SplineSet
512 -20 m 0,0,1
 150 -20 150 -20 150 375 c 0,2,3
 150 631 150 631 286 815 c 0,4,5
 454 1040 454 1040 672 1040 c 0,6,7
 859 1040 859 1040 952 930 c 1,8,9
 952 1136 952 1136 907 1239 c 0,10,11
 846 1378 846 1378 678 1378 c 0,12,13
 547 1378 547 1378 420 1294 c 1,14,-1
 420 1468 l 1,15,16
 554 1530 554 1530 703 1530 c 0,17,18
 1135 1530 1135 1530 1135 934 c 0,19,20
 1135 545 1135 545 966.5 262.5 c 128,-1,21
 798 -20 798 -20 512 -20 c 0,0,1
525 133 m 0,22,23
 663 133 663 133 772.5 286 c 128,-1,24
 882 439 882 439 920 680 c 1,25,26
 898 765 898 765 834.5 817.5 c 128,-1,27
 771 870 771 870 695 870 c 0,28,29
 535 870 535 870 436.5 710 c 128,-1,30
 338 550 338 550 338 369 c 0,31,32
 338 133 338 133 525 133 c 0,22,23
EndSplineSet
Validated: 1
EndChar

StartChar: uni2206
Encoding: 8710 8710 159
Width: 1590
GlyphClass: 2
Flags: W
HStem: 0 124<264 1266> 1490 20G<683 907>
DStem2: 604 1225 763 1248 0.418402 0.908262<-1139.57 84.4097> 986 1225 763 1248 0.418402 -0.908262<-111.918 1114.33>
LayerCount: 2
Fore
SplineSet
5 0 m 1,0,1
 98 127 98 127 159 259 c 2,2,-1
 604 1225 l 2,3,4
 662 1351 662 1351 704 1510 c 1,5,-1
 886 1510 l 1,6,7
 928 1351 928 1351 986 1225 c 2,8,-1
 1431 259 l 2,9,10
 1488 136 1488 136 1585 0 c 1,11,-1
 5 0 l 1,0,1
264 124 m 1,12,-1
 1266 124 l 1,13,14
 1237 210 1237 210 1203 285 c 2,15,-1
 763 1248 l 1,16,-1
 327 285 l 2,17,18
 291 206 291 206 264 124 c 1,12,-1
EndSplineSet
Validated: 1
EndChar

StartChar: product
Encoding: 8719 8719 160
Width: 1549
GlyphClass: 2
Flags: W
HStem: -410 21G<170 430 1119 1379> 1386 124<404.689 1144.31>
VStem: 200 200<-405.312 1383.13> 1149 200<-405.312 1383.13>
LayerCount: 2
Fore
SplineSet
170 -410 m 1,0,1
 200 -260 200 -260 200 -110 c 2,2,-1
 200 1210 l 2,3,4
 200 1360 200 1360 170 1510 c 1,5,-1
 1379 1510 l 1,6,7
 1349 1360 1349 1360 1349 1210 c 2,8,-1
 1349 -110 l 2,9,10
 1349 -260 1349 -260 1379 -410 c 1,11,-1
 1119 -410 l 1,12,13
 1149 -260 1149 -260 1149 -110 c 2,14,-1
 1149 1210 l 2,15,16
 1149 1294 1149 1294 1141 1386 c 1,17,-1
 408 1386 l 17,18,19
 400 1294 400 1294 400 1210 c 2,20,-1
 400 -110 l 2,21,22
 400 -260 400 -260 430 -410 c 1,23,-1
 170 -410 l 1,0,1
EndSplineSet
Validated: 1
EndChar

StartChar: summation
Encoding: 8721 8721 161
Width: 1278
GlyphClass: 2
Flags: W
HStem: -410 124<413 1173.62> 1386 124<402 1078>
DStem2: 402 1386 254 1251 0.435901 -0.899995<0.744664 821.942> 254 -151 413 -286 0.421175 0.90698<-53.948 777.76>
LayerCount: 2
Fore
SplineSet
100 -410 m 1,0,1
 201 -268 201 -268 254 -151 c 2,2,-1
 576 557 l 25,3,-1
 254 1251 l 2,4,5
 184 1402 184 1402 100 1510 c 1,6,-1
 1083 1510 l 1,7,-1
 1083 1356 l 1,8,9
 923 1386 923 1386 783 1386 c 2,10,-1
 402 1386 l 1,11,-1
 804 556 l 1,12,-1
 413 -286 l 1,13,-1
 878 -286 l 2,14,15
 1038 -286 1038 -286 1178 -256 c 1,16,-1
 1178 -410 l 1,17,-1
 100 -410 l 1,0,1
EndSplineSet
Validated: 1
EndChar

StartChar: uni2215
Encoding: 8725 8725 162
Width: 940
GlyphClass: 2
Flags: W
HStem: 0 21G<10 252.5> 1490 20G<690.5 930>
DStem2: 608 1225 776 1251 0.417626 0.908619<-1265.13 296.199>
LayerCount: 2
Fore
SplineSet
10 0 m 1,0,1
 98 116 98 116 164 259 c 10,2,-1
 608 1225 l 2,3,4
 673 1367 673 1367 708 1510 c 1,5,-1
 930 1510 l 1,6,7
 842 1394 842 1394 776 1251 c 2,8,-1
 332 285 l 2,9,10
 273 156 273 156 232 0 c 1,11,-1
 10 0 l 1,0,1
EndSplineSet
Validated: 1
EndChar

StartChar: uni2219
Encoding: 8729 8729 163
Width: 360
GlyphClass: 2
Flags: W
HStem: 624 264<89.1914 270.809>
VStem: 50 260<663.707 848.293>
LayerCount: 2
Fore
SplineSet
50 756 m 128,-1,1
 50 811 50 811 88 849.5 c 128,-1,2
 126 888 126 888 180 888 c 128,-1,3
 234 888 234 888 272 849.5 c 128,-1,4
 310 811 310 811 310 756 c 128,-1,5
 310 701 310 701 272 662.5 c 128,-1,6
 234 624 234 624 180 624 c 128,-1,7
 126 624 126 624 88 662.5 c 128,-1,0
 50 701 50 701 50 756 c 128,-1,1
EndSplineSet
Validated: 1
EndChar

StartChar: radical
Encoding: 8730 8730 164
Width: 1278
GlyphClass: 2
Flags: W
HStem: 0 21G<406.5 584.5> 1490 20G<1040.5 1278>
DStem2: 508 262 204 533 0.426675 -0.904405<-564.467 -4.82899> 508 262 667 285 0.426921 0.904289<3.24375 1358.27>
LayerCount: 2
Fore
SplineSet
421 0 m 1,0,1
 392 135 392 135 321 285 c 2,2,-1
 204 533 l 2,3,4
 149 649 149 649 50 792 c 1,5,-1
 296 792 l 1,6,7
 342 625 342 625 396 507 c 2,8,-1
 508 262 l 25,9,-1
 956 1227 l 2,10,11
 1025 1375 1025 1375 1056 1510 c 1,12,-1
 1278 1510 l 1,13,14
 1184 1381 1184 1381 1124 1253 c 2,15,-1
 667 285 l 2,16,17
 602 147 602 147 567 0 c 1,18,-1
 421 0 l 1,0,1
EndSplineSet
Validated: 1
EndChar

StartChar: infinity
Encoding: 8734 8734 165
Width: 1476
GlyphClass: 2
Flags: W
HStem: 430 134<361.151 599.956 875.151 1113.96> 945 135<362.292 600.009 876.292 1114.01>
VStem: 150 148<627.058 880.808> 664 148<626.738 882.383> 1178 148<627.117 880.867>
CounterMasks: 1 38
LayerCount: 2
Fore
SplineSet
481 564 m 0,0,1
 559 564 559 564 613 620 c 0,2,3
 664 673 664 673 664 755 c 0,4,5
 664 838 664 838 613 889 c 0,6,7
 557 945 557 945 481 945 c 0,8,9
 403 945 403 945 349 889 c 0,10,11
 298 837 298 837 298 755 c 0,12,13
 298 672 298 672 349 620 c 0,14,15
 404 564 404 564 481 564 c 0,0,1
481 1080 m 0,16,17
 624 1080 624 1080 713 994 c 0,18,19
 726 981 726 981 738 967 c 1,20,21
 750 981 750 981 763 994 c 0,22,23
 854 1080 854 1080 995 1080 c 0,24,25
 1138 1080 1138 1080 1227 994 c 0,26,27
 1326 899 1326 899 1326 755 c 0,28,29
 1326 612 1326 612 1227 516 c 0,30,31
 1137 430 1137 430 995 430 c 0,32,33
 849 430 849 430 763 516 c 0,34,35
 750 529 750 529 738 543 c 1,36,37
 726 529 726 529 713 516 c 0,38,39
 623 430 623 430 481 430 c 0,40,41
 335 430 335 430 249 516 c 0,42,43
 150 612 150 612 150 755 c 0,44,45
 150 899 150 899 249 994 c 0,46,47
 340 1080 340 1080 481 1080 c 0,16,17
995 564 m 0,48,49
 1073 564 1073 564 1127 620 c 0,50,51
 1178 673 1178 673 1178 755 c 0,52,53
 1178 838 1178 838 1127 889 c 0,54,55
 1071 945 1071 945 995 945 c 0,56,57
 917 945 917 945 863 889 c 0,58,59
 812 837 812 837 812 755 c 0,60,61
 812 672 812 672 863 620 c 0,62,63
 918 564 918 564 995 564 c 0,48,49
EndSplineSet
Validated: 1
EndChar

StartChar: approxequal
Encoding: 8776 8776 166
Width: 1106
GlyphClass: 2
Flags: W
HStem: 354 168<664.146 870.96> 562 168<234.753 441.854> 748 168<664.146 870.96> 956 168<234.753 441.854>
VStem: 150 10<354 373.043 748 767.043> 946 10<710.957 730 1104.96 1124>
DStem2: 664 960 442 912 0.788976 -0.614424<-254.321 108.661> 664 566 442 518 0.788976 -0.614424<-254.321 108.661>
LayerCount: 2
Fore
SplineSet
150 661 m 1,0,1
 237 730 237 730 348 730 c 0,2,3
 453 730 453 730 551 654 c 2,4,-1
 664 566 l 2,5,6
 720 522 720 522 769 522 c 272,7,8
 900 522 900 522 946 730 c 1,9,-1
 956 730 l 1,10,-1
 956 423 l 1,11,12
 874 354 874 354 758 354 c 0,13,14
 653 354 653 354 555 430 c 2,15,-1
 442 518 l 2,16,17
 386 562 386 562 337 562 c 272,18,19
 206 562 206 562 160 354 c 1,20,-1
 150 354 l 1,21,-1
 150 661 l 1,0,1
150 1055 m 1,22,23
 237 1124 237 1124 348 1124 c 0,24,25
 453 1124 453 1124 551 1048 c 2,26,-1
 664 960 l 2,27,28
 720 916 720 916 769 916 c 272,29,30
 900 916 900 916 946 1124 c 1,31,-1
 956 1124 l 1,32,-1
 956 817 l 1,33,34
 874 748 874 748 758 748 c 0,35,36
 653 748 653 748 555 824 c 2,37,-1
 442 912 l 2,38,39
 386 956 386 956 337 956 c 272,40,41
 206 956 206 956 160 748 c 1,42,-1
 150 748 l 1,43,-1
 150 1055 l 1,22,23
EndSplineSet
Validated: 1
EndChar

StartChar: notequal
Encoding: 8800 8800 167
Width: 1290
GlyphClass: 2
Flags: W
HStem: 484 154<642 1056.25> 852 154<232.688 648>
DStem2: 354 473 497 451 0.613417 0.789759<-225.082 0 306.974 479.663 784.621 1015.01>
LayerCount: 2
Fore
SplineSet
228 1036 m 1,0,1
 378 1006 378 1006 528 1006 c 2,2,-1
 768 1006 l 1,3,-1
 795 1041 l 2,4,5
 896 1171 896 1171 956 1296 c 1,6,-1
 1190 1296 l 1,7,8
 1077 1201 1077 1201 982 1078 c 2,9,-1
 934 1016 l 1,10,11
 997 1023 997 1023 1061 1036 c 1,12,-1
 1061 822 l 1,13,14
 933 847 933 847 807 851 c 1,15,-1
 642 638 l 1,16,-1
 761 638 l 2,17,18
 909 638 909 638 1061 668 c 1,19,-1
 1061 454 l 1,20,21
 920 484 920 484 761 484 c 2,22,-1
 523 484 l 1,23,-1
 497 451 l 2,24,25
 406 333 406 333 336 196 c 1,26,-1
 100 196 l 1,27,28
 225 307 225 307 308 414 c 2,29,-1
 354 473 l 1,30,31
 293 466 293 466 228 454 c 1,32,-1
 228 668 l 1,33,34
 355 643 355 643 483 639 c 1,35,-1
 648 852 l 1,36,-1
 528 852 l 2,37,38
 378 852 378 852 228 822 c 1,39,-1
 228 1036 l 1,0,1
EndSplineSet
Validated: 1
EndChar

StartChar: lessequal
Encoding: 8804 8804 168
Width: 1250
GlyphClass: 2
Flags: W
HStem: 150 154<154.688 1045.25>
DStem2: 435 1079 385 876 0.916379 0.400313<-126.695 584.123> 385 876 435 697 0.902817 -0.430026<1.34968 716.976>
LayerCount: 2
Fore
SplineSet
150 334 m 1,0,1
 300 304 300 304 450 304 c 2,2,-1
 750 304 l 2,3,4
 898 304 898 304 1050 334 c 1,5,-1
 1050 120 l 1,6,7
 899 150 899 150 750 150 c 2,8,-1
 450 150 l 2,9,10
 300 150 300 150 150 120 c 1,11,-1
 150 334 l 1,0,1
150 797 m 1,12,-1
 150 979 l 1,13,14
 291 1010 291 1010 435 1079 c 2,15,-1
 791 1249 l 2,16,17
 932 1317 932 1317 1050 1403 c 1,18,-1
 1050 1142 l 1,19,20
 904 1103 904 1103 765 1042 c 2,21,-1
 385 876 l 25,22,-1
 765 695 l 2,23,24
 914 624 914 624 1050 595 c 1,25,-1
 1050 373 l 1,26,27
 921 465 921 465 791 527 c 2,28,-1
 435 697 l 2,29,30
 302 761 302 761 150 797 c 1,12,-1
EndSplineSet
Validated: 1
EndChar

StartChar: greaterequal
Encoding: 8805 8805 169
Width: 1250
GlyphClass: 2
Flags: W
HStem: 150 154<204.688 1095.25>
DStem2: 865 900 459 527 0.916379 0.400313<-711.137 -0.387859> 815 1079 865 900 0.902817 -0.430026<-594.861 121.637>
LayerCount: 2
Fore
SplineSet
200 334 m 1,0,1
 350 304 350 304 500 304 c 2,2,-1
 800 304 l 2,3,4
 948 304 948 304 1100 334 c 1,5,-1
 1100 120 l 1,6,7
 949 150 949 150 800 150 c 2,8,-1
 500 150 l 2,9,10
 350 150 350 150 200 120 c 1,11,-1
 200 334 l 1,0,1
200 1403 m 1,12,13
 329 1311 329 1311 459 1249 c 2,14,-1
 815 1079 l 2,15,16
 950 1015 950 1015 1100 979 c 1,17,-1
 1100 797 l 1,18,19
 959 766 959 766 815 697 c 2,20,-1
 459 527 l 2,21,22
 321 461 321 461 200 373 c 1,23,-1
 200 634 l 1,24,25
 348 674 348 674 485 734 c 2,26,-1
 865 900 l 25,27,-1
 485 1081 l 2,28,29
 336 1152 336 1152 200 1181 c 1,30,-1
 200 1403 l 1,12,13
EndSplineSet
Validated: 1
EndChar

StartChar: lozenge
Encoding: 9674 9674 170
Width: 1134
GlyphClass: 2
Flags: W
HStem: -20 21G<554.678 579.273> 1510 20G<555.207 578.838>
DStem2: 100 738 288 775 0.507923 0.861403<127.361 627.638> 288 775 100 738 0.524536 -0.851388<0 582.074> 567 1530 542 1206 0.509354 -0.860557<266.087 853.984> 591 278 567 -20 0.523035 0.852311<0 492.332>
LayerCount: 2
Fore
SplineSet
591 278 m 5,0,-1
 843 701 l 1,1,-1
 542 1206 l 1,2,-1
 288 775 l 1,3,-1
 591 278 l 5,0,-1
567 -20 m 1,4,-1
 100 738 l 1,5,-1
 567 1530 l 1,6,-1
 1034 741 l 1,7,-1
 567 -20 l 1,4,-1
EndSplineSet
Validated: 1
EndChar

StartChar: four
Encoding: 52 52 171
Width: 1238
Flags: W
HStem: 0 21G<749 999> 360 154<971.405 1118> 360 124<197 779 969 1115.75> 1530 20G<874.5 985>
VStem: 779 190<5.21045 360 491 1289.25>
DStem2: 211 711 197 484 0.585417 0.810732<-188.697 797.521>
LayerCount: 2
Fore
SplineSet
749 0 m 1,0,1
 779 167 779 167 779 300 c 2,2,-1
 779 360 l 1,3,-1
 63 360 l 1,4,-1
 20 484 l 1,5,6
 119 585 119 585 211 711 c 2,7,-1
 602 1247 l 2,8,9
 694 1373 694 1373 749 1510 c 1,10,-1
 1000 1550 l 17,11,12
 970 1408 970 1408 970 1250 c 2,13,-1
 969 491 l 1,14,15
 1046 499 1046 499 1118 514 c 1,16,-1
 1118 360 l 1,17,-1
 969 360 l 1,18,-1
 969 300 l 2,19,20
 969 150 969 150 999 0 c 1,21,-1
 749 0 l 1,0,1
779 484 m 1,22,-1
 779 1290 l 1,23,-1
 197 484 l 1,24,-1
 779 484 l 1,22,-1
EndSplineSet
Validated: 1
EndChar

StartChar: ampersand
Encoding: 38 38 172
Width: 1714
Flags: W
HStem: -20 124<524.959 914.313> 0 21G<1302.5 1634> 775 155<551.63 827.238> 1406 124<498.804 772.181>
VStem: 150 216<264.209 618.428> 243 182<1043.41 1329.13> 878 10<1223 1228.67>
DStem2: 1098 694 879 679 0.589101 -0.808059<-252.924 211.816> 1223 523 1292 428 0.489443 0.872035<0 432.534>
LayerCount: 2
Fore
SplineSet
1122 349 m 1,0,-1
 879 679 l 2,1,2
 808 775 808 775 689 775 c 0,3,4
 556 775 556 775 456 676 c 0,5,6
 366 587 366 587 366 450 c 0,7,8
 366 294 366 294 456 203 c 0,9,10
 552 104 552 104 691 104 c 0,11,12
 845 104 845 104 949 166 c 0,13,14
 1040 220 1040 220 1122 349 c 1,0,-1
1634 0 m 1,15,-1
 1323 0 l 1,16,17
 1282 128 1282 128 1191 255 c 1,18,19
 1126 158 1126 158 1049 94 c 0,20,21
 913 -20 913 -20 690 -20 c 0,22,23
 443 -20 443 -20 303 105 c 0,24,25
 150 243 150 243 150 450 c 0,26,27
 150 646 150 646 308 770 c 0,28,29
 387 832 387 832 508 850 c 1,30,31
 243 950 243 950 243 1180 c 0,32,33
 243 1360 243 1360 391 1465 c 0,34,35
 482 1530 482 1530 646 1530 c 0,36,37
 780 1530 780 1530 888 1474 c 1,38,-1
 888 1223 l 1,39,-1
 878 1223 l 1,40,41
 787 1406 787 1406 646 1406 c 0,42,43
 547 1406 547 1406 494 1358 c 0,44,45
 425 1296 425 1296 425 1179 c 0,46,47
 425 1084 425 1084 492 1018 c 0,48,49
 581 930 581 930 747 930 c 2,50,-1
 947 930 l 1,51,52
 1004 823 1004 823 1098 694 c 2,53,-1
 1223 523 l 1,54,-1
 1293 646 l 2,55,56
 1382 801 1382 801 1397 930 c 1,57,-1
 1604 930 l 1,58,59
 1498 795 1498 795 1434 681 c 2,60,-1
 1292 428 l 1,61,-1
 1437 229 l 2,62,63
 1518 118 1518 118 1634 0 c 1,15,-1
EndSplineSet
Validated: 1
EndChar

StartChar: AE
Encoding: 198 198 173
Width: 1842
Flags: W
HStem: 0 124<1168.69 1737.56> 697 124<647 974 1164 1617.31> 1386 124<1169.86 1617.31>
VStem: 974 190<126.873 697 821 1383.13>
DStem2: 696 1226 590 697 0.472576 0.88129<-1297.56 -516.295 -380.079 295.827>
LayerCount: 2
Fore
SplineSet
5 0 m 1,0,1
 110 134 110 134 178 260 c 2,2,-1
 696 1226 l 2,3,4
 774 1372 774 1372 821 1510 c 1,5,-1
 1622 1510 l 1,6,-1
 1622 1356 l 1,7,8
 1472 1386 1472 1386 1322 1386 c 2,9,-1
 1174 1386 l 1,10,11
 1164 1294 1164 1294 1164 1210 c 2,12,-1
 1164 821 l 1,13,-1
 1322 821 l 2,14,15
 1472 821 1472 821 1622 851 c 1,16,-1
 1622 667 l 1,17,18
 1472 697 1472 697 1322 697 c 2,19,-1
 1164 697 l 1,20,-1
 1164 300 l 2,21,22
 1164 216 1164 216 1172 124 c 1,23,-1
 1442 124 l 2,24,25
 1600 124 1600 124 1742 154 c 1,26,-1
 1742 0 l 1,27,-1
 944 0 l 1,28,29
 974 150 974 150 974 300 c 2,30,-1
 974 697 l 1,31,-1
 590 697 l 1,32,-1
 358 282 l 2,33,34
 277 138 277 138 227 0 c 1,35,-1
 5 0 l 1,0,1
959 1424 m 1,36,-1
 647 821 l 1,37,-1
 974 821 l 1,38,-1
 974 1210 l 2,39,40
 974 1317 974 1317 959 1424 c 1,36,-1
EndSplineSet
Validated: 1
EndChar

StartChar: Eth
Encoding: 208 208 174
Width: 1599
Flags: W
HStem: 0 124<394.5 929.335> 717 83<390 794.005> 1386 124<395.625 928.544>
VStem: 200 190<126.658 710 807 1383.31> 1274 225<493.547 1015.47>
LayerCount: 2
Fore
SplineSet
398 124 m 1,0,-1
 696 124 l 2,1,2
 983 124 983 124 1137 324 c 0,3,4
 1274 502 1274 502 1274 755 c 0,5,6
 1274 1007 1274 1007 1138 1184 c 0,7,8
 985 1382 985 1382 697 1384 c 2,9,-1
 400 1386 l 1,10,11
 390 1300 390 1300 390 1210 c 2,12,-1
 390 800 l 1,13,-1
 499 800 l 2,14,15
 642 800 642 800 799 830 c 1,16,-1
 799 687 l 1,17,18
 639 717 639 717 499 717 c 2,19,-1
 390 717 l 1,20,-1
 390 300 l 2,21,22
 390 209 390 209 398 124 c 1,0,-1
170 0 m 1,23,24
 200 150 200 150 200 300 c 2,25,-1
 200 710 l 1,26,27
 123 703 123 703 40 687 c 1,28,-1
 40 830 l 1,29,30
 123 815 123 815 200 807 c 1,31,-1
 200 1210 l 2,32,33
 200 1360 200 1360 170 1510 c 1,34,-1
 696 1510 l 2,35,36
 1042 1510 1042 1510 1263 1307 c 0,37,38
 1499 1089 1499 1089 1499 755 c 0,39,40
 1499 420 1499 420 1262 201 c 0,41,42
 1044 0 1044 0 696 0 c 2,43,-1
 170 0 l 1,23,24
EndSplineSet
Validated: 1
EndChar

StartChar: Dcroat
Encoding: 272 272 175
Width: 1599
Flags: W
HStem: 0 124<394.5 929.335> 717 83<390 794.005> 1386 124<395.625 928.544>
VStem: 200 190<126.658 710 807 1383.31> 1274 225<493.547 1015.47>
LayerCount: 2
Fore
SplineSet
398 124 m 1,0,-1
 696 124 l 2,1,2
 983 124 983 124 1137 324 c 0,3,4
 1274 502 1274 502 1274 755 c 0,5,6
 1274 1007 1274 1007 1138 1184 c 0,7,8
 985 1382 985 1382 697 1384 c 2,9,-1
 400 1386 l 1,10,11
 390 1300 390 1300 390 1210 c 2,12,-1
 390 800 l 1,13,-1
 499 800 l 2,14,15
 642 800 642 800 799 830 c 1,16,-1
 799 687 l 1,17,18
 639 717 639 717 499 717 c 2,19,-1
 390 717 l 1,20,-1
 390 300 l 2,21,22
 390 209 390 209 398 124 c 1,0,-1
170 0 m 1,23,24
 200 150 200 150 200 300 c 2,25,-1
 200 710 l 1,26,27
 123 703 123 703 40 687 c 1,28,-1
 40 830 l 1,29,30
 123 815 123 815 200 807 c 1,31,-1
 200 1210 l 2,32,33
 200 1360 200 1360 170 1510 c 1,34,-1
 696 1510 l 2,35,36
 1042 1510 1042 1510 1263 1307 c 0,37,38
 1499 1089 1499 1089 1499 755 c 0,39,40
 1499 420 1499 420 1262 201 c 0,41,42
 1044 0 1044 0 696 0 c 2,43,-1
 170 0 l 1,23,24
EndSplineSet
Validated: 1
EndChar

StartChar: Hbar
Encoding: 294 294 176
Width: 1550
Flags: W
HStem: 0 21G<170 420 1130 1380> 697 124<390 1160> 1279 83<398 1152> 1490 20G<170 420 1130 1380>
VStem: 200 190<4.6875 697 821 1272> 1160 190<4.6875 697 821 1272>
LayerCount: 2
Fore
SplineSet
170 0 m 1,0,1
 200 150 200 150 200 300 c 2,2,-1
 200 1210 l 2,3,4
 200 1241 200 1241 199 1272 c 1,5,6
 122 1265 122 1265 40 1249 c 1,7,-1
 40 1392 l 1,8,9
 118 1377 118 1377 191 1370 c 1,10,11
 184 1440 184 1440 170 1510 c 1,12,-1
 420 1510 l 1,13,14
 405 1436 405 1436 398 1362 c 1,15,-1
 1152 1362 l 1,16,17
 1145 1436 1145 1436 1130 1510 c 1,18,-1
 1380 1510 l 1,19,20
 1366 1440 1366 1440 1359 1370 c 1,21,22
 1433 1377 1433 1377 1510 1392 c 1,23,-1
 1510 1249 l 1,24,25
 1428 1264 1428 1264 1351 1272 c 1,26,27
 1350 1241 1350 1241 1350 1210 c 2,28,-1
 1350 300 l 2,29,30
 1350 150 1350 150 1380 0 c 1,31,-1
 1130 0 l 1,32,33
 1160 150 1160 150 1160 300 c 2,34,-1
 1160 697 l 1,35,-1
 390 697 l 1,36,-1
 390 300 l 2,37,38
 390 150 390 150 420 0 c 1,39,-1
 170 0 l 1,0,1
1158 1279 m 1,40,-1
 392 1279 l 1,41,42
 390 1245 390 1245 390 1210 c 2,43,-1
 390 821 l 1,44,-1
 1160 821 l 1,45,-1
 1160 1210 l 2,46,47
 1160 1245 1160 1245 1158 1279 c 1,40,-1
EndSplineSet
Validated: 1
EndChar

StartChar: Lslash
Encoding: 321 321 177
Width: 998
Flags: W
HStem: 0 124<404.689 973.559> 1100 20G<657 722> 1490 20G<170 430>
VStem: 200 200<126.873 416 554.23 659 775 1505.31>
DStem2: 400 775 400 659 0.707107 0.707107<0 452.552>
LayerCount: 2
Fore
SplineSet
170 0 m 1,0,1
 200 150 200 150 200 300 c 2,2,-1
 200 416 l 1,3,-1
 99 517 l 1,4,5
 148 547 148 547 200 588 c 1,6,-1
 200 1210 l 2,7,8
 200 1360 200 1360 170 1510 c 1,9,-1
 430 1510 l 1,10,11
 400 1360 400 1360 400 1210 c 2,12,-1
 400 775 l 1,13,-1
 511 886 l 2,14,15
 612 986 612 986 702 1120 c 1,16,-1
 803 1019 l 1,17,18
 679 938 679 938 569 828 c 2,19,-1
 400 659 l 1,20,-1
 400 300 l 2,21,22
 400 216 400 216 408 124 c 1,23,-1
 678 124 l 2,24,25
 836 124 836 124 978 154 c 1,26,-1
 978 0 l 1,27,-1
 170 0 l 1,0,1
EndSplineSet
Validated: 1
EndChar

StartChar: Eng
Encoding: 330 330 178
Width: 1560
Flags: W
HStem: -430 10<880 888.682> 0 21G<170 420> 1379 151<605.964 954.97> 1530 20G<312.174 408.5>
VStem: 200 190<4.6875 1142.18 1319 1499.62> 1160 200<-216.094 1150.25>
LayerCount: 2
Fore
SplineSet
170 0 m 1,0,1
 200 150 200 150 200 300 c 2,2,-1
 200 1210 l 2,3,4
 200 1364 200 1364 172 1504 c 1,5,-1
 420 1550 l 1,6,7
 397 1434 397 1434 393 1319 c 1,8,9
 563 1530 563 1530 825 1530 c 0,10,11
 1086 1530 1086 1530 1227 1355 c 0,12,13
 1360 1191 1360 1191 1360 864 c 2,14,-1
 1360 0 l 2,15,16
 1360 -430 1360 -430 880 -430 c 1,17,-1
 880 -420 l 1,18,19
 1160 -335 1160 -335 1160 0 c 2,20,-1
 1160 862 l 2,21,22
 1160 1093 1160 1093 1088 1206 c 24,23,24
 978 1379 978 1379 775 1379 c 0,25,26
 577 1379 577 1379 474 1222 c 0,27,28
 390 1095 390 1095 390 862 c 2,29,-1
 390 300 l 2,30,31
 390 150 390 150 420 0 c 1,32,-1
 170 0 l 1,0,1
EndSplineSet
Validated: 1
EndChar

StartChar: OE
Encoding: 338 338 179
Width: 1934
Flags: W
HStem: -20 126<642.315 1051.78> 0 124<1260.69 1829.56> 697 124<1256 1709.31> 1386 124<1261.86 1709.31> 1404 126<642.315 1055.65>
VStem: 90 225<479.546 1030.45> 1066 190<149.406 697 821 1360.59>
LayerCount: 2
Fore
SplineSet
1834 0 m 1,0,-1
 1036 0 l 17,1,2
 948 -20 948 -20 852 -20 c 0,3,4
 546 -20 546 -20 325 183 c 0,5,6
 90 399 90 399 90 755 c 128,-1,7
 90 1111 90 1111 325 1327 c 0,8,9
 546 1530 546 1530 852 1530 c 0,10,11
 947 1530 947 1530 1035 1510 c 9,12,-1
 1714 1510 l 1,13,-1
 1714 1356 l 1,14,15
 1564 1386 1564 1386 1414 1386 c 2,16,-1
 1266 1386 l 1,17,18
 1256 1294 1256 1294 1256 1210 c 2,19,-1
 1256 821 l 1,20,-1
 1414 821 l 2,21,22
 1564 821 1564 821 1714 851 c 1,23,-1
 1714 667 l 1,24,25
 1564 697 1564 697 1414 697 c 2,26,-1
 1256 697 l 1,27,-1
 1256 300 l 2,28,29
 1256 216 1256 216 1264 124 c 1,30,-1
 1534 124 l 2,31,32
 1692 124 1692 124 1834 154 c 1,33,-1
 1834 0 l 1,0,-1
1058 1363 m 1,34,35
 965 1404 965 1404 852 1404 c 0,36,37
 606 1404 606 1404 452 1204 c 0,38,39
 315 1026 315 1026 315 755 c 128,-1,40
 315 484 315 484 452 306 c 0,41,42
 606 106 606 106 852 106 c 0,43,44
 965 106 965 106 1058 147 c 1,45,46
 1066 224 1066 224 1066 300 c 2,47,-1
 1066 1210 l 2,48,49
 1066 1286 1066 1286 1058 1363 c 1,34,35
EndSplineSet
Validated: 1
EndChar

StartChar: Tbar
Encoding: 358 358 180
Width: 1100
Flags: W
HStem: 0 21G<425 675> 708 87<223.903 455 645 876.159> 1386 124<24.6875 449.375 650.625 1075.31>
VStem: 455 190<4.6875 708 795 1383.25>
LayerCount: 2
Fore
SplineSet
425 0 m 1,0,1
 455 150 455 150 455 300 c 2,2,-1
 455 708 l 1,3,4
 343 703 343 703 220 680 c 1,5,-1
 220 823 l 1,6,7
 345 800 345 800 455 795 c 1,8,-1
 455 1210 l 2,9,10
 455 1298 455 1298 445 1386 c 1,11,-1
 320 1386 l 2,12,13
 170 1386 170 1386 20 1356 c 1,14,-1
 20 1510 l 1,15,-1
 1080 1510 l 1,16,-1
 1080 1356 l 1,17,18
 930 1386 930 1386 780 1386 c 2,19,-1
 655 1386 l 1,20,21
 645 1298 645 1298 645 1210 c 2,22,-1
 645 795 l 1,23,24
 758 800 758 800 880 823 c 1,25,-1
 880 680 l 1,26,27
 757 703 757 703 645 708 c 1,28,-1
 645 300 l 2,29,30
 645 150 645 150 675 0 c 1,31,-1
 425 0 l 1,0,1
EndSplineSet
Validated: 1
EndChar

StartChar: ae
Encoding: 230 230 181
Width: 1969
Flags: W
HStem: -20 103<396.133 712.498 1207.98 1561.65> 499 105<1008 1647> 649 103<396.85 712.814> 1018 102<362.655 687.611 1190.17 1497.1>
VStem: 80 199<204.391 526.132> 224 10<784 805.253> 828 180<298.312 497.052 661 819.511> 1647 222<604 797.749>
LayerCount: 2
Fore
SplineSet
529 -20 m 0,0,1
 340 -20 340 -20 219 80 c 0,2,3
 80 195 80 195 80 366 c 0,4,5
 80 540 80 540 219 652 c 0,6,7
 344 752 344 752 529 752 c 0,8,9
 708 752 708 752 828 661 c 1,10,11
 825 792 825 792 782 871 c 0,12,13
 702 1018 702 1018 525 1018 c 0,14,15
 353 1018 353 1018 267 871 c 0,16,17
 244 834 244 834 234 784 c 1,18,-1
 224 784 l 1,19,-1
 224 1021 l 1,20,21
 367 1120 367 1120 581 1120 c 0,22,23
 817 1120 817 1120 944 946 c 1,24,25
 956 960 956 960 969 972 c 0,26,27
 1128 1120 1128 1120 1345 1120 c 0,28,29
 1607 1120 1607 1120 1751 930 c 0,30,31
 1869 774 1869 774 1869 550 c 1,32,-1
 1818 499 l 9,33,-1
 1008 499 l 1,34,35
 1018 323 1018 323 1097 222 c 0,36,37
 1205 84 1205 84 1395 84 c 0,38,39
 1604 84 1604 84 1759 329 c 1,40,-1
 1769 328 l 1,41,-1
 1769 122 l 1,42,43
 1600 -20 1600 -20 1395 -20 c 0,44,45
 1175 -20 1175 -20 1019 85 c 24,46,47
 979 112 979 112 937 151 c 1,48,49
 873 92 873 92 814 56 c 24,50,51
 691 -20 691 -20 529 -20 c 0,0,1
828 373 m 2,52,53
 828 479 828 479 772 550 c 0,54,55
 694 649 694 649 552 649 c 0,56,57
 413 649 413 649 340 551 c 0,58,59
 279 470 279 470 279 366 c 128,-1,60
 279 262 279 262 340 181 c 0,61,62
 414 83 414 83 552 83 c 0,63,64
 692 83 692 83 772 182 c 0,65,66
 828 251 828 251 828 359 c 2,67,-1
 828 373 l 2,52,53
1008 604 m 1,68,-1
 1647 604 l 1,69,70
 1638 789 1638 789 1588 874 c 0,71,72
 1505 1017 1505 1017 1345 1017 c 0,73,74
 1189 1017 1189 1017 1085 877 c 0,75,76
 1017 785 1017 785 1008 604 c 1,68,-1
EndSplineSet
Validated: 1
EndChar

StartChar: dcroat
Encoding: 273 273 182
Width: 1348
Flags: W
HStem: -20 103<499.387 834.469> 0 21G<945 1176> 1017 103<496.712 833.983> 1279 83<652.026 965> 1530 20G<1075 1167>
VStem: 100 210<317.881 782.869> 945 230<1371.72 1506.87> 973 175<216.375 885.613 996 1272>
LayerCount: 2
Fore
SplineSet
1176 0 m 1,0,1
 945 0 l 1,2,3
 954 45 954 45 961 93 c 1,4,5
 845 -20 845 -20 664 -20 c 0,6,7
 434 -20 434 -20 278 128 c 0,8,9
 100 298 100 298 100 550 c 0,10,11
 100 805 100 805 278 972 c 0,12,13
 436 1120 436 1120 664 1120 c 0,14,15
 856 1120 856 1120 973 996 c 1,16,-1
 973 1208 l 2,17,18
 973 1243 973 1243 971 1279 c 1,19,-1
 947 1279 l 2,20,21
 807 1279 807 1279 647 1249 c 1,22,-1
 647 1392 l 1,23,24
 808 1362 808 1362 947 1362 c 2,25,-1
 965 1362 l 1,26,27
 958 1432 958 1432 945 1504 c 1,28,-1
 1175 1550 l 1,29,30
 1159 1456 1159 1456 1152 1369 c 1,31,32
 1228 1376 1228 1376 1308 1392 c 1,33,-1
 1308 1249 l 1,34,35
 1225 1264 1225 1264 1148 1272 c 9,36,-1
 1148 294 l 2,37,38
 1148 136 1148 136 1176 0 c 1,0,1
664 83 m 0,39,40
 839 83 839 83 934 223 c 0,41,42
 973 280 973 280 973 395 c 2,43,-1
 973 705 l 2,44,45
 973 820 973 820 934 877 c 0,46,47
 839 1017 839 1017 664 1017 c 0,48,49
 498 1017 498 1017 394 877 c 0,50,51
 310 764 310 764 310 550 c 128,-1,52
 310 336 310 336 394 223 c 0,53,54
 498 83 498 83 664 83 c 0,39,40
EndSplineSet
Validated: 1
EndChar

StartChar: longs
Encoding: 383 383 183
Width: 900
Flags: W
HStem: 0 21G<272 503> 786 105<24.4365 300> 1445 85<568.932 807.609>
VStem: 300 175<4.62451 786 891 1319.33> 870 10<1290 1304.19>
LayerCount: 2
Fore
SplineSet
272 0 m 1,0,1
 300 148 300 148 300 294 c 2,2,-1
 300 786 l 1,3,4
 162 786 162 786 20 758 c 1,5,-1
 20 919 l 1,6,7
 161 891 161 891 300 891 c 1,8,-1
 300 1064 l 2,9,10
 300 1295 300 1295 397 1404 c 0,11,12
 509 1530 509 1530 718 1530 c 0,13,14
 802 1530 802 1530 880 1511 c 1,15,-1
 880 1290 l 1,16,-1
 870 1290 l 1,17,18
 824 1445 824 1445 700 1445 c 0,19,20
 585 1445 585 1445 526 1358 c 0,21,22
 475 1282 475 1282 475 1095 c 2,23,-1
 475 294 l 2,24,25
 475 146 475 146 503 0 c 1,26,-1
 272 0 l 1,0,1
EndSplineSet
Validated: 19457
EndChar

StartChar: florin
Encoding: 402 402 184
Width: 800
Flags: W
HStem: -430 21G<20 197.5> 786 105<52.2798 200 375 660.471> 1445 85<468.932 707.609>
VStem: 200 175<-284.422 786 891 1319.33> 770 10<1290 1304.19>
LayerCount: 2
Fore
SplineSet
20 -430 m 1,0,1
 20 -420 l 1,2,3
 200 -307 200 -307 200 -122 c 2,4,-1
 200 786 l 17,5,-1
 190 786 l 2,6,7
 123 786 123 786 50 760 c 1,8,-1
 50 917 l 1,9,10
 123 891 123 891 190 891 c 2,11,-1
 200 891 l 1,12,-1
 200 1064 l 2,13,14
 200 1295 200 1295 297 1404 c 0,15,16
 409 1530 409 1530 618 1530 c 0,17,18
 702 1530 702 1530 780 1511 c 1,19,20
 780 1290 l 1,21,-1
 770 1290 l 1,22,23
 724 1445 724 1445 600 1445 c 0,24,25
 485 1445 485 1445 426 1358 c 0,26,27
 375 1282 375 1282 375 1095 c 2,28,-1
 375 891 l 1,29,-1
 385 891 l 2,30,31
 521 891 521 891 665 919 c 1,32,-1
 665 758 l 1,33,34
 520 786 520 786 385 786 c 2,35,-1
 375 786 l 9,36,-1
 375 -122 l 2,37,38
 375 -430 375 -430 20 -430 c 1,0,1
EndSplineSet
Validated: 19457
EndChar

StartChar: hbar
Encoding: 295 295 185
Width: 1341
Flags: W
HStem: 0 21G<172 403 933 1169> 1005 115<523.229 828.984> 1279 83<379 696.005> 1530 20G<302 393.5>
VStem: 172 230<1372.06 1506.87> 200 175<4.31714 870.986 959 1272> 961 180<4.62476 867.078>
LayerCount: 2
Fore
SplineSet
172 0 m 1,0,1
 200 137 200 137 200 295 c 2,2,-1
 200 1208 l 2,3,4
 200 1240 200 1240 199 1272 c 1,5,6
 122 1264 122 1264 40 1249 c 1,7,-1
 40 1392 l 1,8,9
 118 1377 118 1377 191 1370 c 1,10,11
 184 1436 184 1436 172 1504 c 1,12,-1
 402 1550 l 1,13,14
 385 1452 385 1452 379 1362 c 1,15,-1
 401 1362 l 2,16,17
 544 1362 544 1362 701 1392 c 1,18,-1
 701 1249 l 1,19,20
 541 1279 541 1279 401 1279 c 2,21,-1
 375 1279 l 9,22,-1
 375 959 l 1,23,24
 511 1120 511 1120 724 1120 c 0,25,26
 961 1120 961 1120 1076 947 c 0,27,28
 1141 850 1141 850 1141 641 c 2,29,-1
 1141 294 l 2,30,31
 1141 147 1141 147 1169 0 c 1,32,-1
 933 0 l 1,33,34
 961 148 961 148 961 295 c 2,35,-1
 961 642 l 2,36,37
 961 797 961 797 915 871 c 0,38,39
 830 1005 830 1005 668 1005 c 0,40,41
 507 1005 507 1005 420 871 c 0,42,43
 375 802 375 802 375 642 c 2,44,-1
 375 295 l 2,45,46
 375 138 375 138 403 0 c 1,47,-1
 172 0 l 1,0,1
EndSplineSet
Validated: 1
EndChar

StartChar: kgreenlandic
Encoding: 312 312 186
Width: 1214
Flags: W
HStem: 0 21G<172 403 860 1209> 1080 20G<789 1056>
VStem: 200 175<4.65527 446 610 1090.01>
DStem2: 375 610 533 615 0.707107 0.707107<115.258 661.65> 533 615 421 495 0.72325 -0.690587<1.86645 685.084>
LayerCount: 2
Fore
SplineSet
172 0 m 1,0,1
 200 149 200 149 200 294 c 2,2,-1
 200 799 l 2,3,4
 200 935 200 935 172 1095 c 1,5,-1
 402 1140 l 1,6,7
 375 995 375 995 375 850 c 2,8,-1
 375 610 l 1,9,-1
 640 867 l 2,10,11
 751 975 751 975 827 1100 c 1,12,-1
 1056 1100 l 1,13,14
 936 1004 936 1004 849 920 c 2,15,-1
 533 615 l 1,16,-1
 998 171 l 2,17,18
 1099 75 1099 75 1209 0 c 1,19,-1
 899 0 l 1,20,21
 821 119 821 119 705 228 c 2,22,-1
 421 495 l 1,23,-1
 375 446 l 1,24,-1
 375 297 l 2,25,26
 375 148 375 148 403 0 c 1,27,-1
 172 0 l 1,0,1
EndSplineSet
Validated: 1
EndChar

StartChar: lslash
Encoding: 322 322 187
Width: 724
Flags: W
HStem: 0 21G<246 477> 1100 20G<573 632.198> 1530 20G<376 462.5>
VStem: 274 175<4.25537 621 738 797 914 1499.19>
LayerCount: 2
Fore
SplineSet
246 0 m 1,0,1
 274 135 274 135 274 294 c 2,2,-1
 274 621 l 1,3,4
 193 535 193 535 110 416 c 1,5,-1
 10 517 l 1,6,7
 122 585 122 585 244 708 c 2,8,-1
 274 738 l 1,9,-1
 274 1208 l 2,10,11
 274 1350 274 1350 246 1504 c 1,12,-1
 476 1550 l 1,13,14
 449 1394 449 1394 449 1259 c 2,15,-1
 449 914 l 1,16,17
 534 1004 534 1004 612 1120 c 1,18,-1
 714 1019 l 1,19,20
 590 938 590 938 480 828 c 2,21,-1
 449 797 l 1,22,-1
 449 294 l 2,23,24
 449 136 449 136 477 0 c 1,25,-1
 246 0 l 1,0,1
EndSplineSet
Validated: 1
EndChar

StartChar: eng
Encoding: 331 331 188
Width: 1341
Flags: W
HStem: -430 10<681 689.682> 0 21G<172 403> 1005 115<521.344 828.267>
VStem: 172 230<965.689 1096.87> 200 175<4.31714 868.224> 961 180<-223.572 867.98>
LayerCount: 2
Fore
SplineSet
172 0 m 1,0,1
 200 137 200 137 200 295 c 2,2,-1
 200 797 l 2,3,4
 200 950 200 950 172 1094 c 1,5,-1
 402 1140 l 1,6,7
 386 1049 386 1049 379 963 c 1,8,9
 512 1120 512 1120 724 1120 c 0,10,11
 957 1120 957 1120 1076 947 c 0,12,13
 1141 852 1141 852 1141 641 c 2,14,-1
 1141 0 l 2,15,16
 1141 -430 1141 -430 681 -430 c 1,17,-1
 681 -420 l 1,18,19
 961 -335 961 -335 961 0 c 2,20,-1
 961 642 l 2,21,22
 961 799 961 799 915 871 c 0,23,24
 830 1005 830 1005 668 1005 c 0,25,26
 507 1005 507 1005 420 871 c 0,27,28
 375 802 375 802 375 642 c 2,29,-1
 375 295 l 2,30,31
 375 138 375 138 403 0 c 1,32,-1
 172 0 l 1,0,1
EndSplineSet
Validated: 1
EndChar

StartChar: eth
Encoding: 240 240 189
Width: 1328
Flags: W
HStem: -20 103<496.712 831.534> 1017 103<496.712 810.834> 1121 21G<457.769 525.5> 1490 20G<518 759.5 953.5 1015.23>
VStem: 100 210<317.131 782.869> 1018 210<317.592 787.261>
LayerCount: 2
Fore
SplineSet
664 83 m 0,0,1
 831 83 831 83 934 223 c 0,2,3
 1018 338 1018 338 1018 550 c 128,-1,4
 1018 762 1018 762 934 877 c 0,5,6
 831 1017 831 1017 664 1017 c 0,7,8
 498 1017 498 1017 394 877 c 0,9,10
 310 764 310 764 310 550 c 128,-1,11
 310 336 310 336 394 223 c 0,12,13
 498 83 498 83 664 83 c 0,0,1
664 -20 m 128,-1,15
 436 -20 436 -20 278 128 c 0,16,17
 100 295 100 295 100 550 c 128,-1,18
 100 805 100 805 278 972 c 0,19,20
 436 1120 436 1120 664 1120 c 0,21,22
 746 1120 746 1120 813 1090 c 1,23,-1
 705 1263 l 1,24,25
 584 1205 584 1205 467 1121 c 1,26,-1
 407 1251 l 1,27,28
 544 1288 544 1288 660 1337 c 1,29,30
 604 1428 604 1428 518 1510 c 1,31,-1
 749 1510 l 1,32,33
 770 1449 770 1449 796 1400 c 1,34,35
 901 1454 901 1454 1006 1530 c 1,36,-1
 1066 1400 l 1,37,38
 941 1368 941 1368 836 1325 c 1,39,40
 858 1284 858 1284 887 1242 c 2,41,-1
 1113 917 l 2,42,43
 1228 752 1228 752 1228 550 c 0,44,45
 1228 295 1228 295 1050 128 c 0,46,14
 892 -20 892 -20 664 -20 c 128,-1,15
EndSplineSet
Validated: 1
EndChar

StartChar: oe
Encoding: 339 339 190
Width: 2196
Flags: W
HStem: -20 103<496.712 831.534 1434.86 1788.65> 499 105<1235 1874> 1017 103<496.712 831.772 1415.18 1724.1>
VStem: 100 210<317.131 782.869> 1018 217<296.356 499 604 804.64> 1874 222<604 797.749>
LayerCount: 2
Fore
SplineSet
664 83 m 0,0,1
 831 83 831 83 934 223 c 0,2,3
 1018 338 1018 338 1018 550 c 128,-1,4
 1018 762 1018 762 934 877 c 0,5,6
 831 1017 831 1017 664 1017 c 0,7,8
 498 1017 498 1017 394 877 c 0,9,10
 310 764 310 764 310 550 c 128,-1,11
 310 336 310 336 394 223 c 0,12,13
 498 83 498 83 664 83 c 0,0,1
664 -20 m 128,-1,15
 436 -20 436 -20 278 128 c 0,16,17
 100 295 100 295 100 550 c 128,-1,18
 100 805 100 805 278 972 c 0,19,20
 436 1120 436 1120 664 1120 c 0,21,22
 893 1120 893 1120 1050 972 c 0,23,24
 1091 933 1091 933 1123 890 c 1,25,26
 1155 933 1155 933 1196 972 c 0,27,28
 1355 1120 1355 1120 1572 1120 c 0,29,30
 1834 1120 1834 1120 1978 930 c 0,31,32
 2096 774 2096 774 2096 550 c 1,33,-1
 2045 499 l 9,34,-1
 1235 499 l 1,35,36
 1245 323 1245 323 1324 222 c 0,37,38
 1432 84 1432 84 1622 84 c 0,39,40
 1831 84 1831 84 1986 329 c 1,41,-1
 1996 328 l 1,42,-1
 1996 122 l 1,43,44
 1827 -20 1827 -20 1622 -20 c 0,45,46
 1352 -20 1352 -20 1196 128 c 0,47,48
 1155 167 1155 167 1123 210 c 1,49,50
 1091 167 1091 167 1050 128 c 0,51,14
 892 -20 892 -20 664 -20 c 128,-1,15
1235 604 m 1,52,-1
 1874 604 l 1,53,54
 1865 789 1865 789 1815 874 c 0,55,56
 1732 1017 1732 1017 1572 1017 c 0,57,58
 1416 1017 1416 1017 1312 877 c 0,59,60
 1244 785 1244 785 1235 604 c 1,52,-1
EndSplineSet
Validated: 1
EndChar

StartChar: tbar
Encoding: 359 359 191
Width: 795
Flags: W
HStem: 0 21G<282 513> 535 85<72.0273 310 485 724.003> 967 105<24.4365 310 485 770.471> 1080 20G<20 90.5 703 775> 1530 20G<412 498.5>
VStem: 310 175<4.50146 535 620 967 1072 1500.14>
LayerCount: 2
Fore
SplineSet
282 0 m 1,0,1
 310 144 310 144 310 294 c 2,2,-1
 310 535 l 1,3,4
 195 530 195 530 68 506 c 1,5,-1
 68 649 l 1,6,7
 197 625 197 625 310 620 c 1,8,-1
 310 967 l 1,9,-1
 300 967 l 2,10,11
 162 967 162 967 20 939 c 1,12,-1
 20 1100 l 1,13,14
 161 1072 161 1072 300 1072 c 2,15,-1
 310 1072 l 1,16,-1
 310 1208 l 2,17,18
 310 1381 310 1381 282 1504 c 1,19,-1
 512 1550 l 1,20,21
 485 1395 485 1395 485 1259 c 2,22,-1
 485 1072 l 1,23,-1
 495 1072 l 2,24,25
 631 1072 631 1072 775 1100 c 1,26,-1
 775 939 l 1,27,28
 630 967 630 967 495 967 c 2,29,-1
 485 967 l 1,30,-1
 485 620 l 1,31,32
 601 625 601 625 728 649 c 1,33,-1
 728 506 l 1,34,35
 600 530 600 530 485 535 c 1,36,-1
 485 294 l 2,37,38
 485 143 485 143 513 0 c 1,39,-1
 282 0 l 1,0,1
EndSplineSet
Validated: 1
EndChar

StartChar: thorn
Encoding: 254 254 192
Width: 1348
Flags: W
HStem: -410 21G<172 403> -20 103<509.93 839.487> 1017 103<509.023 839.027> 1530 20G<302 388.5>
VStem: 200 175<-405.745 106 214.387 885.613 996 1499.19> 1038 210<318.494 782.256>
LayerCount: 2
Fore
SplineSet
664 83 m 0,0,1
 840 83 840 83 944 223 c 0,2,3
 1038 349 1038 349 1038 550 c 128,-1,4
 1038 751 1038 751 944 877 c 0,5,6
 840 1017 840 1017 664 1017 c 0,7,8
 509 1017 509 1017 414 877 c 24,9,10
 375 820 375 820 375 705 c 2,11,-1
 375 395 l 2,12,13
 375 280 375 280 414 223 c 24,14,15
 509 83 509 83 664 83 c 0,0,1
684 -20 m 0,16,17
 493 -20 493 -20 375 106 c 1,18,-1
 375 -116 l 2,19,20
 375 -274 375 -274 403 -410 c 1,21,-1
 172 -410 l 1,22,23
 200 -275 200 -275 200 -116 c 2,24,-1
 200 1208 l 2,25,26
 200 1350 200 1350 172 1504 c 1,27,-1
 402 1550 l 1,28,29
 375 1394 375 1394 375 1259 c 2,30,-1
 375 996 l 1,31,32
 499 1120 499 1120 684 1120 c 0,33,34
 912 1120 912 1120 1070 972 c 0,35,36
 1248 805 1248 805 1248 550 c 0,37,38
 1248 298 1248 298 1070 128 c 0,39,40
 914 -20 914 -20 684 -20 c 0,16,17
EndSplineSet
Validated: 1
EndChar

StartChar: Thorn
Encoding: 222 222 193
Width: 1142
Flags: W
HStem: 0 21G<170 420> 312 125<390 682.141> 1088 124<390 682.141> 1490 20G<170 420>
VStem: 200 190<4.69043 312 437 1088 1212 1505.31> 832 210<581.977 942.023>
LayerCount: 2
Fore
SplineSet
390 437 m 1,0,-1
 510 437 l 2,1,2
 656 437 656 437 751 533 c 0,3,4
 832 615 832 615 832 762 c 128,-1,5
 832 909 832 909 751 991 c 0,6,7
 655 1088 655 1088 510 1088 c 2,8,-1
 390 1088 l 1,9,-1
 390 437 l 1,0,-1
170 0 m 1,10,11
 200 150 200 150 200 300 c 2,12,-1
 200 1210 l 2,13,14
 200 1360 200 1360 170 1510 c 1,15,-1
 420 1510 l 1,16,17
 390 1361 390 1361 390 1212 c 1,18,-1
 520 1212 l 2,19,20
 754 1212 754 1212 893 1097 c 0,21,22
 1042 974 1042 974 1042 762 c 128,-1,23
 1042 550 1042 550 893 427 c 0,24,25
 754 312 754 312 520 312 c 2,26,-1
 390 312 l 1,27,28
 390 150 390 150 420 0 c 1,29,-1
 170 0 l 1,10,11
EndSplineSet
Validated: 1
EndChar

StartChar: germandbls
Encoding: 223 223 194
Width: 1213
Flags: W
HStem: 0 88<561 733.644> 792 92<577 699.456> 1446 84<453.569 711.805>
VStem: 202 175<4.6875 1341.89> 801 184<1018.09 1358.21> 913 200<261.937 639.695>
LayerCount: 2
Fore
SplineSet
172 0 m 1,0,1
 202 150 202 150 202 300 c 2,2,-1
 202 1120 l 2,3,4
 202 1341 202 1341 323 1440 c 0,5,6
 434 1530 434 1530 590 1530 c 0,7,8
 757 1530 757 1530 865 1443 c 0,9,10
 985 1347 985 1347 985 1185 c 128,-1,11
 985 1023 985 1023 850 914 c 0,12,13
 809 881 809 881 737 849 c 1,14,15
 860 840 860 840 951 775 c 0,16,17
 1113 659 1113 659 1113 450 c 0,18,19
 1113 248 1113 248 953 122 c 0,20,21
 798 0 798 0 561 0 c 1,22,-1
 561 88 l 1,23,24
 724 88 724 88 829 205 c 0,25,26
 913 298 913 298 913 450 c 0,27,28
 913 603 913 603 832 689 c 0,29,30
 735 792 735 792 577 792 c 1,31,-1
 577 884 l 1,32,33
 670 884 670 884 744 970 c 0,34,35
 801 1037 801 1037 801 1182 c 0,36,37
 801 1304 801 1304 749 1369 c 0,38,39
 686 1446 686 1446 575 1446 c 0,40,41
 479 1446 479 1446 423 1374 c 0,42,43
 377 1315 377 1315 377 1175 c 2,44,-1
 377 300 l 2,45,46
 377 142 377 142 407 0 c 1,47,-1
 172 0 l 1,0,1
EndSplineSet
Validated: 1
EndChar

StartChar: afii61352
Encoding: 8470 8470 195
Width: 2230
Flags: W
HStem: 0 21G<170 372 1156 1400 1528 1603 2052.5 2128> 30 94<1532.69 2123.25> 256 73<1736.16 1920.03> 775 72<1736.24 1917.55> 1490 20G<170 416.5 1198 1400>
VStem: 200 142<4.6875 1177> 1228 142<348 1505.07> 1526 145<392.089 712.664> 1985 145<392.119 711.71>
DStem2: 536 1252 342 1177 0.602637 -0.798016<-56.0388 1138.22>
LayerCount: 2
Fore
SplineSet
1828 847 m 0,0,1
 1954 847 1954 847 2039 768 c 0,2,3
 2130 682 2130 682 2130 552 c 128,-1,4
 2130 422 2130 422 2039 335 c 0,5,6
 1954 256 1954 256 1828 256 c 128,-1,7
 1702 256 1702 256 1617 335 c 0,8,9
 1526 422 1526 422 1526 552 c 128,-1,10
 1526 682 1526 682 1617 768 c 0,11,12
 1703 847 1703 847 1828 847 c 0,0,1
1828 775 m 0,13,14
 1760 775 1760 775 1713 714 c 24,15,16
 1671 659 1671 659 1671 552 c 0,17,18
 1671 447 1671 447 1712 392 c 0,19,20
 1758 329 1758 329 1828 329 c 0,21,22
 1899 329 1899 329 1944 392 c 24,23,24
 1985 449 1985 449 1985 552 c 0,25,26
 1985 660 1985 660 1944 712 c 0,27,28
 1895 775 1895 775 1828 775 c 0,13,14
1528 154 m 1,29,30
 1678 124 1678 124 1828 124 c 0,31,32
 1976 124 1976 124 2128 154 c 1,33,-1
 2128 0 l 1,34,35
 1977 30 1977 30 1828 30 c 0,36,37
 1678 30 1678 30 1528 0 c 1,38,-1
 1528 154 l 1,29,30
170 0 m 1,39,40
 200 150 200 150 200 300 c 2,41,-1
 200 1210 l 2,42,43
 200 1360 200 1360 170 1510 c 1,44,-1
 379 1510 l 1,45,46
 454 1359 454 1359 536 1252 c 2,47,-1
 1228 348 l 17,48,-1
 1228 1210 l 2,49,50
 1228 1352 1228 1352 1198 1510 c 1,51,-1
 1400 1510 l 1,52,53
 1370 1360 1370 1360 1370 1210 c 2,54,-1
 1370 300 l 2,55,56
 1370 150 1370 150 1400 0 c 1,57,-1
 1193 0 l 1,58,59
 1119 148 1119 148 1036 258 c 2,60,-1
 342 1177 l 17,61,-1
 342 300 l 2,62,63
 342 150 342 150 372 0 c 1,64,-1
 170 0 l 1,39,40
EndSplineSet
Validated: 1
EndChar

StartChar: uni2117
Encoding: 8471 8471 196
Width: 1401
Flags: W
HStem: 386 73<514.363 877.958> 870 102<637 782.682> 1258 102<637.354 782.682> 1453 77<516.855 884.866>
VStem: 150 74<769.065 1151.31> 497 140<567.964 870 972 1256.94> 818 150<1010.61 1219.35> 1176 75<757.62 1158.43>
LayerCount: 2
Fore
SplineSet
1176 953 m 0,0,1
 1176 1174 1176 1174 1039 1309 c 0,2,3
 893 1453 893 1453 699 1453 c 0,4,5
 509 1453 509 1453 367 1312 c 0,6,7
 224 1170 224 1170 224 953 c 0,8,9
 224 761 224 761 364 605 c 0,10,11
 495 459 495 459 701 459 c 0,12,13
 892 459 892 459 1037 605 c 0,14,15
 1176 745 1176 745 1176 953 c 0,0,1
478 565 m 1,16,17
 497 638 497 638 497 735 c 2,18,-1
 497 1190 l 2,19,20
 497 1288 497 1288 478 1360 c 1,21,-1
 677 1360 l 2,22,23
 813 1360 813 1360 887 1294 c 0,24,25
 968 1223 968 1223 968 1115 c 0,26,27
 968 1011 968 1011 885 938 c 0,28,29
 807 870 807 870 677 870 c 2,30,-1
 637 870 l 1,31,-1
 637 735 l 2,32,33
 637 660 637 660 657 565 c 1,34,-1
 478 565 l 1,16,17
701 1530 m 0,35,36
 943 1530 943 1530 1099 1357 c 0,37,38
 1251 1188 1251 1188 1251 953 c 0,39,40
 1251 702 1251 702 1090 549 c 0,41,42
 918 386 918 386 699 386 c 0,43,44
 476 386 476 386 311 549 c 0,45,46
 150 708 150 708 150 953 c 0,47,48
 150 1197 150 1197 308 1362 c 0,49,50
 469 1530 469 1530 701 1530 c 0,35,36
637 972 m 1,51,-1
 677 972 l 2,52,53
 742 972 742 972 784 1015 c 0,54,55
 818 1050 818 1050 818 1115 c 128,-1,56
 818 1180 818 1180 784 1215 c 0,57,58
 742 1258 742 1258 677 1258 c 2,59,-1
 640 1258 l 1,60,61
 637 1224 637 1224 637 1190 c 2,62,-1
 637 972 l 1,51,-1
EndSplineSet
Validated: 1
EndChar

StartChar: integral
Encoding: 8747 8747 197
Width: 1025
Flags: W
HStem: -430 115<89.8311 336.093> 1415 115<688.907 935.169>
VStem: 20 10<-174.191 -160> 425 175<-214.646 1314.65> 995 10<1260 1274.19>
CounterMasks: 1 38
LayerCount: 2
Fore
SplineSet
20 -411 m 1,0,-1
 20 -160 l 1,1,-1
 30 -160 l 1,2,3
 76 -315 76 -315 200 -315 c 0,4,5
 315 -315 315 -315 374 -228 c 0,6,7
 425 -152 425 -152 425 35 c 2,8,-1
 425 1064 l 2,9,10
 425 1295 425 1295 522 1404 c 0,11,12
 634 1530 634 1530 843 1530 c 0,13,14
 927 1530 927 1530 1005 1511 c 1,15,-1
 1005 1260 l 1,16,-1
 995 1260 l 1,17,18
 949 1415 949 1415 825 1415 c 0,19,20
 710 1415 710 1415 651 1328 c 0,21,22
 600 1252 600 1252 600 1065 c 2,23,-1
 600 36 l 2,24,25
 600 -195 600 -195 503 -304 c 0,26,27
 391 -430 391 -430 182 -430 c 0,28,29
 98 -430 98 -430 20 -411 c 1,0,-1
EndSplineSet
Validated: 1
EndChar

StartChar: caron
Encoding: 711 711 198
Width: 653
Flags: W
HStem: 1200 330
VStem: 50 553
LayerCount: 2
Fore
SplineSet
50 1530 m 1,0,-1
 243 1530 l 1,1,2
 306 1425 306 1425 326 1311 c 1,3,4
 346 1426 346 1426 410 1530 c 1,5,-1
 603 1530 l 1,6,-1
 603 1520 l 1,7,8
 466 1394 466 1394 396 1200 c 1,9,-1
 257 1200 l 1,10,11
 190 1395 190 1395 50 1520 c 1,12,-1
 50 1530 l 1,0,-1
EndSplineSet
Validated: 1
EndChar

StartChar: circumflex
Encoding: 710 710 199
Width: 653
Flags: W
HStem: 1200 330
VStem: 50 553
LayerCount: 2
Fore
SplineSet
257 1530 m 1,0,-1
 396 1530 l 1,1,2
 463 1335 463 1335 603 1210 c 1,3,-1
 603 1200 l 1,4,-1
 410 1200 l 1,5,6
 347 1305 347 1305 327 1419 c 1,7,8
 307 1304 307 1304 243 1200 c 1,9,-1
 50 1200 l 1,10,-1
 50 1210 l 1,11,12
 187 1336 187 1336 257 1530 c 1,0,-1
EndSplineSet
Validated: 1
EndChar

StartChar: uni02C9
Encoding: 713 713 200
Width: 640
Flags: W
HStem: 1308 114<54.6802 585.258>
VStem: 50 540
LayerCount: 2
Fore
SplineSet
50 1452 m 1,0,1
 200 1422 200 1422 320 1422 c 0,2,3
 438 1422 438 1422 590 1452 c 1,4,-1
 590 1278 l 1,5,6
 439 1308 439 1308 320 1308 c 0,7,8
 200 1308 200 1308 50 1278 c 1,9,-1
 50 1452 l 1,0,1
EndSplineSet
Validated: 1
EndChar

StartChar: dotaccent
Encoding: 729 729 201
Width: 360
Flags: W
HStem: 1266 264<89.1914 270.809>
VStem: 50 260<1305.71 1490.29>
LayerCount: 2
Fore
SplineSet
180 1530 m 128,-1,1
 234 1530 234 1530 272 1491.5 c 128,-1,2
 310 1453 310 1453 310 1398 c 128,-1,3
 310 1343 310 1343 272 1304.5 c 128,-1,4
 234 1266 234 1266 180 1266 c 128,-1,5
 126 1266 126 1266 88 1304.5 c 128,-1,6
 50 1343 50 1343 50 1398 c 128,-1,7
 50 1453 50 1453 88 1491.5 c 128,-1,0
 126 1530 126 1530 180 1530 c 128,-1,1
EndSplineSet
Validated: 1
EndChar

StartChar: ring
Encoding: 730 730 202
Width: 500
Flags: W
HStem: 1156 99<165.552 326.702> 1461 99<173.008 327.387>
VStem: 50 98<1272.5 1436.07> 352 98<1279.21 1435.84>
LayerCount: 2
Fore
SplineSet
250 1255 m 256,0,1
 293 1255 293 1255 322 1285 c 0,2,3
 352 1317 352 1317 352 1358 c 0,4,5
 352 1401 352 1401 322 1431 c 128,-1,6
 292 1461 292 1461 251 1461 c 0,7,8
 207 1461 207 1461 178 1431 c 0,9,10
 148 1400 148 1400 148 1358 c 0,11,12
 148 1315 148 1315 178 1285 c 0,13,14
 207 1255 207 1255 250 1255 c 256,0,1
252 1560 m 0,15,16
 333 1560 333 1560 391 1501 c 0,17,18
 450 1440 450 1440 450 1359 c 0,19,20
 450 1275 450 1275 391 1216 c 0,21,22
 331 1156 331 1156 250 1156 c 256,23,24
 169 1156 169 1156 109 1216 c 0,25,26
 50 1275 50 1275 50 1359 c 0,27,28
 50 1441 50 1441 109 1501 c 0,29,30
 167 1560 167 1560 252 1560 c 0,15,16
EndSplineSet
Validated: 1
EndChar

StartChar: breve
Encoding: 728 728 203
Width: 640
Flags: W
HStem: 1249 134<161.201 478.799> 1510 20G<50 108.5 531.5 590>
VStem: 50 540<1307.09 1383>
LayerCount: 2
Fore
SplineSet
50 1530 m 17,0,-1
 60 1530 l 1,1,2
 157 1383 157 1383 320 1383 c 128,-1,3
 483 1383 483 1383 580 1530 c 1,4,-1
 590 1530 l 9,5,-1
 590 1337 l 1,6,7
 478 1249 478 1249 320 1249 c 128,-1,8
 162 1249 162 1249 50 1337 c 1,9,-1
 50 1530 l 17,0,-1
EndSplineSet
Validated: 1
EndChar

StartChar: hungarumlaut
Encoding: 733 733 204
Width: 736
Flags: W
HStem: 1200 330
VStem: 207 222<1433.33 1530> 464 222<1433.33 1530>
LayerCount: 2
Fore
SplineSet
686 1530 m 1,0,-1
 686 1520 l 1,1,2
 618 1345 618 1345 430 1200 c 1,3,-1
 307 1200 l 17,4,-1
 307 1210 l 1,5,6
 464 1366 464 1366 464 1530 c 1,7,-1
 686 1530 l 1,0,-1
429 1530 m 1,8,-1
 429 1520 l 1,9,10
 361 1345 361 1345 173 1200 c 1,11,-1
 50 1200 l 17,12,-1
 50 1210 l 1,13,14
 207 1366 207 1366 207 1530 c 1,15,-1
 429 1530 l 1,8,-1
EndSplineSet
Validated: 1
EndChar

StartChar: tilde
Encoding: 732 732 205
Width: 640
Flags: W
HStem: 1258 130<389.78 544.486> 1418 130<95.423 251.101> 1498 20G<563 590>
VStem: 50 9<1288 1299.9> 580 10<1502.26 1518>
DStem2: 318 1489 321 1317 0.785356 -0.619045<-73.1565 182.822>
LayerCount: 2
Fore
SplineSet
50 1494 m 1,0,1
 103 1548 103 1548 182 1548 c 0,2,3
 243 1548 243 1548 318 1489 c 2,4,-1
 403 1422 l 2,5,6
 446 1388 446 1388 472 1388 c 256,7,8
 546 1388 546 1388 580 1518 c 1,9,-1
 590 1518 l 1,10,-1
 590 1312 l 1,11,12
 537 1258 537 1258 459 1258 c 0,13,14
 394 1258 394 1258 321 1317 c 2,15,-1
 237 1385 l 2,16,17
 196 1418 196 1418 168 1418 c 256,18,19
 94 1418 94 1418 59 1288 c 1,20,-1
 50 1288 l 1,21,-1
 50 1494 l 1,0,1
EndSplineSet
Validated: 1
EndChar

StartChar: ogonek
Encoding: 731 731 206
Width: 376
Flags: W
HStem: -460 138<211.786 326>
VStem: 50 141<-301.135 -82.3386>
LayerCount: 2
Fore
SplineSet
238 63 m 1,0,1
 287 0 l 1,2,3
 191 -85 191 -85 191 -211 c 0,4,5
 191 -322 191 -322 326 -322 c 1,6,-1
 326 -460 l 1,7,8
 50 -460 50 -460 50 -253 c 0,9,10
 50 -60 50 -60 238 63 c 1,0,1
EndSplineSet
Validated: 1
EndChar

StartChar: uni1E9E
Encoding: 7838 7838 207
Width: 1366
Flags: W
HStem: -20 104<693.367 987.936> 0 21G<172 422> 1219 79<902.844 988> 1410 120<572.157 908.856>
VStem: 202 190<5.7334 1185.78> 531 10<320.157 334> 603 191<896.91 1132.25> 1079 187<193.86 465.482>
DStem2: 905 832 823 647 0.806405 -0.591364<-157.138 368.536>
LayerCount: 2
Fore
SplineSet
172 0 m 1,0,1
 202 150 202 150 202 300 c 2,2,-1
 202 864 l 2,3,4
 202 1191 202 1191 335 1355 c 0,5,6
 476 1530 476 1530 742 1530 c 0,7,8
 1046 1530 1046 1530 1187 1217 c 1,9,10
 1155 1219 1155 1219 1125 1219 c 0,11,12
 956 1219 956 1219 878 1167 c 0,13,14
 794 1111 794 1111 794 1014 c 0,15,16
 794 913 794 913 905 832 c 2,17,-1
 1070 711 l 2,18,19
 1266 567 1266 567 1266 378 c 0,20,21
 1266 193 1266 193 1121 72 c 0,22,23
 1012 -20 1012 -20 859 -20 c 0,24,25
 683 -20 683 -20 531 71 c 1,26,-1
 531 334 l 1,27,-1
 541 334 l 1,28,29
 567 244 567 244 617 190 c 0,30,31
 715 84 715 84 853 84 c 0,32,33
 956 84 956 84 1023 161 c 0,34,35
 1079 225 1079 225 1079 324 c 0,36,37
 1079 454 1079 454 962 542 c 2,38,-1
 823 647 l 2,39,40
 603 813 603 813 603 974 c 0,41,42
 603 1141 603 1141 754 1240 c 0,43,44
 843 1298 843 1298 988 1298 c 1,45,46
 893 1410 893 1410 747 1410 c 0,47,48
 570 1410 570 1410 477 1277 c 0,49,50
 393 1159 393 1159 393 913 c 2,51,-1
 392 300 l 2,52,53
 392 184 392 184 422 0 c 1,54,-1
 172 0 l 1,0,1
EndSplineSet
Validated: 1
EndChar

StartChar: uni1E02
Encoding: 7682 7682 208
Width: 1152
Flags: W
HStem: 0 124<390.625 668.308> 775 125<385 627.967> 1386 124<390.625 649.125> 1670 264<429.191 610.809>
VStem: 200 185<126.75 775 900 1383.25> 390 260<1709.71 1894.29> 735 189<1008.59 1301.68> 836 216<279.625 617.93>
LayerCount: 2
Fore
SplineSet
520 1934 m 128,-1,1
 574 1934 574 1934 612 1895.5 c 128,-1,2
 650 1857 650 1857 650 1802 c 128,-1,3
 650 1747 650 1747 612 1708.5 c 128,-1,4
 574 1670 574 1670 520 1670 c 128,-1,5
 466 1670 466 1670 428 1708.5 c 128,-1,6
 390 1747 390 1747 390 1802 c 128,-1,7
 390 1857 390 1857 428 1895.5 c 128,-1,0
 466 1934 466 1934 520 1934 c 128,-1,1
395 124 m 1,8,-1
 495 124 l 2,9,10
 642 124 642 124 746 223 c 0,11,12
 836 309 836 309 836 450 c 0,13,14
 836 587 836 587 746 676 c 0,15,16
 646 775 646 775 495 775 c 2,17,-1
 385 775 l 1,18,-1
 385 300 l 2,19,20
 385 212 385 212 395 124 c 1,8,-1
170 0 m 1,21,22
 200 150 200 150 200 300 c 2,23,-1
 200 1210 l 2,24,25
 200 1360 200 1360 170 1510 c 1,26,-1
 525 1510 l 2,27,28
 704 1510 704 1510 811 1423 c 0,29,30
 924 1331 924 1331 924 1169 c 0,31,32
 924 1016 924 1016 799 914 c 0,33,34
 738 864 738 864 694 850 c 1,35,36
 815 832 815 832 894 770 c 0,37,38
 1052 644 1052 644 1052 450 c 0,39,40
 1052 263 1052 263 899 125 c 0,41,42
 759 0 759 0 510 0 c 2,43,-1
 170 0 l 1,21,22
385 900 m 1,44,-1
 491 900 l 2,45,46
 600 900 600 900 676 988 c 0,47,48
 735 1056 735 1056 735 1170 c 0,49,50
 735 1260 735 1260 671 1325 c 0,51,52
 611 1386 611 1386 491 1386 c 2,53,-1
 395 1386 l 1,54,55
 385 1298 385 1298 385 1210 c 2,56,-1
 385 900 l 1,44,-1
EndSplineSet
Validated: 1
EndChar

StartChar: uni1E03
Encoding: 7683 7683 209
Width: 1348
Flags: W
HStem: -20 103<509.321 839.487> 0 21G<172 403> 1017 103<509.68 839.027> 1530 20G<302 388.5> 1670 264<197.191 378.809>
VStem: 158 260<1709.71 1894.29> 200 175<216 885.613 996 1499.19> 1038 210<318.494 782.256>
LayerCount: 2
Fore
SplineSet
288 1934 m 128,-1,1
 342 1934 342 1934 380 1895.5 c 128,-1,2
 418 1857 418 1857 418 1802 c 128,-1,3
 418 1747 418 1747 380 1708.5 c 128,-1,4
 342 1670 342 1670 288 1670 c 128,-1,5
 234 1670 234 1670 196 1708.5 c 128,-1,6
 158 1747 158 1747 158 1802 c 128,-1,7
 158 1857 158 1857 196 1895.5 c 128,-1,0
 234 1934 234 1934 288 1934 c 128,-1,1
664 83 m 0,8,9
 840 83 840 83 944 223 c 0,10,11
 1038 349 1038 349 1038 550 c 128,-1,12
 1038 751 1038 751 944 877 c 0,13,14
 840 1017 840 1017 664 1017 c 0,15,16
 509 1017 509 1017 414 877 c 24,17,18
 375 820 375 820 375 705 c 2,19,-1
 375 395 l 2,20,21
 375 280 375 280 414 223 c 24,22,23
 509 83 509 83 664 83 c 0,8,9
172 0 m 1,24,25
 200 135 200 135 200 294 c 2,26,-1
 200 1208 l 2,27,28
 200 1350 200 1350 172 1504 c 1,29,-1
 402 1550 l 1,30,31
 375 1394 375 1394 375 1259 c 2,32,-1
 375 996 l 1,33,34
 492 1120 492 1120 684 1120 c 0,35,36
 912 1120 912 1120 1070 972 c 0,37,38
 1248 805 1248 805 1248 550 c 0,39,40
 1248 298 1248 298 1070 128 c 0,41,42
 914 -20 914 -20 684 -20 c 0,43,44
 503 -20 503 -20 387 93 c 1,45,46
 393 45 393 45 403 0 c 1,47,-1
 172 0 l 1,24,25
EndSplineSet
Validated: 1
EndChar

StartChar: uni1E0A
Encoding: 7690 7690 210
Width: 1599
Flags: W
HStem: 0 124<394.5 929.335> 1386 124<395.625 928.544> 1670 264<612.191 793.809>
VStem: 200 190<126.658 1383.31> 573 260<1709.71 1894.29> 1274 225<493.547 1015.47>
LayerCount: 2
Fore
SplineSet
703 1934 m 128,-1,1
 757 1934 757 1934 795 1895.5 c 128,-1,2
 833 1857 833 1857 833 1802 c 128,-1,3
 833 1747 833 1747 795 1708.5 c 128,-1,4
 757 1670 757 1670 703 1670 c 128,-1,5
 649 1670 649 1670 611 1708.5 c 128,-1,6
 573 1747 573 1747 573 1802 c 128,-1,7
 573 1857 573 1857 611 1895.5 c 128,-1,0
 649 1934 649 1934 703 1934 c 128,-1,1
170 0 m 1,8,9
 200 150 200 150 200 300 c 2,10,-1
 200 1210 l 2,11,12
 200 1360 200 1360 170 1510 c 1,13,-1
 696 1510 l 2,14,15
 1042 1510 1042 1510 1263 1307 c 0,16,17
 1499 1089 1499 1089 1499 755 c 0,18,19
 1499 420 1499 420 1262 201 c 0,20,21
 1044 0 1044 0 696 0 c 2,22,-1
 170 0 l 1,8,9
398 124 m 1,23,-1
 696 124 l 2,24,25
 983 124 983 124 1137 324 c 0,26,27
 1274 502 1274 502 1274 755 c 0,28,29
 1274 1007 1274 1007 1138 1184 c 0,30,31
 985 1382 985 1382 697 1384 c 2,32,-1
 400 1386 l 1,33,34
 390 1300 390 1300 390 1210 c 2,35,-1
 390 300 l 2,36,37
 390 209 390 209 398 124 c 1,23,-1
EndSplineSet
Validated: 1
EndChar

StartChar: uni1E0B
Encoding: 7691 7691 211
Width: 1348
Flags: W
HStem: -20 103<508.513 838.679> 0 21G<945 1176> 1017 103<508.973 838.32> 1530 20G<1075 1161.5> 1670 264<963.191 1144.81>
VStem: 100 210<318.494 782.256> 924 260<1709.71 1894.29> 973 175<216.375 885.613 996 1499.19>
LayerCount: 2
Fore
SplineSet
1054 1934 m 128,-1,1
 1108 1934 1108 1934 1146 1895.5 c 128,-1,2
 1184 1857 1184 1857 1184 1802 c 128,-1,3
 1184 1747 1184 1747 1146 1708.5 c 128,-1,4
 1108 1670 1108 1670 1054 1670 c 128,-1,5
 1000 1670 1000 1670 962 1708.5 c 128,-1,6
 924 1747 924 1747 924 1802 c 128,-1,7
 924 1857 924 1857 962 1895.5 c 128,-1,0
 1000 1934 1000 1934 1054 1934 c 128,-1,1
684 83 m 0,8,9
 839 83 839 83 934 223 c 24,10,11
 973 280 973 280 973 395 c 2,12,-1
 973 705 l 2,13,14
 973 820 973 820 934 877 c 24,15,16
 839 1017 839 1017 684 1017 c 0,17,18
 508 1017 508 1017 404 877 c 0,19,20
 310 751 310 751 310 550 c 128,-1,21
 310 349 310 349 404 223 c 0,22,23
 508 83 508 83 684 83 c 0,8,9
1176 0 m 1,24,-1
 945 0 l 1,25,26
 954 45 954 45 961 93 c 1,27,28
 845 -20 845 -20 664 -20 c 0,29,30
 434 -20 434 -20 278 128 c 0,31,32
 100 298 100 298 100 550 c 0,33,34
 100 805 100 805 278 972 c 0,35,36
 436 1120 436 1120 664 1120 c 0,37,38
 856 1120 856 1120 973 996 c 1,39,-1
 973 1208 l 2,40,41
 973 1350 973 1350 945 1504 c 1,42,-1
 1175 1550 l 1,43,44
 1148 1394 1148 1394 1148 1259 c 2,45,-1
 1148 294 l 2,46,47
 1148 136 1148 136 1176 0 c 1,24,-1
EndSplineSet
Validated: 1
EndChar

StartChar: uni1E1E
Encoding: 7710 7710 212
Width: 1028
Flags: W
HStem: 0 21G<170 420> 697 124<390 843.312> 1386 124<395.862 843.312> 1670 264<439.191 620.809>
VStem: 200 190<4.6875 697 821 1381.7> 400 260<1709.71 1894.29>
LayerCount: 2
Fore
SplineSet
530 1934 m 128,-1,1
 584 1934 584 1934 622 1895.5 c 128,-1,2
 660 1857 660 1857 660 1802 c 128,-1,3
 660 1747 660 1747 622 1708.5 c 128,-1,4
 584 1670 584 1670 530 1670 c 128,-1,5
 476 1670 476 1670 438 1708.5 c 128,-1,6
 400 1747 400 1747 400 1802 c 128,-1,7
 400 1857 400 1857 438 1895.5 c 128,-1,0
 476 1934 476 1934 530 1934 c 128,-1,1
170 0 m 1,8,9
 200 150 200 150 200 300 c 2,10,-1
 200 1210 l 2,11,12
 200 1366 200 1366 170 1510 c 1,13,-1
 848 1510 l 1,14,-1
 848 1356 l 1,15,16
 698 1386 698 1386 548 1386 c 2,17,-1
 400 1386 l 1,18,19
 390 1294 390 1294 390 1210 c 2,20,-1
 390 821 l 1,21,-1
 548 821 l 2,22,23
 698 821 698 821 848 851 c 1,24,-1
 848 667 l 1,25,26
 698 697 698 697 548 697 c 2,27,-1
 390 697 l 1,28,-1
 390 300 l 2,29,30
 390 150 390 150 420 0 c 1,31,-1
 170 0 l 1,8,9
EndSplineSet
Validated: 1
EndChar

StartChar: uni1E1F
Encoding: 7711 7711 213
Width: 800
Flags: W
HStem: 0 21G<172 403> 786 105<52.2798 200 375 660.471> 1445 85<468.932 707.609> 1670 264<399.191 580.809>
VStem: 200 175<4.62451 786 891 1319.33> 360 260<1709.71 1894.29> 770 10<1290 1304.19>
LayerCount: 2
Fore
SplineSet
172 0 m 1,0,1
 200 148 200 148 200 294 c 2,2,-1
 200 786 l 1,3,-1
 190 786 l 2,4,5
 123 786 123 786 50 760 c 1,6,-1
 50 917 l 1,7,8
 123 891 123 891 190 891 c 2,9,-1
 200 891 l 1,10,-1
 200 1064 l 2,11,12
 200 1295 200 1295 297 1404 c 0,13,14
 409 1530 409 1530 618 1530 c 0,15,16
 702 1530 702 1530 780 1511 c 1,17,-1
 780 1290 l 1,18,-1
 770 1290 l 1,19,20
 724 1445 724 1445 600 1445 c 0,21,22
 485 1445 485 1445 426 1358 c 0,23,24
 375 1282 375 1282 375 1095 c 2,25,-1
 375 891 l 1,26,-1
 385 891 l 2,27,28
 521 891 521 891 665 919 c 1,29,-1
 665 758 l 1,30,31
 520 786 520 786 385 786 c 2,32,-1
 375 786 l 1,33,-1
 375 294 l 2,34,35
 375 148 375 148 403 0 c 1,36,-1
 172 0 l 1,0,1
490 1934 m 128,-1,38
 544 1934 544 1934 582 1895.5 c 128,-1,39
 620 1857 620 1857 620 1802 c 128,-1,40
 620 1747 620 1747 582 1708.5 c 128,-1,41
 544 1670 544 1670 490 1670 c 128,-1,42
 436 1670 436 1670 398 1708.5 c 128,-1,43
 360 1747 360 1747 360 1802 c 128,-1,44
 360 1857 360 1857 398 1895.5 c 128,-1,37
 436 1934 436 1934 490 1934 c 128,-1,38
EndSplineSet
Validated: 1
EndChar

StartChar: uni1E40
Encoding: 7744 7744 214
Width: 2034
Flags: W
HStem: 0 21G<120 322 875.5 1113.5 1662 1914> 1490 20G<253 477 1554.5 1781> 1670 264<941.191 1122.81>
VStem: 253 210<1359.84 1510> 902 260<1709.71 1894.29> 1578 203<1365.74 1510>
DStem2: 257 1209 392 1131 0.0883714 0.996088<-1027.12 -65.7647> 563 1225 392 1131 0.424005 -0.90566<12.6272 1074.57> 1019 251 1196 285 0.426289 0.904587<0.25328 1060.2> 1777 1209 1592 1153 0.0883714 -0.996088<39.4322 1022.76>
LayerCount: 2
Fore
SplineSet
1032 1934 m 128,-1,1
 1086 1934 1086 1934 1124 1895.5 c 128,-1,2
 1162 1857 1162 1857 1162 1802 c 128,-1,3
 1162 1747 1162 1747 1124 1708.5 c 128,-1,4
 1086 1670 1086 1670 1032 1670 c 128,-1,5
 978 1670 978 1670 940 1708.5 c 128,-1,6
 902 1747 902 1747 902 1802 c 128,-1,7
 902 1857 902 1857 940 1895.5 c 128,-1,0
 978 1934 978 1934 1032 1934 c 128,-1,1
120 0 m 1,8,9
 162 143 162 143 176 296 c 2,10,-1
 257 1209 l 2,11,12
 262 1265 262 1265 262 1332 c 0,13,14
 262 1415 262 1415 253 1510 c 1,15,-1
 463 1510 l 1,16,17
 491 1379 491 1379 563 1225 c 2,18,-1
 1019 251 l 25,19,-1
 1478 1225 l 2,20,21
 1531 1337 1531 1337 1578 1510 c 1,22,-1
 1781 1510 l 1,23,24
 1772 1417 1772 1417 1772 1332 c 0,25,26
 1772 1265 1772 1265 1777 1209 c 2,27,-1
 1858 296 l 2,28,29
 1872 143 1872 143 1914 0 c 1,30,-1
 1662 0 l 1,31,32
 1672 86 1672 86 1672 171 c 0,33,34
 1672 232 1672 232 1666 301 c 2,35,-1
 1592 1153 l 1,36,-1
 1196 285 l 2,37,38
 1131 143 1131 143 1096 0 c 1,39,-1
 889 0 l 1,40,41
 862 130 862 130 789 285 c 2,42,-1
 392 1131 l 25,43,-1
 318 301 l 2,44,45
 312 234 312 234 312 171 c 0,46,47
 312 82 312 82 322 0 c 1,48,-1
 120 0 l 1,8,9
EndSplineSet
Validated: 1
EndChar

StartChar: uni1E41
Encoding: 7745 7745 215
Width: 2107
Flags: W
HStem: 0 21G<172 403 933 1169 1699 1935> 1005 115<521.344 828.984 1275.99 1592.71> 1266 264<960.191 1141.81>
VStem: 172 230<965.689 1096.87> 200 175<4.31714 868.224> 921 260<1305.71 1490.29> 961 180<4.62476 867.822> 1727 180<4.62451 866.078>
LayerCount: 2
Fore
SplineSet
1051 1530 m 128,-1,1
 1105 1530 1105 1530 1143 1491.5 c 128,-1,2
 1181 1453 1181 1453 1181 1398 c 128,-1,3
 1181 1343 1181 1343 1143 1304.5 c 128,-1,4
 1105 1266 1105 1266 1051 1266 c 128,-1,5
 997 1266 997 1266 959 1304.5 c 128,-1,6
 921 1343 921 1343 921 1398 c 128,-1,7
 921 1453 921 1453 959 1491.5 c 128,-1,0
 997 1530 997 1530 1051 1530 c 128,-1,1
172 0 m 1,8,9
 200 137 200 137 200 295 c 2,10,-1
 200 797 l 2,11,12
 200 950 200 950 172 1094 c 1,13,-1
 402 1140 l 1,14,15
 386 1049 386 1049 379 963 c 1,16,17
 512 1120 512 1120 724 1120 c 0,18,19
 961 1120 961 1120 1076 947 c 0,20,21
 1086 932 1086 932 1095 916 c 1,22,23
 1120 951 1120 951 1138 970 c 0,24,25
 1269 1120 1269 1120 1490 1120 c 0,26,27
 1726 1120 1726 1120 1842 946 c 0,28,29
 1907 849 1907 849 1907 640 c 2,30,-1
 1907 293 l 2,31,32
 1907 147 1907 147 1935 0 c 1,33,-1
 1699 0 l 1,34,35
 1727 148 1727 148 1727 294 c 2,36,-1
 1727 641 l 2,37,38
 1727 796 1727 796 1681 870 c 0,39,40
 1595 1005 1595 1005 1434 1005 c 0,41,42
 1274 1005 1274 1005 1186 870 c 0,43,44
 1141 801 1141 801 1141 641 c 2,45,-1
 1141 294 l 2,46,47
 1141 147 1141 147 1169 0 c 1,48,-1
 933 0 l 1,49,50
 961 148 961 148 961 295 c 2,51,-1
 961 642 l 2,52,53
 961 797 961 797 915 871 c 0,54,55
 830 1005 830 1005 668 1005 c 0,56,57
 507 1005 507 1005 420 871 c 0,58,59
 375 802 375 802 375 642 c 2,60,-1
 375 295 l 2,61,62
 375 138 375 138 403 0 c 1,63,-1
 172 0 l 1,8,9
EndSplineSet
Validated: 1
EndChar

StartChar: uni1E56
Encoding: 7766 7766 216
Width: 1152
Flags: W
HStem: 0 21G<170 420> 610 125<390 691.672> 1386 124<395.625 692.141> 1670 264<465.191 646.809>
VStem: 200 190<4.6875 610 735 1383.25> 426 260<1709.71 1894.29> 842 210<879.977 1240.02>
LayerCount: 2
Fore
SplineSet
556 1934 m 128,-1,1
 610 1934 610 1934 648 1895.5 c 128,-1,2
 686 1857 686 1857 686 1802 c 128,-1,3
 686 1747 686 1747 648 1708.5 c 128,-1,4
 610 1670 610 1670 556 1670 c 128,-1,5
 502 1670 502 1670 464 1708.5 c 128,-1,6
 426 1747 426 1747 426 1802 c 128,-1,7
 426 1857 426 1857 464 1895.5 c 128,-1,0
 502 1934 502 1934 556 1934 c 128,-1,1
390 735 m 1,8,-1
 520 735 l 2,9,10
 666 735 666 735 761 831 c 0,11,12
 842 913 842 913 842 1060 c 128,-1,13
 842 1207 842 1207 761 1289 c 0,14,15
 665 1386 665 1386 520 1386 c 2,16,-1
 400 1386 l 1,17,18
 390 1298 390 1298 390 1210 c 2,19,-1
 390 735 l 1,8,-1
170 0 m 1,20,21
 200 150 200 150 200 300 c 2,22,-1
 200 1210 l 2,23,24
 200 1360 200 1360 170 1510 c 1,25,-1
 530 1510 l 2,26,27
 764 1510 764 1510 903 1395 c 0,28,29
 1052 1272 1052 1272 1052 1060 c 128,-1,30
 1052 848 1052 848 903 725 c 0,31,32
 763 610 763 610 530 610 c 2,33,-1
 390 610 l 1,34,-1
 390 300 l 2,35,36
 390 150 390 150 420 0 c 1,37,-1
 170 0 l 1,20,21
EndSplineSet
Validated: 1
EndChar

StartChar: uni1E57
Encoding: 7767 7767 217
Width: 1348
Flags: W
HStem: -410 21G<172 403> -20 103<509.93 839.487> 1017 103<509.837 839.027> 1266 264<598.191 779.809>
VStem: 200 175<-405.745 106 214.387 883.37> 559 260<1305.71 1490.29> 1038 210<318.494 782.256>
LayerCount: 2
Fore
SplineSet
689 1530 m 128,-1,1
 743 1530 743 1530 781 1491.5 c 128,-1,2
 819 1453 819 1453 819 1398 c 128,-1,3
 819 1343 819 1343 781 1304.5 c 128,-1,4
 743 1266 743 1266 689 1266 c 128,-1,5
 635 1266 635 1266 597 1304.5 c 128,-1,6
 559 1343 559 1343 559 1398 c 128,-1,7
 559 1453 559 1453 597 1491.5 c 128,-1,0
 635 1530 635 1530 689 1530 c 128,-1,1
664 83 m 0,8,9
 840 83 840 83 944 223 c 0,10,11
 1038 349 1038 349 1038 550 c 128,-1,12
 1038 751 1038 751 944 877 c 0,13,14
 840 1017 840 1017 664 1017 c 0,15,16
 509 1017 509 1017 414 877 c 24,17,18
 375 820 375 820 375 705 c 2,19,-1
 375 395 l 2,20,21
 375 280 375 280 414 223 c 24,22,23
 509 83 509 83 664 83 c 0,8,9
684 -20 m 0,24,25
 493 -20 493 -20 375 106 c 1,26,-1
 375 -116 l 2,27,28
 375 -274 375 -274 403 -410 c 1,29,-1
 172 -410 l 1,30,31
 200 -275 200 -275 200 -116 c 2,32,-1
 200 798 l 2,33,34
 200 940 200 940 172 1094 c 1,35,-1
 402 1140 l 1,36,37
 390 1070 390 1070 383 1005 c 1,38,39
 498 1120 498 1120 684 1120 c 0,40,41
 912 1120 912 1120 1070 972 c 0,42,43
 1248 805 1248 805 1248 550 c 0,44,45
 1248 298 1248 298 1070 128 c 0,46,47
 914 -20 914 -20 684 -20 c 0,24,25
EndSplineSet
Validated: 1
EndChar

StartChar: uni1E60
Encoding: 7776 7776 218
Width: 1070
Flags: W
HStem: -20 126<293.804 629.474> 1406 124<447.134 724.059> 1670 264<484.191 665.809>
VStem: 182 195<1088.6 1336.47> 445 260<1709.71 1894.29> 779 211<258.188 560.503> 829 10<1223 1232.66>
DStem2: 527 995 430 806 0.826227 -0.563337<-193.529 441.318>
LayerCount: 2
Fore
SplineSet
575 1934 m 128,-1,1
 629 1934 629 1934 667 1895.5 c 128,-1,2
 705 1857 705 1857 705 1802 c 128,-1,3
 705 1747 705 1747 667 1708.5 c 128,-1,4
 629 1670 629 1670 575 1670 c 128,-1,5
 521 1670 521 1670 483 1708.5 c 128,-1,6
 445 1747 445 1747 445 1802 c 128,-1,7
 445 1857 445 1857 483 1895.5 c 128,-1,0
 521 1934 521 1934 575 1934 c 128,-1,1
445 -20 m 0,8,9
 255 -20 255 -20 80 88 c 1,10,-1
 80 389 l 1,11,-1
 90 389 l 1,12,13
 130 301 130 301 183 242 c 0,14,15
 303 106 303 106 457 106 c 128,-1,16
 611 106 611 106 702 212 c 0,17,18
 778 301 778 301 779 418 c 0,19,20
 779 568 779 568 606 686 c 2,21,-1
 430 806 l 2,22,23
 182 975 182 975 182 1175 c 0,24,25
 182 1370 182 1370 337 1466 c 0,26,27
 440 1530 440 1530 573 1530 c 0,28,29
 716 1530 716 1530 839 1474 c 1,30,-1
 839 1223 l 1,31,-1
 829 1223 l 1,32,33
 814 1254 814 1254 795 1284 c 0,34,35
 717 1406 717 1406 597 1406 c 0,36,37
 505 1406 505 1406 449 1363 c 0,38,39
 377 1308 377 1308 377 1210 c 0,40,41
 377 1094 377 1094 527 995 c 2,42,-1
 689 888 l 2,43,44
 990 689 990 689 990 452 c 0,45,46
 990 252 990 252 844 118 c 0,47,48
 693 -20 693 -20 445 -20 c 0,8,9
EndSplineSet
Validated: 1
EndChar

StartChar: uni1E61
Encoding: 7777 7777 219
Width: 874
Flags: W
HStem: -20 104<242.367 537.063> 1026 94<369.448 589.436> 1266 264<370.191 551.809>
VStem: 80 10<320.157 334> 160 172<796.163 996.121> 331 260<1305.71 1490.29> 617 177<165.366 413.27> 652 10<888 896.49>
DStem2: 437 744 367 565 0.828216 -0.560409<-150.955 364.206>
LayerCount: 2
Fore
SplineSet
408 -20 m 0,0,1
 232 -20 232 -20 80 71 c 1,2,-1
 80 334 l 1,3,-1
 90 334 l 1,4,5
 116 244 116 244 166 190 c 0,6,7
 264 84 264 84 402 84 c 0,8,9
 507 84 507 84 572 161 c 0,10,11
 617 214 617 214 617 298 c 0,12,13
 617 397 617 397 508 470 c 2,14,-1
 367 565 l 2,15,16
 160 704 160 704 160 865 c 0,17,18
 160 978 160 978 266 1063 c 0,19,20
 338 1120 338 1120 460 1120 c 0,21,22
 561 1120 561 1120 662 1087 c 1,23,-1
 662 888 l 1,24,-1
 652 888 l 1,25,26
 593 1026 593 1026 477 1026 c 0,27,28
 416 1026 416 1026 378 998 c 0,29,30
 332 964 332 964 332 899 c 0,31,32
 332 815 332 815 437 744 c 2,33,-1
 604 631 l 2,34,35
 794 502 794 502 794 337 c 0,36,37
 794 177 794 177 670 72 c 0,38,39
 560 -20 560 -20 408 -20 c 0,0,1
461 1530 m 128,-1,41
 515 1530 515 1530 553 1491.5 c 128,-1,42
 591 1453 591 1453 591 1398 c 128,-1,43
 591 1343 591 1343 553 1304.5 c 128,-1,44
 515 1266 515 1266 461 1266 c 128,-1,45
 407 1266 407 1266 369 1304.5 c 128,-1,46
 331 1343 331 1343 331 1398 c 128,-1,47
 331 1453 331 1453 369 1491.5 c 128,-1,40
 407 1530 407 1530 461 1530 c 128,-1,41
EndSplineSet
Validated: 1
EndChar

StartChar: uni1E6A
Encoding: 7786 7786 220
Width: 1100
Flags: W
HStem: 0 21G<425 675> 1386 124<24.6875 449.375 650.625 1075.31> 1670 264<462.191 643.809>
VStem: 423 260<1709.71 1894.29> 455 190<4.6875 1383.25>
LayerCount: 2
Fore
SplineSet
553 1934 m 128,-1,1
 607 1934 607 1934 645 1895.5 c 128,-1,2
 683 1857 683 1857 683 1802 c 128,-1,3
 683 1747 683 1747 645 1708.5 c 128,-1,4
 607 1670 607 1670 553 1670 c 128,-1,5
 499 1670 499 1670 461 1708.5 c 128,-1,6
 423 1747 423 1747 423 1802 c 128,-1,7
 423 1857 423 1857 461 1895.5 c 128,-1,0
 499 1934 499 1934 553 1934 c 128,-1,1
425 0 m 1,8,9
 455 150 455 150 455 300 c 2,10,-1
 455 1210 l 2,11,12
 455 1298 455 1298 445 1386 c 1,13,-1
 320 1386 l 2,14,15
 170 1386 170 1386 20 1356 c 1,16,-1
 20 1510 l 1,17,-1
 1080 1510 l 1,18,-1
 1080 1356 l 1,19,20
 930 1386 930 1386 780 1386 c 2,21,-1
 655 1386 l 1,22,23
 645 1298 645 1298 645 1210 c 2,24,-1
 645 300 l 2,25,26
 645 150 645 150 675 0 c 1,27,-1
 425 0 l 1,8,9
EndSplineSet
Validated: 1
EndChar

